SplineFontDB: 3.0
FontName: GohuFont
FullName: GohuFont
FamilyName: GohuFont
Weight: Medium
Copyright: Copyright by Hugo Chargois - Licensed under the WTFPL - Converted by Guilherme Maeda
Version: 001.000
ItalicAngle: 0
UnderlinePosition: -100
UnderlineWidth: 102
Ascent: 1638
Descent: 410
InvalidEm: 0
sfntRevision: 0x00010000
LayerCount: 2
Layer: 0 1 "Back" 1
Layer: 1 1 "Fore" 0
XUID: [1021 924 1147966918 31628]
StyleMap: 0x0000
FSType: 8
OS2Version: 4
OS2_WeightWidthSlopeOnly: 0
OS2_UseTypoMetrics: 1
CreationTime: 1412206208
ModificationTime: 1443238525
PfmFamily: 17
TTFWeight: 500
TTFWidth: 5
LineGap: 377
VLineGap: 0
Panose: 2 0 6 3 0 0 0 0 0 0
OS2TypoAscent: 1638
OS2TypoAOffset: 0
OS2TypoDescent: -410
OS2TypoDOffset: 0
OS2TypoLinegap: 377
OS2WinAscent: 1679
OS2WinAOffset: 0
OS2WinDescent: 370
OS2WinDOffset: 0
HheadAscent: 1679
HheadAOffset: 0
HheadDescent: -370
HheadDOffset: 0
OS2SubXSize: 1331
OS2SubYSize: 1433
OS2SubXOff: 0
OS2SubYOff: 286
OS2SupXSize: 1331
OS2SupYSize: 1433
OS2SupXOff: 0
OS2SupYOff: 983
OS2StrikeYSize: 102
OS2StrikeYPos: 530
OS2CapHeight: 1307
OS2XHeight: 935
OS2Vendor: 'PfEd'
OS2CodePages: 600001bf.dff70000
OS2UnicodeRanges: e0000aff.500079ff.00048020.00000000
Lookup: 1 0 0 "'rtla' Right to Left Alternates lookup 0" { "'rtla' Right to Left Alternates lookup 0 subtable"  } ['rtla' ('DFLT' <'dflt' > ) ]
DEI: 91125
ShortTable: cvt  2
  68
  1297
EndShort
ShortTable: maxp 16
  1
  0
  1698
  264
  15
  0
  0
  2
  0
  1
  1
  0
  64
  46
  0
  0
EndShort
LangName: 1033 "" "" "" "FontForge : GohuFont : 21-1-2015"
GaspTable: 1 65535 2 0
Encoding: UnicodeBmp
UnicodeInterp: none
NameList: AGL For New Fonts
DisplaySize: -48
AntiAlias: 1
FitToEm: 0
WinInfo: 57 19 8
BeginChars: 65540 1698

StartChar: .notdef
Encoding: 65536 -1 0
Width: 1117
Flags: W
LayerCount: 2
Fore
SplineSet
68 0 m 1,0,-1
 68 1365 l 1,1,-1
 612 1365 l 1,2,-1
 612 0 l 1,3,-1
 68 0 l 1,0,-1
136 68 m 1,4,-1
 544 68 l 1,5,-1
 544 1297 l 1,6,-1
 136 1297 l 1,7,-1
 136 68 l 1,4,-1
EndSplineSet
EndChar

StartChar: EXCLAMATION
Encoding: 33 33 4
Width: 1117
Flags: W
LayerCount: 2
Fore
SplineSet
372 934 m 1,0,-1
 372 1493 l 1,1,-1
 465 1493 l 1,2,-1
 559 1493 l 1,3,-1
 559 934 l 1,4,-1
 559 376 l 1,5,-1
 465 376 l 1,6,-1
 372 376 l 1,7,-1
 372 934 l 1,0,-1
372 97 m 1,8,-1
 372 190 l 1,9,-1
 465 190 l 1,10,-1
 559 190 l 1,11,-1
 559 97 l 1,12,-1
 559 4 l 1,13,-1
 465 4 l 1,14,-1
 372 4 l 1,15,-1
 372 97 l 1,8,-1
EndSplineSet
EndChar

StartChar: QUOTATION
Encoding: 34 34 5
Width: 1117
Flags: W
LayerCount: 2
Fore
SplineSet
186 1214 m 1,0,-1
 186 1493 l 1,1,-1
 279 1493 l 1,2,-1
 372 1493 l 1,3,-1
 372 1214 l 1,4,-1
 372 935 l 1,5,-1
 279 935 l 1,6,-1
 186 935 l 1,7,-1
 186 1214 l 1,0,-1
559 1214 m 1,8,-1
 559 1493 l 1,9,-1
 652 1493 l 1,10,-1
 745 1493 l 1,11,-1
 745 1214 l 1,12,-1
 745 935 l 1,13,-1
 652 935 l 1,14,-1
 559 935 l 1,15,-1
 559 1214 l 1,8,-1
EndSplineSet
EndChar

StartChar: NUMBER
Encoding: 35 35 6
Width: 1117
Flags: W
LayerCount: 2
Fore
SplineSet
559 841 m 1,0,-1
 559 934 l 1,1,-1
 466 934 l 1,2,-1
 372 934 l 1,3,-1
 372 841 l 1,4,-1
 372 748 l 1,5,-1
 466 748 l 1,6,-1
 559 748 l 1,7,-1
 559 841 l 1,0,-1
186 1307 m 1,8,-1
 186 1493 l 1,9,-1
 279 1493 l 1,10,-1
 372 1493 l 1,11,-1
 372 1307 l 1,12,-1
 372 1121 l 1,13,-1
 466 1121 l 1,14,-1
 559 1121 l 1,15,-1
 559 1307 l 1,16,-1
 559 1493 l 1,17,-1
 652 1493 l 1,18,-1
 745 1493 l 1,19,-1
 745 1307 l 1,20,-1
 745 1121 l 1,21,-1
 838 1121 l 1,22,-1
 931 1121 l 1,23,-1
 931 1028 l 1,24,-1
 931 934 l 1,25,-1
 838 934 l 1,26,-1
 745 934 l 1,27,-1
 745 841 l 1,28,-1
 745 748 l 1,29,-1
 838 748 l 1,30,-1
 931 748 l 1,31,-1
 931 655 l 1,32,-1
 931 562 l 1,33,-1
 838 562 l 1,34,-1
 745 562 l 1,35,-1
 745 376 l 1,36,-1
 745 190 l 1,37,-1
 652 190 l 1,38,-1
 559 190 l 1,39,-1
 559 376 l 1,40,-1
 559 562 l 1,41,-1
 466 562 l 1,42,-1
 372 562 l 1,43,-1
 372 376 l 1,44,-1
 372 190 l 1,45,-1
 279 190 l 1,46,-1
 186 190 l 1,47,-1
 186 376 l 1,48,-1
 186 562 l 1,49,-1
 93 562 l 1,50,-1
 0 562 l 1,51,-1
 0 655 l 1,52,-1
 0 748 l 1,53,-1
 93 748 l 1,54,-1
 186 748 l 1,55,-1
 186 841 l 1,56,-1
 186 934 l 1,57,-1
 93 934 l 1,58,-1
 0 934 l 1,59,-1
 0 1028 l 1,60,-1
 0 1121 l 1,61,-1
 93 1121 l 1,62,-1
 186 1121 l 1,63,-1
 186 1307 l 1,8,-1
EndSplineSet
EndChar

StartChar: DOLLAR
Encoding: 36 36 7
Width: 1117
Flags: W
LayerCount: 2
Fore
SplineSet
372 934 m 1,0,-1
 372 1121 l 1,1,-1
 279 1121 l 1,2,-1
 186 1121 l 1,3,-1
 186 934 l 1,4,-1
 186 748 l 1,5,-1
 279 748 l 1,6,-1
 372 748 l 1,7,-1
 372 934 l 1,0,-1
372 1400 m 1,8,-1
 372 1493 l 1,9,-1
 466 1493 l 1,10,-1
 559 1493 l 1,11,-1
 559 1400 l 1,12,-1
 559 1307 l 1,13,-1
 652 1307 l 1,14,-1
 745 1307 l 1,15,-1
 745 1214 l 1,16,-1
 745 1121 l 1,17,-1
 652 1121 l 1,18,-1
 559 1121 l 1,19,-1
 559 934 l 1,20,-1
 559 748 l 1,21,-1
 652 748 l 1,22,-1
 745 748 l 1,23,-1
 745 655 l 1,24,-1
 745 562 l 1,25,-1
 652 562 l 1,26,-1
 559 562 l 1,27,-1
 559 376 l 1,28,-1
 559 190 l 1,29,-1
 652 190 l 1,30,-1
 745 190 l 1,31,-1
 745 376 l 1,32,-1
 745 562 l 1,33,-1
 838 562 l 1,34,-1
 931 562 l 1,35,-1
 931 376 l 1,36,-1
 931 190 l 1,37,-1
 838 190 l 1,38,-1
 745 190 l 1,39,-1
 745 96 l 1,40,-1
 745 3 l 1,41,-1
 652 3 l 1,42,-1
 559 3 l 1,43,-1
 559 -90 l 1,44,-1
 559 -182 l 1,45,-1
 466 -182 l 1,46,-1
 372 -182 l 1,47,-1
 372 -90 l 1,48,-1
 372 3 l 1,49,-1
 279 3 l 1,50,-1
 186 3 l 1,51,-1
 186 96 l 1,52,-1
 186 190 l 1,53,-1
 279 190 l 1,54,-1
 372 190 l 1,55,-1
 372 376 l 1,56,-1
 372 562 l 1,57,-1
 279 562 l 1,58,-1
 186 562 l 1,59,-1
 186 655 l 1,60,-1
 186 748 l 1,61,-1
 93 748 l 1,62,-1
 0 748 l 1,63,-1
 0 934 l 1,64,-1
 0 1121 l 1,65,-1
 93 1121 l 1,66,-1
 186 1121 l 1,67,-1
 186 1214 l 1,68,-1
 186 1307 l 1,69,-1
 279 1307 l 1,70,-1
 372 1307 l 1,71,-1
 372 1400 l 1,8,-1
186 190 m 1,72,-1
 93 190 l 1,73,-1
 0 190 l 1,74,-1
 0 283 l 1,75,-1
 0 376 l 1,76,-1
 93 376 l 1,77,-1
 186 376 l 1,78,-1
 186 283 l 1,79,-1
 186 190 l 1,72,-1
745 1121 m 1,80,-1
 838 1121 l 1,81,-1
 931 1121 l 1,82,-1
 931 1028 l 1,83,-1
 931 934 l 1,84,-1
 838 934 l 1,85,-1
 745 934 l 1,86,-1
 745 1028 l 1,87,-1
 745 1121 l 1,80,-1
EndSplineSet
EndChar

StartChar: PERCENT
Encoding: 37 37 8
Width: 1117
Flags: W
LayerCount: 2
Fore
SplineSet
186 1214 m 1,0,-1
 186 1307 l 1,1,-1
 279 1307 l 1,2,-1
 372 1307 l 1,3,-1
 372 1214 l 1,4,-1
 372 1121 l 1,5,-1
 279 1121 l 1,6,-1
 186 1121 l 1,7,-1
 186 1028 l 1,8,-1
 186 935 l 1,9,-1
 279 935 l 1,10,-1
 372 935 l 1,11,-1
 372 1028 l 1,12,-1
 372 1121 l 1,13,-1
 466 1121 l 1,14,-1
 559 1121 l 1,15,-1
 559 1028 l 1,16,-1
 559 935 l 1,17,-1
 466 935 l 1,18,-1
 372 935 l 1,19,-1
 372 841 l 1,20,-1
 372 748 l 1,21,-1
 466 748 l 1,22,-1
 559 748 l 1,23,-1
 559 841 l 1,24,-1
 559 935 l 1,25,-1
 652 935 l 1,26,-1
 745 935 l 1,27,-1
 745 841 l 1,28,-1
 745 748 l 1,29,-1
 652 748 l 1,30,-1
 559 748 l 1,31,-1
 559 655 l 1,32,-1
 559 562 l 1,33,-1
 466 562 l 1,34,-1
 372 562 l 1,35,-1
 372 469 l 1,36,-1
 372 376 l 1,37,-1
 466 376 l 1,38,-1
 559 376 l 1,39,-1
 559 469 l 1,40,-1
 559 562 l 1,41,-1
 652 562 l 1,42,-1
 745 562 l 1,43,-1
 745 469 l 1,44,-1
 745 376 l 1,45,-1
 652 376 l 1,46,-1
 559 376 l 1,47,-1
 559 283 l 1,48,-1
 559 190 l 1,49,-1
 652 190 l 1,50,-1
 745 190 l 1,51,-1
 745 283 l 1,52,-1
 745 376 l 1,53,-1
 838 376 l 1,54,-1
 931 376 l 1,55,-1
 931 283 l 1,56,-1
 931 190 l 1,57,-1
 838 190 l 1,58,-1
 745 190 l 1,59,-1
 745 97 l 1,60,-1
 745 4 l 1,61,-1
 652 4 l 1,62,-1
 559 4 l 1,63,-1
 559 97 l 1,64,-1
 559 190 l 1,65,-1
 466 190 l 1,66,-1
 372 190 l 1,67,-1
 372 283 l 1,68,-1
 372 376 l 1,69,-1
 279 376 l 1,70,-1
 186 376 l 1,71,-1
 186 469 l 1,72,-1
 186 562 l 1,73,-1
 279 562 l 1,74,-1
 372 562 l 1,75,-1
 372 655 l 1,76,-1
 372 748 l 1,77,-1
 279 748 l 1,78,-1
 186 748 l 1,79,-1
 186 841 l 1,80,-1
 186 935 l 1,81,-1
 93 935 l 1,82,-1
 0 935 l 1,83,-1
 0 1028 l 1,84,-1
 0 1121 l 1,85,-1
 93 1121 l 1,86,-1
 186 1121 l 1,87,-1
 186 1214 l 1,0,-1
186 376 m 1,88,-1
 186 190 l 1,89,-1
 186 4 l 1,90,-1
 93 4 l 1,91,-1
 0 4 l 1,92,-1
 0 190 l 1,93,-1
 0 376 l 1,94,-1
 93 376 l 1,95,-1
 186 376 l 1,88,-1
745 935 m 1,96,-1
 745 1121 l 1,97,-1
 745 1307 l 1,98,-1
 838 1307 l 1,99,-1
 931 1307 l 1,100,-1
 931 1121 l 1,101,-1
 931 935 l 1,102,-1
 838 935 l 1,103,-1
 745 935 l 1,96,-1
EndSplineSet
EndChar

StartChar: AMPERSAND
Encoding: 38 38 9
Width: 1117
Flags: W
LayerCount: 2
Fore
SplineSet
186 1214 m 1,0,-1
 186 1307 l 1,1,-1
 373 1307 l 1,2,-1
 559 1307 l 1,3,-1
 559 1214 l 1,4,-1
 559 1121 l 1,5,-1
 373 1121 l 1,6,-1
 186 1121 l 1,7,-1
 186 934 l 1,8,-1
 186 748 l 1,9,-1
 279 748 l 1,10,-1
 372 748 l 1,11,-1
 372 841 l 1,12,-1
 372 935 l 1,13,-1
 466 935 l 1,14,-1
 559 935 l 1,15,-1
 559 1028 l 1,16,-1
 559 1121 l 1,17,-1
 652 1121 l 1,18,-1
 745 1121 l 1,19,-1
 745 1028 l 1,20,-1
 745 935 l 1,21,-1
 652 935 l 1,22,-1
 559 935 l 1,23,-1
 559 841 l 1,24,-1
 559 748 l 1,25,-1
 466 748 l 1,26,-1
 372 748 l 1,27,-1
 372 655 l 1,28,-1
 372 562 l 1,29,-1
 279 562 l 1,30,-1
 186 562 l 1,31,-1
 186 376 l 1,32,-1
 186 190 l 1,33,-1
 373 190 l 1,34,-1
 559 190 l 1,35,-1
 559 283 l 1,36,-1
 559 376 l 1,37,-1
 466 376 l 1,38,-1
 372 376 l 1,39,-1
 372 469 l 1,40,-1
 372 562 l 1,41,-1
 466 562 l 1,42,-1
 559 562 l 1,43,-1
 559 469 l 1,44,-1
 559 376 l 1,45,-1
 652 376 l 1,46,-1
 745 376 l 1,47,-1
 745 283 l 1,48,-1
 745 190 l 1,49,-1
 652 190 l 1,50,-1
 559 190 l 1,51,-1
 559 97 l 1,52,-1
 559 4 l 1,53,-1
 373 4 l 1,54,-1
 186 4 l 1,55,-1
 186 97 l 1,56,-1
 186 190 l 1,57,-1
 93 190 l 1,58,-1
 0 190 l 1,59,-1
 0 376 l 1,60,-1
 0 562 l 1,61,-1
 93 562 l 1,62,-1
 186 562 l 1,63,-1
 186 655 l 1,64,-1
 186 748 l 1,65,-1
 93 748 l 1,66,-1
 0 748 l 1,67,-1
 0 934 l 1,68,-1
 0 1121 l 1,69,-1
 93 1121 l 1,70,-1
 186 1121 l 1,71,-1
 186 1214 l 1,0,-1
745 190 m 1,72,-1
 838 190 l 1,73,-1
 931 190 l 1,74,-1
 931 97 l 1,75,-1
 931 4 l 1,76,-1
 838 4 l 1,77,-1
 745 4 l 1,78,-1
 745 97 l 1,79,-1
 745 190 l 1,72,-1
745 376 m 1,80,-1
 745 469 l 1,81,-1
 745 562 l 1,82,-1
 838 562 l 1,83,-1
 931 562 l 1,84,-1
 931 469 l 1,85,-1
 931 376 l 1,86,-1
 838 376 l 1,87,-1
 745 376 l 1,80,-1
EndSplineSet
EndChar

StartChar: APOSTROPHE
Encoding: 39 39 10
Width: 1117
Flags: W
LayerCount: 2
Fore
SplineSet
372 1213 m 1,0,-1
 372 1492 l 1,1,-1
 465 1492 l 1,2,-1
 558 1492 l 1,3,-1
 558 1213 l 1,4,-1
 558 933 l 1,5,-1
 465 933 l 1,6,-1
 372 933 l 1,7,-1
 372 1213 l 1,0,-1
EndSplineSet
EndChar

StartChar: LEFT
Encoding: 40 40 11
Width: 1117
Flags: W
LayerCount: 2
Fore
SplineSet
559 1400 m 1,0,-1
 559 1493 l 1,1,-1
 652 1493 l 1,2,-1
 745 1493 l 1,3,-1
 745 1400 l 1,4,-1
 745 1307 l 1,5,-1
 652 1307 l 1,6,-1
 559 1307 l 1,7,-1
 559 1400 l 1,0,-1
559 3 m 1,8,-1
 465 3 l 1,9,-1
 372 3 l 1,10,-1
 372 190 l 1,11,-1
 372 376 l 1,12,-1
 279 376 l 1,13,-1
 186 376 l 1,14,-1
 186 655 l 1,15,-1
 186 934 l 1,16,-1
 279 934 l 1,17,-1
 372 934 l 1,18,-1
 372 1121 l 1,19,-1
 372 1307 l 1,20,-1
 465 1307 l 1,21,-1
 559 1307 l 1,22,-1
 559 1121 l 1,23,-1
 559 934 l 1,24,-1
 465 934 l 1,25,-1
 372 934 l 1,26,-1
 372 655 l 1,27,-1
 372 376 l 1,28,-1
 465 376 l 1,29,-1
 559 376 l 1,30,-1
 559 190 l 1,31,-1
 559 3 l 1,8,-1
559 3 m 1,32,-1
 652 3 l 1,33,-1
 745 3 l 1,34,-1
 745 -90 l 1,35,-1
 745 -182 l 1,36,-1
 652 -182 l 1,37,-1
 559 -182 l 1,38,-1
 559 -90 l 1,39,-1
 559 3 l 1,32,-1
EndSplineSet
Substitution2: "'rtla' Right to Left Alternates lookup 0 subtable" RIGHT
EndChar

StartChar: RIGHT
Encoding: 41 41 12
Width: 1117
Flags: W
LayerCount: 2
Fore
SplineSet
186 1400 m 1,0,-1
 186 1493 l 1,1,-1
 279 1493 l 1,2,-1
 372 1493 l 1,3,-1
 372 1400 l 1,4,-1
 372 1307 l 1,5,-1
 279 1307 l 1,6,-1
 186 1307 l 1,7,-1
 186 1400 l 1,0,-1
372 3 m 1,8,-1
 372 190 l 1,9,-1
 372 376 l 1,10,-1
 465 376 l 1,11,-1
 559 376 l 1,12,-1
 559 655 l 1,13,-1
 559 934 l 1,14,-1
 465 934 l 1,15,-1
 372 934 l 1,16,-1
 372 1121 l 1,17,-1
 372 1307 l 1,18,-1
 465 1307 l 1,19,-1
 559 1307 l 1,20,-1
 559 1121 l 1,21,-1
 559 934 l 1,22,-1
 652 934 l 1,23,-1
 745 934 l 1,24,-1
 745 655 l 1,25,-1
 745 376 l 1,26,-1
 652 376 l 1,27,-1
 559 376 l 1,28,-1
 559 190 l 1,29,-1
 559 3 l 1,30,-1
 465 3 l 1,31,-1
 372 3 l 1,8,-1
372 3 m 1,32,-1
 372 -90 l 1,33,-1
 372 -182 l 1,34,-1
 279 -182 l 1,35,-1
 186 -182 l 1,36,-1
 186 -90 l 1,37,-1
 186 3 l 1,38,-1
 279 3 l 1,39,-1
 372 3 l 1,32,-1
EndSplineSet
Substitution2: "'rtla' Right to Left Alternates lookup 0 subtable" LEFT
EndChar

StartChar: ASTERISK
Encoding: 42 42 13
Width: 1117
Flags: W
LayerCount: 2
Fore
SplineSet
372 935 m 1,0,-1
 372 1121 l 1,1,-1
 466 1121 l 1,2,-1
 559 1121 l 1,3,-1
 559 935 l 1,4,-1
 559 748 l 1,5,-1
 652 748 l 1,6,-1
 745 748 l 1,7,-1
 745 655 l 1,8,-1
 745 562 l 1,9,-1
 652 562 l 1,10,-1
 559 562 l 1,11,-1
 559 376 l 1,12,-1
 559 190 l 1,13,-1
 466 190 l 1,14,-1
 372 190 l 1,15,-1
 372 376 l 1,16,-1
 372 562 l 1,17,-1
 279 562 l 1,18,-1
 186 562 l 1,19,-1
 186 655 l 1,20,-1
 186 748 l 1,21,-1
 279 748 l 1,22,-1
 372 748 l 1,23,-1
 372 935 l 1,0,-1
186 748 m 1,24,-1
 93 748 l 1,25,-1
 0 748 l 1,26,-1
 0 842 l 1,27,-1
 0 935 l 1,28,-1
 93 935 l 1,29,-1
 186 935 l 1,30,-1
 186 842 l 1,31,-1
 186 748 l 1,24,-1
186 562 m 1,32,-1
 186 469 l 1,33,-1
 186 376 l 1,34,-1
 93 376 l 1,35,-1
 0 376 l 1,36,-1
 0 469 l 1,37,-1
 0 562 l 1,38,-1
 93 562 l 1,39,-1
 186 562 l 1,32,-1
745 562 m 1,40,-1
 838 562 l 1,41,-1
 931 562 l 1,42,-1
 931 469 l 1,43,-1
 931 376 l 1,44,-1
 838 376 l 1,45,-1
 745 376 l 1,46,-1
 745 469 l 1,47,-1
 745 562 l 1,40,-1
745 748 m 1,48,-1
 745 842 l 1,49,-1
 745 935 l 1,50,-1
 838 935 l 1,51,-1
 931 935 l 1,52,-1
 931 842 l 1,53,-1
 931 748 l 1,54,-1
 838 748 l 1,55,-1
 745 748 l 1,48,-1
EndSplineSet
EndChar

StartChar: PLUS
Encoding: 43 43 14
Width: 1117
Flags: W
LayerCount: 2
Fore
SplineSet
372 935 m 1,0,-1
 372 1121 l 1,1,-1
 466 1121 l 1,2,-1
 559 1121 l 1,3,-1
 559 935 l 1,4,-1
 559 748 l 1,5,-1
 745 748 l 1,6,-1
 931 748 l 1,7,-1
 931 655 l 1,8,-1
 931 562 l 1,9,-1
 745 562 l 1,10,-1
 559 562 l 1,11,-1
 559 376 l 1,12,-1
 559 190 l 1,13,-1
 466 190 l 1,14,-1
 372 190 l 1,15,-1
 372 376 l 1,16,-1
 372 562 l 1,17,-1
 186 562 l 1,18,-1
 0 562 l 1,19,-1
 0 655 l 1,20,-1
 0 748 l 1,21,-1
 186 748 l 1,22,-1
 372 748 l 1,23,-1
 372 935 l 1,0,-1
EndSplineSet
EndChar

StartChar: COMMA
Encoding: 44 44 15
Width: 1117
Flags: W
LayerCount: 2
Fore
SplineSet
186 190 m 1,0,-1
 186 376 l 1,1,-1
 372 376 l 1,2,-1
 559 376 l 1,3,-1
 559 97 l 1,4,-1
 559 -183 l 1,5,-1
 465 -183 l 1,6,-1
 372 -183 l 1,7,-1
 372 -90 l 1,8,-1
 372 4 l 1,9,-1
 279 4 l 1,10,-1
 186 4 l 1,11,-1
 186 190 l 1,0,-1
372 -183 m 1,12,-1
 372 -276 l 1,13,-1
 372 -369 l 1,14,-1
 279 -369 l 1,15,-1
 186 -369 l 1,16,-1
 186 -276 l 1,17,-1
 186 -183 l 1,18,-1
 279 -183 l 1,19,-1
 372 -183 l 1,12,-1
EndSplineSet
EndChar

StartChar: HYPHEN-MINUS
Encoding: 45 45 16
Width: 1117
Flags: W
LayerCount: 2
Fore
SplineSet
0 654 m 1,0,-1
 0 747 l 1,1,-1
 465 747 l 1,2,-1
 931 747 l 1,3,-1
 931 654 l 1,4,-1
 931 561 l 1,5,-1
 465 561 l 1,6,-1
 0 561 l 1,7,-1
 0 654 l 1,0,-1
EndSplineSet
EndChar

StartChar: FULL
Encoding: 46 46 17
Width: 1117
Flags: W
LayerCount: 2
Fore
SplineSet
186 189 m 1,0,-1
 186 374 l 1,1,-1
 372 374 l 1,2,-1
 558 374 l 1,3,-1
 558 189 l 1,4,-1
 558 2 l 1,5,-1
 372 2 l 1,6,-1
 186 2 l 1,7,-1
 186 189 l 1,0,-1
EndSplineSet
EndChar

StartChar: SOLIDUS
Encoding: 47 47 18
Width: 1117
Flags: W
LayerCount: 2
Fore
SplineSet
745 1307 m 1,0,-1
 745 1493 l 1,1,-1
 838 1493 l 1,2,-1
 931 1493 l 1,3,-1
 931 1307 l 1,4,-1
 931 1121 l 1,5,-1
 838 1121 l 1,6,-1
 745 1121 l 1,7,-1
 745 1307 l 1,0,-1
186 3 m 1,8,-1
 186 190 l 1,9,-1
 186 376 l 1,10,-1
 279 376 l 1,11,-1
 372 376 l 1,12,-1
 372 562 l 1,13,-1
 372 748 l 1,14,-1
 466 748 l 1,15,-1
 559 748 l 1,16,-1
 559 934 l 1,17,-1
 559 1121 l 1,18,-1
 652 1121 l 1,19,-1
 745 1121 l 1,20,-1
 745 934 l 1,21,-1
 745 748 l 1,22,-1
 652 748 l 1,23,-1
 559 748 l 1,24,-1
 559 562 l 1,25,-1
 559 376 l 1,26,-1
 466 376 l 1,27,-1
 372 376 l 1,28,-1
 372 190 l 1,29,-1
 372 3 l 1,30,-1
 279 3 l 1,31,-1
 186 3 l 1,8,-1
186 3 m 1,32,-1
 186 -183 l 1,33,-1
 186 -369 l 1,34,-1
 93 -369 l 1,35,-1
 0 -369 l 1,36,-1
 0 -183 l 1,37,-1
 0 3 l 1,38,-1
 93 3 l 1,39,-1
 186 3 l 1,32,-1
EndSplineSet
EndChar

StartChar: DIGIT
Encoding: 48 48 19
Width: 1117
Flags: W
LayerCount: 2
Fore
SplineSet
186 1214 m 1,0,-1
 186 1307 l 1,1,-1
 466 1307 l 1,2,-1
 745 1307 l 1,3,-1
 745 1214 l 1,4,-1
 745 1121 l 1,5,-1
 466 1121 l 1,6,-1
 186 1121 l 1,7,-1
 186 841 l 1,8,-1
 186 562 l 1,9,-1
 279 562 l 1,10,-1
 372 562 l 1,11,-1
 372 469 l 1,12,-1
 372 376 l 1,13,-1
 279 376 l 1,14,-1
 186 376 l 1,15,-1
 186 283 l 1,16,-1
 186 190 l 1,17,-1
 466 190 l 1,18,-1
 745 190 l 1,19,-1
 745 469 l 1,20,-1
 745 748 l 1,21,-1
 652 748 l 1,22,-1
 559 748 l 1,23,-1
 559 841 l 1,24,-1
 559 935 l 1,25,-1
 652 935 l 1,26,-1
 745 935 l 1,27,-1
 745 1028 l 1,28,-1
 745 1121 l 1,29,-1
 838 1121 l 1,30,-1
 931 1121 l 1,31,-1
 931 655 l 1,32,-1
 931 190 l 1,33,-1
 838 190 l 1,34,-1
 745 190 l 1,35,-1
 745 97 l 1,36,-1
 745 4 l 1,37,-1
 466 4 l 1,38,-1
 186 4 l 1,39,-1
 186 97 l 1,40,-1
 186 190 l 1,41,-1
 93 190 l 1,42,-1
 0 190 l 1,43,-1
 0 655 l 1,44,-1
 0 1121 l 1,45,-1
 93 1121 l 1,46,-1
 186 1121 l 1,47,-1
 186 1214 l 1,0,-1
372 655 m 1,48,-1
 372 748 l 1,49,-1
 466 748 l 1,50,-1
 559 748 l 1,51,-1
 559 655 l 1,52,-1
 559 562 l 1,53,-1
 466 562 l 1,54,-1
 372 562 l 1,55,-1
 372 655 l 1,48,-1
EndSplineSet
EndChar

StartChar: DIGIT
Encoding: 49 49 20
Width: 1117
Flags: W
LayerCount: 2
Fore
SplineSet
372 1214 m 1,0,-1
 372 1307 l 1,1,-1
 465 1307 l 1,2,-1
 559 1307 l 1,3,-1
 559 655 l 1,4,-1
 559 4 l 1,5,-1
 465 4 l 1,6,-1
 372 4 l 1,7,-1
 372 469 l 1,8,-1
 372 935 l 1,9,-1
 279 935 l 1,10,-1
 186 935 l 1,11,-1
 186 1028 l 1,12,-1
 186 1121 l 1,13,-1
 279 1121 l 1,14,-1
 372 1121 l 1,15,-1
 372 1214 l 1,0,-1
186 935 m 1,16,-1
 186 841 l 1,17,-1
 186 748 l 1,18,-1
 93 748 l 1,19,-1
 0 748 l 1,20,-1
 0 841 l 1,21,-1
 0 935 l 1,22,-1
 93 935 l 1,23,-1
 186 935 l 1,16,-1
EndSplineSet
EndChar

StartChar: DIGIT
Encoding: 50 50 21
Width: 1117
Flags: W
LayerCount: 2
Fore
SplineSet
186 1214 m 1,0,-1
 186 1307 l 1,1,-1
 466 1307 l 1,2,-1
 745 1307 l 1,3,-1
 745 1214 l 1,4,-1
 745 1121 l 1,5,-1
 466 1121 l 1,6,-1
 186 1121 l 1,7,-1
 186 1214 l 1,0,-1
186 1121 m 1,8,-1
 186 1028 l 1,9,-1
 186 935 l 1,10,-1
 93 935 l 1,11,-1
 0 935 l 1,12,-1
 0 1028 l 1,13,-1
 0 1121 l 1,14,-1
 93 1121 l 1,15,-1
 186 1121 l 1,8,-1
372 376 m 1,16,-1
 372 469 l 1,17,-1
 372 562 l 1,18,-1
 466 562 l 1,19,-1
 559 562 l 1,20,-1
 559 655 l 1,21,-1
 559 748 l 1,22,-1
 652 748 l 1,23,-1
 745 748 l 1,24,-1
 745 934 l 1,25,-1
 745 1121 l 1,26,-1
 838 1121 l 1,27,-1
 931 1121 l 1,28,-1
 931 934 l 1,29,-1
 931 748 l 1,30,-1
 838 748 l 1,31,-1
 745 748 l 1,32,-1
 745 655 l 1,33,-1
 745 562 l 1,34,-1
 652 562 l 1,35,-1
 559 562 l 1,36,-1
 559 469 l 1,37,-1
 559 376 l 1,38,-1
 466 376 l 1,39,-1
 372 376 l 1,16,-1
372 376 m 1,40,-1
 372 283 l 1,41,-1
 372 190 l 1,42,-1
 652 190 l 1,43,-1
 931 190 l 1,44,-1
 931 97 l 1,45,-1
 931 4 l 1,46,-1
 465 4 l 1,47,-1
 0 4 l 1,48,-1
 0 97 l 1,49,-1
 0 190 l 1,50,-1
 93 190 l 1,51,-1
 186 190 l 1,52,-1
 186 283 l 1,53,-1
 186 376 l 1,54,-1
 279 376 l 1,55,-1
 372 376 l 1,40,-1
EndSplineSet
EndChar

StartChar: DIGIT
Encoding: 51 51 22
Width: 1117
Flags: W
LayerCount: 2
Fore
SplineSet
186 1214 m 1,0,-1
 186 1307 l 1,1,-1
 466 1307 l 1,2,-1
 745 1307 l 1,3,-1
 745 1214 l 1,4,-1
 745 1121 l 1,5,-1
 466 1121 l 1,6,-1
 186 1121 l 1,7,-1
 186 1214 l 1,0,-1
186 1121 m 1,8,-1
 186 1028 l 1,9,-1
 186 935 l 1,10,-1
 93 935 l 1,11,-1
 0 935 l 1,12,-1
 0 1028 l 1,13,-1
 0 1121 l 1,14,-1
 93 1121 l 1,15,-1
 186 1121 l 1,8,-1
186 190 m 1,16,-1
 466 190 l 1,17,-1
 745 190 l 1,18,-1
 745 376 l 1,19,-1
 745 562 l 1,20,-1
 559 562 l 1,21,-1
 372 562 l 1,22,-1
 372 655 l 1,23,-1
 372 748 l 1,24,-1
 559 748 l 1,25,-1
 745 748 l 1,26,-1
 745 934 l 1,27,-1
 745 1121 l 1,28,-1
 838 1121 l 1,29,-1
 931 1121 l 1,30,-1
 931 934 l 1,31,-1
 931 748 l 1,32,-1
 838 748 l 1,33,-1
 745 748 l 1,34,-1
 745 655 l 1,35,-1
 745 562 l 1,36,-1
 838 562 l 1,37,-1
 931 562 l 1,38,-1
 931 376 l 1,39,-1
 931 190 l 1,40,-1
 838 190 l 1,41,-1
 745 190 l 1,42,-1
 745 97 l 1,43,-1
 745 4 l 1,44,-1
 466 4 l 1,45,-1
 186 4 l 1,46,-1
 186 97 l 1,47,-1
 186 190 l 1,16,-1
186 190 m 1,48,-1
 93 190 l 1,49,-1
 0 190 l 1,50,-1
 0 283 l 1,51,-1
 0 376 l 1,52,-1
 93 376 l 1,53,-1
 186 376 l 1,54,-1
 186 283 l 1,55,-1
 186 190 l 1,48,-1
EndSplineSet
EndChar

StartChar: DIGIT
Encoding: 52 52 23
Width: 1117
Flags: W
LayerCount: 2
Fore
SplineSet
559 748 m 1,0,-1
 559 935 l 1,1,-1
 466 935 l 1,2,-1
 372 935 l 1,3,-1
 372 841 l 1,4,-1
 372 748 l 1,5,-1
 279 748 l 1,6,-1
 186 748 l 1,7,-1
 186 655 l 1,8,-1
 186 562 l 1,9,-1
 373 562 l 1,10,-1
 559 562 l 1,11,-1
 559 748 l 1,0,-1
559 1214 m 1,12,-1
 559 1307 l 1,13,-1
 652 1307 l 1,14,-1
 745 1307 l 1,15,-1
 745 934 l 1,16,-1
 745 562 l 1,17,-1
 838 562 l 1,18,-1
 931 562 l 1,19,-1
 931 469 l 1,20,-1
 931 376 l 1,21,-1
 838 376 l 1,22,-1
 745 376 l 1,23,-1
 745 190 l 1,24,-1
 745 4 l 1,25,-1
 652 4 l 1,26,-1
 559 4 l 1,27,-1
 559 190 l 1,28,-1
 559 376 l 1,29,-1
 279 376 l 1,30,-1
 0 376 l 1,31,-1
 0 562 l 1,32,-1
 0 748 l 1,33,-1
 93 748 l 1,34,-1
 186 748 l 1,35,-1
 186 841 l 1,36,-1
 186 935 l 1,37,-1
 279 935 l 1,38,-1
 372 935 l 1,39,-1
 372 1028 l 1,40,-1
 372 1121 l 1,41,-1
 466 1121 l 1,42,-1
 559 1121 l 1,43,-1
 559 1214 l 1,12,-1
EndSplineSet
EndChar

StartChar: DIGIT
Encoding: 53 53 24
Width: 1117
Flags: W
LayerCount: 2
Fore
SplineSet
0 1028 m 1,0,-1
 0 1307 l 1,1,-1
 465 1307 l 1,2,-1
 931 1307 l 1,3,-1
 931 1214 l 1,4,-1
 931 1121 l 1,5,-1
 559 1121 l 1,6,-1
 186 1121 l 1,7,-1
 186 1028 l 1,8,-1
 186 935 l 1,9,-1
 466 935 l 1,10,-1
 745 935 l 1,11,-1
 745 841 l 1,12,-1
 745 748 l 1,13,-1
 373 748 l 1,14,-1
 0 748 l 1,15,-1
 0 1028 l 1,0,-1
186 190 m 1,16,-1
 466 190 l 1,17,-1
 745 190 l 1,18,-1
 745 469 l 1,19,-1
 745 748 l 1,20,-1
 838 748 l 1,21,-1
 931 748 l 1,22,-1
 931 469 l 1,23,-1
 931 190 l 1,24,-1
 838 190 l 1,25,-1
 745 190 l 1,26,-1
 745 97 l 1,27,-1
 745 4 l 1,28,-1
 466 4 l 1,29,-1
 186 4 l 1,30,-1
 186 97 l 1,31,-1
 186 190 l 1,16,-1
186 190 m 1,32,-1
 93 190 l 1,33,-1
 0 190 l 1,34,-1
 0 283 l 1,35,-1
 0 376 l 1,36,-1
 93 376 l 1,37,-1
 186 376 l 1,38,-1
 186 283 l 1,39,-1
 186 190 l 1,32,-1
EndSplineSet
EndChar

StartChar: DIGIT
Encoding: 54 54 25
Width: 1117
Flags: W
LayerCount: 2
Fore
SplineSet
186 1214 m 1,0,-1
 186 1307 l 1,1,-1
 466 1307 l 1,2,-1
 745 1307 l 1,3,-1
 745 1214 l 1,4,-1
 745 1121 l 1,5,-1
 466 1121 l 1,6,-1
 186 1121 l 1,7,-1
 186 1214 l 1,0,-1
186 190 m 1,8,-1
 466 190 l 1,9,-1
 745 190 l 1,10,-1
 745 469 l 1,11,-1
 745 748 l 1,12,-1
 466 748 l 1,13,-1
 186 748 l 1,14,-1
 186 469 l 1,15,-1
 186 190 l 1,8,-1
186 190 m 1,16,-1
 93 190 l 1,17,-1
 0 190 l 1,18,-1
 0 655 l 1,19,-1
 0 1121 l 1,20,-1
 93 1121 l 1,21,-1
 186 1121 l 1,22,-1
 186 1028 l 1,23,-1
 186 935 l 1,24,-1
 466 935 l 1,25,-1
 745 935 l 1,26,-1
 745 841 l 1,27,-1
 745 748 l 1,28,-1
 838 748 l 1,29,-1
 931 748 l 1,30,-1
 931 469 l 1,31,-1
 931 190 l 1,32,-1
 838 190 l 1,33,-1
 745 190 l 1,34,-1
 745 97 l 1,35,-1
 745 4 l 1,36,-1
 466 4 l 1,37,-1
 186 4 l 1,38,-1
 186 97 l 1,39,-1
 186 190 l 1,16,-1
EndSplineSet
EndChar

StartChar: DIGIT
Encoding: 55 55 26
Width: 1117
Flags: W
LayerCount: 2
Fore
SplineSet
0 1214 m 1,0,-1
 0 1307 l 1,1,-1
 465 1307 l 1,2,-1
 931 1307 l 1,3,-1
 931 1121 l 1,4,-1
 931 935 l 1,5,-1
 838 935 l 1,6,-1
 745 935 l 1,7,-1
 745 1028 l 1,8,-1
 745 1121 l 1,9,-1
 373 1121 l 1,10,-1
 0 1121 l 1,11,-1
 0 1214 l 1,0,-1
559 562 m 1,12,-1
 559 748 l 1,13,-1
 559 935 l 1,14,-1
 652 935 l 1,15,-1
 745 935 l 1,16,-1
 745 748 l 1,17,-1
 745 562 l 1,18,-1
 652 562 l 1,19,-1
 559 562 l 1,12,-1
559 562 m 1,20,-1
 559 283 l 1,21,-1
 559 4 l 1,22,-1
 466 4 l 1,23,-1
 372 4 l 1,24,-1
 372 283 l 1,25,-1
 372 562 l 1,26,-1
 466 562 l 1,27,-1
 559 562 l 1,20,-1
EndSplineSet
EndChar

StartChar: DIGIT
Encoding: 56 56 27
Width: 1117
Flags: W
LayerCount: 2
Fore
SplineSet
186 1214 m 1,0,-1
 186 1307 l 1,1,-1
 466 1307 l 1,2,-1
 745 1307 l 1,3,-1
 745 1214 l 1,4,-1
 745 1121 l 1,5,-1
 466 1121 l 1,6,-1
 186 1121 l 1,7,-1
 186 934 l 1,8,-1
 186 748 l 1,9,-1
 466 748 l 1,10,-1
 745 748 l 1,11,-1
 745 934 l 1,12,-1
 745 1121 l 1,13,-1
 838 1121 l 1,14,-1
 931 1121 l 1,15,-1
 931 934 l 1,16,-1
 931 748 l 1,17,-1
 838 748 l 1,18,-1
 745 748 l 1,19,-1
 745 655 l 1,20,-1
 745 562 l 1,21,-1
 466 562 l 1,22,-1
 186 562 l 1,23,-1
 186 376 l 1,24,-1
 186 190 l 1,25,-1
 466 190 l 1,26,-1
 745 190 l 1,27,-1
 745 376 l 1,28,-1
 745 562 l 1,29,-1
 838 562 l 1,30,-1
 931 562 l 1,31,-1
 931 376 l 1,32,-1
 931 190 l 1,33,-1
 838 190 l 1,34,-1
 745 190 l 1,35,-1
 745 97 l 1,36,-1
 745 4 l 1,37,-1
 466 4 l 1,38,-1
 186 4 l 1,39,-1
 186 97 l 1,40,-1
 186 190 l 1,41,-1
 93 190 l 1,42,-1
 0 190 l 1,43,-1
 0 376 l 1,44,-1
 0 562 l 1,45,-1
 93 562 l 1,46,-1
 186 562 l 1,47,-1
 186 655 l 1,48,-1
 186 748 l 1,49,-1
 93 748 l 1,50,-1
 0 748 l 1,51,-1
 0 934 l 1,52,-1
 0 1121 l 1,53,-1
 93 1121 l 1,54,-1
 186 1121 l 1,55,-1
 186 1214 l 1,0,-1
EndSplineSet
EndChar

StartChar: DIGIT
Encoding: 57 57 28
Width: 1117
Flags: W
LayerCount: 2
Fore
SplineSet
186 1214 m 1,0,-1
 186 1307 l 1,1,-1
 466 1307 l 1,2,-1
 745 1307 l 1,3,-1
 745 1214 l 1,4,-1
 745 1121 l 1,5,-1
 466 1121 l 1,6,-1
 186 1121 l 1,7,-1
 186 934 l 1,8,-1
 186 748 l 1,9,-1
 466 748 l 1,10,-1
 745 748 l 1,11,-1
 745 934 l 1,12,-1
 745 1121 l 1,13,-1
 838 1121 l 1,14,-1
 931 1121 l 1,15,-1
 931 655 l 1,16,-1
 931 190 l 1,17,-1
 838 190 l 1,18,-1
 745 190 l 1,19,-1
 745 376 l 1,20,-1
 745 562 l 1,21,-1
 466 562 l 1,22,-1
 186 562 l 1,23,-1
 186 655 l 1,24,-1
 186 748 l 1,25,-1
 93 748 l 1,26,-1
 0 748 l 1,27,-1
 0 934 l 1,28,-1
 0 1121 l 1,29,-1
 93 1121 l 1,30,-1
 186 1121 l 1,31,-1
 186 1214 l 1,0,-1
745 190 m 1,32,-1
 745 97 l 1,33,-1
 745 4 l 1,34,-1
 466 4 l 1,35,-1
 186 4 l 1,36,-1
 186 97 l 1,37,-1
 186 190 l 1,38,-1
 466 190 l 1,39,-1
 745 190 l 1,32,-1
EndSplineSet
EndChar

StartChar: COLON
Encoding: 58 58 29
Width: 1117
Flags: W
LayerCount: 2
Fore
SplineSet
372 748 m 1,0,-1
 372 935 l 1,1,-1
 559 935 l 1,2,-1
 745 935 l 1,3,-1
 745 748 l 1,4,-1
 745 562 l 1,5,-1
 559 562 l 1,6,-1
 372 562 l 1,7,-1
 372 748 l 1,0,-1
372 190 m 1,8,-1
 372 376 l 1,9,-1
 559 376 l 1,10,-1
 745 376 l 1,11,-1
 745 190 l 1,12,-1
 745 4 l 1,13,-1
 559 4 l 1,14,-1
 372 4 l 1,15,-1
 372 190 l 1,8,-1
EndSplineSet
EndChar

StartChar: SEMICOLON
Encoding: 59 59 30
Width: 1117
Flags: W
LayerCount: 2
Fore
SplineSet
186 748 m 1,0,-1
 186 935 l 1,1,-1
 372 935 l 1,2,-1
 559 935 l 1,3,-1
 559 748 l 1,4,-1
 559 562 l 1,5,-1
 372 562 l 1,6,-1
 186 562 l 1,7,-1
 186 748 l 1,0,-1
186 190 m 1,8,-1
 186 376 l 1,9,-1
 372 376 l 1,10,-1
 559 376 l 1,11,-1
 559 96 l 1,12,-1
 559 -183 l 1,13,-1
 465 -183 l 1,14,-1
 372 -183 l 1,15,-1
 372 -90 l 1,16,-1
 372 3 l 1,17,-1
 279 3 l 1,18,-1
 186 3 l 1,19,-1
 186 190 l 1,8,-1
372 -183 m 1,20,-1
 372 -276 l 1,21,-1
 372 -369 l 1,22,-1
 279 -369 l 1,23,-1
 186 -369 l 1,24,-1
 186 -276 l 1,25,-1
 186 -183 l 1,26,-1
 279 -183 l 1,27,-1
 372 -183 l 1,20,-1
EndSplineSet
EndChar

StartChar: LESS-THAN
Encoding: 60 60 31
Width: 1117
Flags: W
LayerCount: 2
Fore
SplineSet
745 1214 m 1,0,-1
 745 1307 l 1,1,-1
 838 1307 l 1,2,-1
 931 1307 l 1,3,-1
 931 1214 l 1,4,-1
 931 1121 l 1,5,-1
 838 1121 l 1,6,-1
 745 1121 l 1,7,-1
 745 1214 l 1,0,-1
745 190 m 1,8,-1
 652 190 l 1,9,-1
 559 190 l 1,10,-1
 559 283 l 1,11,-1
 559 376 l 1,12,-1
 465 376 l 1,13,-1
 372 376 l 1,14,-1
 372 469 l 1,15,-1
 372 562 l 1,16,-1
 279 562 l 1,17,-1
 186 562 l 1,18,-1
 186 655 l 1,19,-1
 186 748 l 1,20,-1
 279 748 l 1,21,-1
 372 748 l 1,22,-1
 372 841 l 1,23,-1
 372 935 l 1,24,-1
 465 935 l 1,25,-1
 559 935 l 1,26,-1
 559 1028 l 1,27,-1
 559 1121 l 1,28,-1
 652 1121 l 1,29,-1
 745 1121 l 1,30,-1
 745 1028 l 1,31,-1
 745 935 l 1,32,-1
 652 935 l 1,33,-1
 559 935 l 1,34,-1
 559 841 l 1,35,-1
 559 748 l 1,36,-1
 465 748 l 1,37,-1
 372 748 l 1,38,-1
 372 655 l 1,39,-1
 372 562 l 1,40,-1
 465 562 l 1,41,-1
 559 562 l 1,42,-1
 559 469 l 1,43,-1
 559 376 l 1,44,-1
 652 376 l 1,45,-1
 745 376 l 1,46,-1
 745 283 l 1,47,-1
 745 190 l 1,8,-1
745 190 m 1,48,-1
 838 190 l 1,49,-1
 931 190 l 1,50,-1
 931 97 l 1,51,-1
 931 4 l 1,52,-1
 838 4 l 1,53,-1
 745 4 l 1,54,-1
 745 97 l 1,55,-1
 745 190 l 1,48,-1
EndSplineSet
Substitution2: "'rtla' Right to Left Alternates lookup 0 subtable" GREATER-THAN
EndChar

StartChar: EQUALS
Encoding: 61 61 32
Width: 1117
Flags: W
LayerCount: 2
Fore
SplineSet
0 842 m 1,0,-1
 0 935 l 1,1,-1
 465 935 l 1,2,-1
 931 935 l 1,3,-1
 931 842 l 1,4,-1
 931 748 l 1,5,-1
 465 748 l 1,6,-1
 0 748 l 1,7,-1
 0 842 l 1,0,-1
0 469 m 1,8,-1
 0 562 l 1,9,-1
 465 562 l 1,10,-1
 931 562 l 1,11,-1
 931 469 l 1,12,-1
 931 376 l 1,13,-1
 465 376 l 1,14,-1
 0 376 l 1,15,-1
 0 469 l 1,8,-1
EndSplineSet
EndChar

StartChar: GREATER-THAN
Encoding: 62 62 33
Width: 1117
Flags: W
LayerCount: 2
Fore
SplineSet
186 1214 m 1,0,-1
 186 1307 l 1,1,-1
 279 1307 l 1,2,-1
 372 1307 l 1,3,-1
 372 1214 l 1,4,-1
 372 1121 l 1,5,-1
 279 1121 l 1,6,-1
 186 1121 l 1,7,-1
 186 1214 l 1,0,-1
372 190 m 1,8,-1
 372 283 l 1,9,-1
 372 376 l 1,10,-1
 465 376 l 1,11,-1
 559 376 l 1,12,-1
 559 469 l 1,13,-1
 559 562 l 1,14,-1
 652 562 l 1,15,-1
 745 562 l 1,16,-1
 745 655 l 1,17,-1
 745 748 l 1,18,-1
 652 748 l 1,19,-1
 559 748 l 1,20,-1
 559 841 l 1,21,-1
 559 935 l 1,22,-1
 465 935 l 1,23,-1
 372 935 l 1,24,-1
 372 1028 l 1,25,-1
 372 1121 l 1,26,-1
 465 1121 l 1,27,-1
 559 1121 l 1,28,-1
 559 1028 l 1,29,-1
 559 935 l 1,30,-1
 652 935 l 1,31,-1
 745 935 l 1,32,-1
 745 841 l 1,33,-1
 745 748 l 1,34,-1
 838 748 l 1,35,-1
 931 748 l 1,36,-1
 931 655 l 1,37,-1
 931 562 l 1,38,-1
 838 562 l 1,39,-1
 745 562 l 1,40,-1
 745 469 l 1,41,-1
 745 376 l 1,42,-1
 652 376 l 1,43,-1
 559 376 l 1,44,-1
 559 283 l 1,45,-1
 559 190 l 1,46,-1
 465 190 l 1,47,-1
 372 190 l 1,8,-1
372 190 m 1,48,-1
 372 97 l 1,49,-1
 372 4 l 1,50,-1
 279 4 l 1,51,-1
 186 4 l 1,52,-1
 186 97 l 1,53,-1
 186 190 l 1,54,-1
 279 190 l 1,55,-1
 372 190 l 1,48,-1
EndSplineSet
Substitution2: "'rtla' Right to Left Alternates lookup 0 subtable" LESS-THAN
EndChar

StartChar: QUESTION
Encoding: 63 63 34
Width: 1117
Flags: W
LayerCount: 2
Fore
SplineSet
186 1214 m 1,0,-1
 186 1307 l 1,1,-1
 466 1307 l 1,2,-1
 745 1307 l 1,3,-1
 745 1214 l 1,4,-1
 745 1121 l 1,5,-1
 466 1121 l 1,6,-1
 186 1121 l 1,7,-1
 186 1214 l 1,0,-1
372 97 m 1,8,-1
 372 190 l 1,9,-1
 466 190 l 1,10,-1
 559 190 l 1,11,-1
 559 97 l 1,12,-1
 559 4 l 1,13,-1
 466 4 l 1,14,-1
 372 4 l 1,15,-1
 372 97 l 1,8,-1
186 1121 m 1,16,-1
 186 1028 l 1,17,-1
 186 935 l 1,18,-1
 93 935 l 1,19,-1
 0 935 l 1,20,-1
 0 1028 l 1,21,-1
 0 1121 l 1,22,-1
 93 1121 l 1,23,-1
 186 1121 l 1,16,-1
559 562 m 1,24,-1
 559 655 l 1,25,-1
 559 748 l 1,26,-1
 652 748 l 1,27,-1
 745 748 l 1,28,-1
 745 934 l 1,29,-1
 745 1121 l 1,30,-1
 838 1121 l 1,31,-1
 931 1121 l 1,32,-1
 931 934 l 1,33,-1
 931 748 l 1,34,-1
 838 748 l 1,35,-1
 745 748 l 1,36,-1
 745 655 l 1,37,-1
 745 562 l 1,38,-1
 652 562 l 1,39,-1
 559 562 l 1,24,-1
559 562 m 1,40,-1
 559 469 l 1,41,-1
 559 376 l 1,42,-1
 466 376 l 1,43,-1
 372 376 l 1,44,-1
 372 469 l 1,45,-1
 372 562 l 1,46,-1
 466 562 l 1,47,-1
 559 562 l 1,40,-1
EndSplineSet
EndChar

StartChar: COMMERCIAL
Encoding: 64 64 35
Width: 1117
Flags: W
LayerCount: 2
Fore
SplineSet
745 655 m 1,0,-1
 745 748 l 1,1,-1
 652 748 l 1,2,-1
 559 748 l 1,3,-1
 559 655 l 1,4,-1
 559 562 l 1,5,-1
 652 562 l 1,6,-1
 745 562 l 1,7,-1
 745 655 l 1,0,-1
186 1214 m 1,8,-1
 186 1307 l 1,9,-1
 466 1307 l 1,10,-1
 745 1307 l 1,11,-1
 745 1214 l 1,12,-1
 745 1121 l 1,13,-1
 466 1121 l 1,14,-1
 186 1121 l 1,15,-1
 186 1214 l 1,8,-1
186 190 m 1,16,-1
 93 190 l 1,17,-1
 0 190 l 1,18,-1
 0 655 l 1,19,-1
 0 1121 l 1,20,-1
 93 1121 l 1,21,-1
 186 1121 l 1,22,-1
 186 655 l 1,23,-1
 186 190 l 1,16,-1
186 190 m 1,24,-1
 559 190 l 1,25,-1
 931 190 l 1,26,-1
 931 97 l 1,27,-1
 931 4 l 1,28,-1
 559 4 l 1,29,-1
 186 4 l 1,30,-1
 186 97 l 1,31,-1
 186 190 l 1,24,-1
745 1121 m 1,32,-1
 838 1121 l 1,33,-1
 931 1121 l 1,34,-1
 931 748 l 1,35,-1
 931 376 l 1,36,-1
 652 376 l 1,37,-1
 372 376 l 1,38,-1
 372 655 l 1,39,-1
 372 935 l 1,40,-1
 559 935 l 1,41,-1
 745 935 l 1,42,-1
 745 1028 l 1,43,-1
 745 1121 l 1,32,-1
EndSplineSet
EndChar

StartChar: LATIN
Encoding: 65 65 36
Width: 1117
Flags: W
LayerCount: 2
Fore
SplineSet
186 1400 m 1,0,-1
 186 1493 l 1,1,-1
 466 1493 l 1,2,-1
 745 1493 l 1,3,-1
 745 1400 l 1,4,-1
 745 1307 l 1,5,-1
 466 1307 l 1,6,-1
 186 1307 l 1,7,-1
 186 1121 l 1,8,-1
 186 934 l 1,9,-1
 466 934 l 1,10,-1
 745 934 l 1,11,-1
 745 1121 l 1,12,-1
 745 1307 l 1,13,-1
 838 1307 l 1,14,-1
 931 1307 l 1,15,-1
 931 655 l 1,16,-1
 931 4 l 1,17,-1
 838 4 l 1,18,-1
 745 4 l 1,19,-1
 745 376 l 1,20,-1
 745 748 l 1,21,-1
 466 748 l 1,22,-1
 186 748 l 1,23,-1
 186 376 l 1,24,-1
 186 4 l 1,25,-1
 93 4 l 1,26,-1
 0 4 l 1,27,-1
 0 655 l 1,28,-1
 0 1307 l 1,29,-1
 93 1307 l 1,30,-1
 186 1307 l 1,31,-1
 186 1400 l 1,0,-1
EndSplineSet
EndChar

StartChar: LATIN
Encoding: 66 66 37
Width: 1117
Flags: W
LayerCount: 2
Fore
SplineSet
0 748 m 1,0,-1
 0 1493 l 1,1,-1
 373 1493 l 1,2,-1
 745 1493 l 1,3,-1
 745 1400 l 1,4,-1
 745 1307 l 1,5,-1
 466 1307 l 1,6,-1
 186 1307 l 1,7,-1
 186 1121 l 1,8,-1
 186 934 l 1,9,-1
 466 934 l 1,10,-1
 745 934 l 1,11,-1
 745 1121 l 1,12,-1
 745 1307 l 1,13,-1
 838 1307 l 1,14,-1
 931 1307 l 1,15,-1
 931 1121 l 1,16,-1
 931 934 l 1,17,-1
 838 934 l 1,18,-1
 745 934 l 1,19,-1
 745 841 l 1,20,-1
 745 748 l 1,21,-1
 466 748 l 1,22,-1
 186 748 l 1,23,-1
 186 469 l 1,24,-1
 186 190 l 1,25,-1
 466 190 l 1,26,-1
 745 190 l 1,27,-1
 745 469 l 1,28,-1
 745 748 l 1,29,-1
 838 748 l 1,30,-1
 931 748 l 1,31,-1
 931 469 l 1,32,-1
 931 190 l 1,33,-1
 838 190 l 1,34,-1
 745 190 l 1,35,-1
 745 97 l 1,36,-1
 745 4 l 1,37,-1
 373 4 l 1,38,-1
 0 4 l 1,39,-1
 0 748 l 1,0,-1
EndSplineSet
EndChar

StartChar: LATIN
Encoding: 67 67 38
Width: 1117
Flags: W
LayerCount: 2
Fore
SplineSet
186 1400 m 1,0,-1
 186 1493 l 1,1,-1
 466 1493 l 1,2,-1
 745 1493 l 1,3,-1
 745 1400 l 1,4,-1
 745 1307 l 1,5,-1
 466 1307 l 1,6,-1
 186 1307 l 1,7,-1
 186 1400 l 1,0,-1
745 190 m 1,8,-1
 745 97 l 1,9,-1
 745 4 l 1,10,-1
 466 4 l 1,11,-1
 186 4 l 1,12,-1
 186 97 l 1,13,-1
 186 190 l 1,14,-1
 93 190 l 1,15,-1
 0 190 l 1,16,-1
 0 748 l 1,17,-1
 0 1307 l 1,18,-1
 93 1307 l 1,19,-1
 186 1307 l 1,20,-1
 186 748 l 1,21,-1
 186 190 l 1,22,-1
 466 190 l 1,23,-1
 745 190 l 1,8,-1
745 190 m 1,24,-1
 745 283 l 1,25,-1
 745 376 l 1,26,-1
 838 376 l 1,27,-1
 931 376 l 1,28,-1
 931 283 l 1,29,-1
 931 190 l 1,30,-1
 838 190 l 1,31,-1
 745 190 l 1,24,-1
745 1307 m 1,32,-1
 838 1307 l 1,33,-1
 931 1307 l 1,34,-1
 931 1214 l 1,35,-1
 931 1121 l 1,36,-1
 838 1121 l 1,37,-1
 745 1121 l 1,38,-1
 745 1214 l 1,39,-1
 745 1307 l 1,32,-1
EndSplineSet
EndChar

StartChar: LATIN
Encoding: 68 68 39
Width: 1117
Flags: W
LayerCount: 2
Fore
SplineSet
0 748 m 1,0,-1
 0 1493 l 1,1,-1
 373 1493 l 1,2,-1
 745 1493 l 1,3,-1
 745 1400 l 1,4,-1
 745 1307 l 1,5,-1
 466 1307 l 1,6,-1
 186 1307 l 1,7,-1
 186 748 l 1,8,-1
 186 190 l 1,9,-1
 466 190 l 1,10,-1
 745 190 l 1,11,-1
 745 748 l 1,12,-1
 745 1307 l 1,13,-1
 838 1307 l 1,14,-1
 931 1307 l 1,15,-1
 931 748 l 1,16,-1
 931 190 l 1,17,-1
 838 190 l 1,18,-1
 745 190 l 1,19,-1
 745 97 l 1,20,-1
 745 4 l 1,21,-1
 373 4 l 1,22,-1
 0 4 l 1,23,-1
 0 748 l 1,0,-1
EndSplineSet
EndChar

StartChar: LATIN
Encoding: 69 69 40
Width: 1117
Flags: W
LayerCount: 2
Fore
SplineSet
0 748 m 1,0,-1
 0 1493 l 1,1,-1
 465 1493 l 1,2,-1
 931 1493 l 1,3,-1
 931 1400 l 1,4,-1
 931 1307 l 1,5,-1
 559 1307 l 1,6,-1
 186 1307 l 1,7,-1
 186 1121 l 1,8,-1
 186 934 l 1,9,-1
 466 934 l 1,10,-1
 745 934 l 1,11,-1
 745 841 l 1,12,-1
 745 748 l 1,13,-1
 466 748 l 1,14,-1
 186 748 l 1,15,-1
 186 469 l 1,16,-1
 186 190 l 1,17,-1
 559 190 l 1,18,-1
 931 190 l 1,19,-1
 931 97 l 1,20,-1
 931 4 l 1,21,-1
 465 4 l 1,22,-1
 0 4 l 1,23,-1
 0 748 l 1,0,-1
EndSplineSet
EndChar

StartChar: LATIN
Encoding: 70 70 41
Width: 1117
Flags: W
LayerCount: 2
Fore
SplineSet
0 748 m 1,0,-1
 0 1493 l 1,1,-1
 465 1493 l 1,2,-1
 931 1493 l 1,3,-1
 931 1400 l 1,4,-1
 931 1307 l 1,5,-1
 559 1307 l 1,6,-1
 186 1307 l 1,7,-1
 186 1121 l 1,8,-1
 186 934 l 1,9,-1
 466 934 l 1,10,-1
 745 934 l 1,11,-1
 745 841 l 1,12,-1
 745 748 l 1,13,-1
 466 748 l 1,14,-1
 186 748 l 1,15,-1
 186 376 l 1,16,-1
 186 4 l 1,17,-1
 93 4 l 1,18,-1
 0 4 l 1,19,-1
 0 748 l 1,0,-1
EndSplineSet
EndChar

StartChar: LATIN
Encoding: 71 71 42
Width: 1117
Flags: W
LayerCount: 2
Fore
SplineSet
186 1400 m 1,0,-1
 186 1493 l 1,1,-1
 466 1493 l 1,2,-1
 745 1493 l 1,3,-1
 745 1400 l 1,4,-1
 745 1307 l 1,5,-1
 466 1307 l 1,6,-1
 186 1307 l 1,7,-1
 186 1400 l 1,0,-1
745 190 m 1,8,-1
 745 97 l 1,9,-1
 745 4 l 1,10,-1
 466 4 l 1,11,-1
 186 4 l 1,12,-1
 186 97 l 1,13,-1
 186 190 l 1,14,-1
 93 190 l 1,15,-1
 0 190 l 1,16,-1
 0 748 l 1,17,-1
 0 1307 l 1,18,-1
 93 1307 l 1,19,-1
 186 1307 l 1,20,-1
 186 748 l 1,21,-1
 186 190 l 1,22,-1
 466 190 l 1,23,-1
 745 190 l 1,8,-1
745 190 m 1,24,-1
 745 469 l 1,25,-1
 745 748 l 1,26,-1
 559 748 l 1,27,-1
 372 748 l 1,28,-1
 372 841 l 1,29,-1
 372 934 l 1,30,-1
 652 934 l 1,31,-1
 931 934 l 1,32,-1
 931 562 l 1,33,-1
 931 190 l 1,34,-1
 838 190 l 1,35,-1
 745 190 l 1,24,-1
745 1307 m 1,36,-1
 838 1307 l 1,37,-1
 931 1307 l 1,38,-1
 931 1214 l 1,39,-1
 931 1121 l 1,40,-1
 838 1121 l 1,41,-1
 745 1121 l 1,42,-1
 745 1214 l 1,43,-1
 745 1307 l 1,36,-1
EndSplineSet
EndChar

StartChar: LATIN
Encoding: 72 72 43
Width: 1117
Flags: W
LayerCount: 2
Fore
SplineSet
0 748 m 1,0,-1
 0 1493 l 1,1,-1
 93 1493 l 1,2,-1
 186 1493 l 1,3,-1
 186 1214 l 1,4,-1
 186 934 l 1,5,-1
 466 934 l 1,6,-1
 745 934 l 1,7,-1
 745 1214 l 1,8,-1
 745 1493 l 1,9,-1
 838 1493 l 1,10,-1
 931 1493 l 1,11,-1
 931 748 l 1,12,-1
 931 4 l 1,13,-1
 838 4 l 1,14,-1
 745 4 l 1,15,-1
 745 376 l 1,16,-1
 745 748 l 1,17,-1
 466 748 l 1,18,-1
 186 748 l 1,19,-1
 186 376 l 1,20,-1
 186 4 l 1,21,-1
 93 4 l 1,22,-1
 0 4 l 1,23,-1
 0 748 l 1,0,-1
EndSplineSet
EndChar

StartChar: LATIN
Encoding: 73 73 44
Width: 1117
Flags: W
LayerCount: 2
Fore
SplineSet
186 1400 m 1,0,-1
 186 1493 l 1,1,-1
 465 1493 l 1,2,-1
 745 1493 l 1,3,-1
 745 1400 l 1,4,-1
 745 1307 l 1,5,-1
 652 1307 l 1,6,-1
 559 1307 l 1,7,-1
 559 748 l 1,8,-1
 559 190 l 1,9,-1
 652 190 l 1,10,-1
 745 190 l 1,11,-1
 745 97 l 1,12,-1
 745 4 l 1,13,-1
 465 4 l 1,14,-1
 186 4 l 1,15,-1
 186 97 l 1,16,-1
 186 190 l 1,17,-1
 279 190 l 1,18,-1
 372 190 l 1,19,-1
 372 748 l 1,20,-1
 372 1307 l 1,21,-1
 279 1307 l 1,22,-1
 186 1307 l 1,23,-1
 186 1400 l 1,0,-1
EndSplineSet
EndChar

StartChar: LATIN
Encoding: 74 74 45
Width: 1117
Flags: W
LayerCount: 2
Fore
SplineSet
745 841 m 1,0,-1
 745 1493 l 1,1,-1
 838 1493 l 1,2,-1
 931 1493 l 1,3,-1
 931 841 l 1,4,-1
 931 190 l 1,5,-1
 838 190 l 1,6,-1
 745 190 l 1,7,-1
 745 841 l 1,0,-1
186 190 m 1,8,-1
 466 190 l 1,9,-1
 745 190 l 1,10,-1
 745 97 l 1,11,-1
 745 4 l 1,12,-1
 466 4 l 1,13,-1
 186 4 l 1,14,-1
 186 97 l 1,15,-1
 186 190 l 1,8,-1
186 190 m 1,16,-1
 93 190 l 1,17,-1
 0 190 l 1,18,-1
 0 376 l 1,19,-1
 0 562 l 1,20,-1
 93 562 l 1,21,-1
 186 562 l 1,22,-1
 186 376 l 1,23,-1
 186 190 l 1,16,-1
EndSplineSet
EndChar

StartChar: LATIN
Encoding: 75 75 46
Width: 1117
Flags: W
LayerCount: 2
Fore
SplineSet
0 748 m 1,0,-1
 0 1493 l 1,1,-1
 93 1493 l 1,2,-1
 186 1493 l 1,3,-1
 186 1214 l 1,4,-1
 186 934 l 1,5,-1
 279 934 l 1,6,-1
 372 934 l 1,7,-1
 372 841 l 1,8,-1
 372 748 l 1,9,-1
 279 748 l 1,10,-1
 186 748 l 1,11,-1
 186 376 l 1,12,-1
 186 4 l 1,13,-1
 93 4 l 1,14,-1
 0 4 l 1,15,-1
 0 748 l 1,0,-1
745 376 m 1,16,-1
 652 376 l 1,17,-1
 559 376 l 1,18,-1
 559 469 l 1,19,-1
 559 562 l 1,20,-1
 466 562 l 1,21,-1
 372 562 l 1,22,-1
 372 655 l 1,23,-1
 372 748 l 1,24,-1
 466 748 l 1,25,-1
 559 748 l 1,26,-1
 559 655 l 1,27,-1
 559 562 l 1,28,-1
 652 562 l 1,29,-1
 745 562 l 1,30,-1
 745 469 l 1,31,-1
 745 376 l 1,16,-1
745 376 m 1,32,-1
 838 376 l 1,33,-1
 931 376 l 1,34,-1
 931 190 l 1,35,-1
 931 4 l 1,36,-1
 838 4 l 1,37,-1
 745 4 l 1,38,-1
 745 190 l 1,39,-1
 745 376 l 1,32,-1
745 1307 m 1,40,-1
 745 1214 l 1,41,-1
 745 1121 l 1,42,-1
 652 1121 l 1,43,-1
 559 1121 l 1,44,-1
 559 1028 l 1,45,-1
 559 934 l 1,46,-1
 466 934 l 1,47,-1
 372 934 l 1,48,-1
 372 1028 l 1,49,-1
 372 1121 l 1,50,-1
 466 1121 l 1,51,-1
 559 1121 l 1,52,-1
 559 1214 l 1,53,-1
 559 1307 l 1,54,-1
 652 1307 l 1,55,-1
 745 1307 l 1,40,-1
745 1307 m 1,56,-1
 745 1400 l 1,57,-1
 745 1493 l 1,58,-1
 838 1493 l 1,59,-1
 931 1493 l 1,60,-1
 931 1400 l 1,61,-1
 931 1307 l 1,62,-1
 838 1307 l 1,63,-1
 745 1307 l 1,56,-1
EndSplineSet
EndChar

StartChar: LATIN
Encoding: 76 76 47
Width: 1117
Flags: W
LayerCount: 2
Fore
SplineSet
0 748 m 1,0,-1
 0 1493 l 1,1,-1
 93 1493 l 1,2,-1
 186 1493 l 1,3,-1
 186 841 l 1,4,-1
 186 190 l 1,5,-1
 559 190 l 1,6,-1
 931 190 l 1,7,-1
 931 97 l 1,8,-1
 931 4 l 1,9,-1
 465 4 l 1,10,-1
 0 4 l 1,11,-1
 0 748 l 1,0,-1
EndSplineSet
EndChar

StartChar: LATIN
Encoding: 77 77 48
Width: 1117
Flags: W
LayerCount: 2
Fore
SplineSet
0 748 m 1,0,-1
 0 1493 l 1,1,-1
 93 1493 l 1,2,-1
 186 1493 l 1,3,-1
 186 1400 l 1,4,-1
 186 1307 l 1,5,-1
 279 1307 l 1,6,-1
 372 1307 l 1,7,-1
 372 1214 l 1,8,-1
 372 1121 l 1,9,-1
 279 1121 l 1,10,-1
 186 1121 l 1,11,-1
 186 562 l 1,12,-1
 186 4 l 1,13,-1
 93 4 l 1,14,-1
 0 4 l 1,15,-1
 0 748 l 1,0,-1
559 1121 m 1,16,-1
 559 934 l 1,17,-1
 559 748 l 1,18,-1
 466 748 l 1,19,-1
 372 748 l 1,20,-1
 372 934 l 1,21,-1
 372 1121 l 1,22,-1
 466 1121 l 1,23,-1
 559 1121 l 1,16,-1
559 1121 m 1,24,-1
 559 1214 l 1,25,-1
 559 1307 l 1,26,-1
 652 1307 l 1,27,-1
 745 1307 l 1,28,-1
 745 1400 l 1,29,-1
 745 1493 l 1,30,-1
 838 1493 l 1,31,-1
 931 1493 l 1,32,-1
 931 748 l 1,33,-1
 931 4 l 1,34,-1
 838 4 l 1,35,-1
 745 4 l 1,36,-1
 745 562 l 1,37,-1
 745 1121 l 1,38,-1
 652 1121 l 1,39,-1
 559 1121 l 1,24,-1
EndSplineSet
EndChar

StartChar: LATIN
Encoding: 78 78 49
Width: 1117
Flags: W
LayerCount: 2
Fore
SplineSet
0 748 m 1,0,-1
 0 1493 l 1,1,-1
 93 1493 l 1,2,-1
 186 1493 l 1,3,-1
 186 1400 l 1,4,-1
 186 1307 l 1,5,-1
 279 1307 l 1,6,-1
 372 1307 l 1,7,-1
 372 1121 l 1,8,-1
 372 934 l 1,9,-1
 279 934 l 1,10,-1
 186 934 l 1,11,-1
 186 469 l 1,12,-1
 186 4 l 1,13,-1
 93 4 l 1,14,-1
 0 4 l 1,15,-1
 0 748 l 1,0,-1
559 562 m 1,16,-1
 466 562 l 1,17,-1
 372 562 l 1,18,-1
 372 748 l 1,19,-1
 372 934 l 1,20,-1
 466 934 l 1,21,-1
 559 934 l 1,22,-1
 559 748 l 1,23,-1
 559 562 l 1,16,-1
559 562 m 1,24,-1
 652 562 l 1,25,-1
 745 562 l 1,26,-1
 745 1028 l 1,27,-1
 745 1493 l 1,28,-1
 838 1493 l 1,29,-1
 931 1493 l 1,30,-1
 931 748 l 1,31,-1
 931 4 l 1,32,-1
 838 4 l 1,33,-1
 745 4 l 1,34,-1
 745 97 l 1,35,-1
 745 190 l 1,36,-1
 652 190 l 1,37,-1
 559 190 l 1,38,-1
 559 376 l 1,39,-1
 559 562 l 1,24,-1
EndSplineSet
EndChar

StartChar: LATIN
Encoding: 79 79 50
Width: 1117
Flags: W
LayerCount: 2
Fore
SplineSet
186 1400 m 1,0,-1
 186 1493 l 1,1,-1
 466 1493 l 1,2,-1
 745 1493 l 1,3,-1
 745 1400 l 1,4,-1
 745 1307 l 1,5,-1
 466 1307 l 1,6,-1
 186 1307 l 1,7,-1
 186 748 l 1,8,-1
 186 190 l 1,9,-1
 466 190 l 1,10,-1
 745 190 l 1,11,-1
 745 748 l 1,12,-1
 745 1307 l 1,13,-1
 838 1307 l 1,14,-1
 931 1307 l 1,15,-1
 931 748 l 1,16,-1
 931 190 l 1,17,-1
 838 190 l 1,18,-1
 745 190 l 1,19,-1
 745 97 l 1,20,-1
 745 4 l 1,21,-1
 466 4 l 1,22,-1
 186 4 l 1,23,-1
 186 97 l 1,24,-1
 186 190 l 1,25,-1
 93 190 l 1,26,-1
 0 190 l 1,27,-1
 0 748 l 1,28,-1
 0 1307 l 1,29,-1
 93 1307 l 1,30,-1
 186 1307 l 1,31,-1
 186 1400 l 1,0,-1
EndSplineSet
EndChar

StartChar: LATIN
Encoding: 80 80 51
Width: 1117
Flags: W
LayerCount: 2
Fore
SplineSet
0 748 m 1,0,-1
 0 1493 l 1,1,-1
 373 1493 l 1,2,-1
 745 1493 l 1,3,-1
 745 1400 l 1,4,-1
 745 1307 l 1,5,-1
 466 1307 l 1,6,-1
 186 1307 l 1,7,-1
 186 1121 l 1,8,-1
 186 934 l 1,9,-1
 466 934 l 1,10,-1
 745 934 l 1,11,-1
 745 1121 l 1,12,-1
 745 1307 l 1,13,-1
 838 1307 l 1,14,-1
 931 1307 l 1,15,-1
 931 1121 l 1,16,-1
 931 934 l 1,17,-1
 838 934 l 1,18,-1
 745 934 l 1,19,-1
 745 841 l 1,20,-1
 745 748 l 1,21,-1
 466 748 l 1,22,-1
 186 748 l 1,23,-1
 186 376 l 1,24,-1
 186 4 l 1,25,-1
 93 4 l 1,26,-1
 0 4 l 1,27,-1
 0 748 l 1,0,-1
EndSplineSet
EndChar

StartChar: LATIN
Encoding: 81 81 52
Width: 1117
Flags: W
LayerCount: 2
Fore
SplineSet
186 1400 m 1,0,-1
 186 1493 l 1,1,-1
 466 1493 l 1,2,-1
 745 1493 l 1,3,-1
 745 1400 l 1,4,-1
 745 1307 l 1,5,-1
 466 1307 l 1,6,-1
 186 1307 l 1,7,-1
 186 748 l 1,8,-1
 186 190 l 1,9,-1
 373 190 l 1,10,-1
 559 190 l 1,11,-1
 559 283 l 1,12,-1
 559 376 l 1,13,-1
 652 376 l 1,14,-1
 745 376 l 1,15,-1
 745 841 l 1,16,-1
 745 1307 l 1,17,-1
 838 1307 l 1,18,-1
 931 1307 l 1,19,-1
 931 841 l 1,20,-1
 931 376 l 1,21,-1
 838 376 l 1,22,-1
 745 376 l 1,23,-1
 745 283 l 1,24,-1
 745 190 l 1,25,-1
 652 190 l 1,26,-1
 559 190 l 1,27,-1
 559 96 l 1,28,-1
 559 3 l 1,29,-1
 373 3 l 1,30,-1
 186 3 l 1,31,-1
 186 96 l 1,32,-1
 186 190 l 1,33,-1
 93 190 l 1,34,-1
 0 190 l 1,35,-1
 0 748 l 1,36,-1
 0 1307 l 1,37,-1
 93 1307 l 1,38,-1
 186 1307 l 1,39,-1
 186 1400 l 1,0,-1
372 469 m 1,40,-1
 372 562 l 1,41,-1
 466 562 l 1,42,-1
 559 562 l 1,43,-1
 559 469 l 1,44,-1
 559 376 l 1,45,-1
 466 376 l 1,46,-1
 372 376 l 1,47,-1
 372 469 l 1,40,-1
745 190 m 1,48,-1
 838 190 l 1,49,-1
 931 190 l 1,50,-1
 931 4 l 1,51,-1
 931 -182 l 1,52,-1
 838 -182 l 1,53,-1
 745 -182 l 1,54,-1
 745 4 l 1,55,-1
 745 190 l 1,48,-1
EndSplineSet
EndChar

StartChar: LATIN
Encoding: 82 82 53
Width: 1117
Flags: W
LayerCount: 2
Fore
SplineSet
0 748 m 1,0,-1
 0 1493 l 1,1,-1
 373 1493 l 1,2,-1
 745 1493 l 1,3,-1
 745 1400 l 1,4,-1
 745 1307 l 1,5,-1
 466 1307 l 1,6,-1
 186 1307 l 1,7,-1
 186 1121 l 1,8,-1
 186 934 l 1,9,-1
 466 934 l 1,10,-1
 745 934 l 1,11,-1
 745 1121 l 1,12,-1
 745 1307 l 1,13,-1
 838 1307 l 1,14,-1
 931 1307 l 1,15,-1
 931 1121 l 1,16,-1
 931 934 l 1,17,-1
 838 934 l 1,18,-1
 745 934 l 1,19,-1
 745 748 l 1,20,-1
 745 562 l 1,21,-1
 652 562 l 1,22,-1
 559 562 l 1,23,-1
 559 655 l 1,24,-1
 559 748 l 1,25,-1
 373 748 l 1,26,-1
 186 748 l 1,27,-1
 186 376 l 1,28,-1
 186 4 l 1,29,-1
 93 4 l 1,30,-1
 0 4 l 1,31,-1
 0 748 l 1,0,-1
745 562 m 1,32,-1
 838 562 l 1,33,-1
 931 562 l 1,34,-1
 931 283 l 1,35,-1
 931 4 l 1,36,-1
 838 4 l 1,37,-1
 745 4 l 1,38,-1
 745 283 l 1,39,-1
 745 562 l 1,32,-1
EndSplineSet
EndChar

StartChar: LATIN
Encoding: 83 83 54
Width: 1117
Flags: W
LayerCount: 2
Fore
SplineSet
186 1400 m 1,0,-1
 186 1493 l 1,1,-1
 466 1493 l 1,2,-1
 745 1493 l 1,3,-1
 745 1400 l 1,4,-1
 745 1307 l 1,5,-1
 466 1307 l 1,6,-1
 186 1307 l 1,7,-1
 186 1400 l 1,0,-1
186 190 m 1,8,-1
 466 190 l 1,9,-1
 745 190 l 1,10,-1
 745 469 l 1,11,-1
 745 748 l 1,12,-1
 466 748 l 1,13,-1
 186 748 l 1,14,-1
 186 841 l 1,15,-1
 186 934 l 1,16,-1
 93 934 l 1,17,-1
 0 934 l 1,18,-1
 0 1121 l 1,19,-1
 0 1307 l 1,20,-1
 93 1307 l 1,21,-1
 186 1307 l 1,22,-1
 186 1121 l 1,23,-1
 186 934 l 1,24,-1
 466 934 l 1,25,-1
 745 934 l 1,26,-1
 745 841 l 1,27,-1
 745 748 l 1,28,-1
 838 748 l 1,29,-1
 931 748 l 1,30,-1
 931 469 l 1,31,-1
 931 190 l 1,32,-1
 838 190 l 1,33,-1
 745 190 l 1,34,-1
 745 97 l 1,35,-1
 745 4 l 1,36,-1
 466 4 l 1,37,-1
 186 4 l 1,38,-1
 186 97 l 1,39,-1
 186 190 l 1,8,-1
186 190 m 1,40,-1
 93 190 l 1,41,-1
 0 190 l 1,42,-1
 0 283 l 1,43,-1
 0 376 l 1,44,-1
 93 376 l 1,45,-1
 186 376 l 1,46,-1
 186 283 l 1,47,-1
 186 190 l 1,40,-1
745 1307 m 1,48,-1
 838 1307 l 1,49,-1
 931 1307 l 1,50,-1
 931 1214 l 1,51,-1
 931 1121 l 1,52,-1
 838 1121 l 1,53,-1
 745 1121 l 1,54,-1
 745 1214 l 1,55,-1
 745 1307 l 1,48,-1
EndSplineSet
EndChar

StartChar: LATIN
Encoding: 84 84 55
Width: 1117
Flags: W
LayerCount: 2
Fore
SplineSet
0 1400 m 1,0,-1
 0 1493 l 1,1,-1
 465 1493 l 1,2,-1
 931 1493 l 1,3,-1
 931 1400 l 1,4,-1
 931 1307 l 1,5,-1
 745 1307 l 1,6,-1
 559 1307 l 1,7,-1
 559 655 l 1,8,-1
 559 4 l 1,9,-1
 466 4 l 1,10,-1
 372 4 l 1,11,-1
 372 655 l 1,12,-1
 372 1307 l 1,13,-1
 186 1307 l 1,14,-1
 0 1307 l 1,15,-1
 0 1400 l 1,0,-1
EndSplineSet
EndChar

StartChar: LATIN
Encoding: 85 85 56
Width: 1117
Flags: W
LayerCount: 2
Fore
SplineSet
0 841 m 1,0,-1
 0 1493 l 1,1,-1
 93 1493 l 1,2,-1
 186 1493 l 1,3,-1
 186 841 l 1,4,-1
 186 190 l 1,5,-1
 93 190 l 1,6,-1
 0 190 l 1,7,-1
 0 841 l 1,0,-1
745 190 m 1,8,-1
 745 97 l 1,9,-1
 745 4 l 1,10,-1
 466 4 l 1,11,-1
 186 4 l 1,12,-1
 186 97 l 1,13,-1
 186 190 l 1,14,-1
 466 190 l 1,15,-1
 745 190 l 1,8,-1
745 190 m 1,16,-1
 745 841 l 1,17,-1
 745 1493 l 1,18,-1
 838 1493 l 1,19,-1
 931 1493 l 1,20,-1
 931 841 l 1,21,-1
 931 190 l 1,22,-1
 838 190 l 1,23,-1
 745 190 l 1,16,-1
EndSplineSet
EndChar

StartChar: LATIN
Encoding: 86 86 57
Width: 1117
Flags: W
LayerCount: 2
Fore
SplineSet
0 1121 m 1,0,-1
 0 1493 l 1,1,-1
 93 1493 l 1,2,-1
 186 1493 l 1,3,-1
 186 1121 l 1,4,-1
 186 748 l 1,5,-1
 93 748 l 1,6,-1
 0 748 l 1,7,-1
 0 1121 l 1,0,-1
745 748 m 1,8,-1
 745 562 l 1,9,-1
 745 376 l 1,10,-1
 652 376 l 1,11,-1
 559 376 l 1,12,-1
 559 190 l 1,13,-1
 559 4 l 1,14,-1
 466 4 l 1,15,-1
 372 4 l 1,16,-1
 372 190 l 1,17,-1
 372 376 l 1,18,-1
 279 376 l 1,19,-1
 186 376 l 1,20,-1
 186 562 l 1,21,-1
 186 748 l 1,22,-1
 279 748 l 1,23,-1
 372 748 l 1,24,-1
 372 562 l 1,25,-1
 372 376 l 1,26,-1
 466 376 l 1,27,-1
 559 376 l 1,28,-1
 559 562 l 1,29,-1
 559 748 l 1,30,-1
 652 748 l 1,31,-1
 745 748 l 1,8,-1
745 748 m 1,32,-1
 745 1121 l 1,33,-1
 745 1493 l 1,34,-1
 838 1493 l 1,35,-1
 931 1493 l 1,36,-1
 931 1121 l 1,37,-1
 931 748 l 1,38,-1
 838 748 l 1,39,-1
 745 748 l 1,32,-1
EndSplineSet
EndChar

StartChar: LATIN
Encoding: 87 87 58
Width: 1117
Flags: W
LayerCount: 2
Fore
SplineSet
0 934 m 1,0,-1
 0 1493 l 1,1,-1
 93 1493 l 1,2,-1
 186 1493 l 1,3,-1
 186 934 l 1,4,-1
 186 376 l 1,5,-1
 93 376 l 1,6,-1
 0 376 l 1,7,-1
 0 934 l 1,0,-1
745 376 m 1,8,-1
 745 190 l 1,9,-1
 745 4 l 1,10,-1
 652 4 l 1,11,-1
 559 4 l 1,12,-1
 559 190 l 1,13,-1
 559 376 l 1,14,-1
 466 376 l 1,15,-1
 372 376 l 1,16,-1
 372 190 l 1,17,-1
 372 4 l 1,18,-1
 279 4 l 1,19,-1
 186 4 l 1,20,-1
 186 190 l 1,21,-1
 186 376 l 1,22,-1
 279 376 l 1,23,-1
 372 376 l 1,24,-1
 372 655 l 1,25,-1
 372 934 l 1,26,-1
 466 934 l 1,27,-1
 559 934 l 1,28,-1
 559 655 l 1,29,-1
 559 376 l 1,30,-1
 652 376 l 1,31,-1
 745 376 l 1,8,-1
745 376 m 1,32,-1
 745 934 l 1,33,-1
 745 1493 l 1,34,-1
 838 1493 l 1,35,-1
 931 1493 l 1,36,-1
 931 934 l 1,37,-1
 931 376 l 1,38,-1
 838 376 l 1,39,-1
 745 376 l 1,32,-1
EndSplineSet
EndChar

StartChar: LATIN
Encoding: 88 88 59
Width: 1117
Flags: W
LayerCount: 2
Fore
SplineSet
0 1307 m 1,0,-1
 0 1493 l 1,1,-1
 93 1493 l 1,2,-1
 186 1493 l 1,3,-1
 186 1307 l 1,4,-1
 186 1121 l 1,5,-1
 93 1121 l 1,6,-1
 0 1121 l 1,7,-1
 0 1307 l 1,0,-1
186 562 m 1,8,-1
 186 655 l 1,9,-1
 186 748 l 1,10,-1
 279 748 l 1,11,-1
 372 748 l 1,12,-1
 372 841 l 1,13,-1
 372 934 l 1,14,-1
 279 934 l 1,15,-1
 186 934 l 1,16,-1
 186 1028 l 1,17,-1
 186 1121 l 1,18,-1
 279 1121 l 1,19,-1
 372 1121 l 1,20,-1
 372 1028 l 1,21,-1
 372 934 l 1,22,-1
 466 934 l 1,23,-1
 559 934 l 1,24,-1
 559 841 l 1,25,-1
 559 748 l 1,26,-1
 466 748 l 1,27,-1
 372 748 l 1,28,-1
 372 655 l 1,29,-1
 372 562 l 1,30,-1
 279 562 l 1,31,-1
 186 562 l 1,8,-1
186 562 m 1,32,-1
 186 283 l 1,33,-1
 186 4 l 1,34,-1
 93 4 l 1,35,-1
 0 4 l 1,36,-1
 0 283 l 1,37,-1
 0 562 l 1,38,-1
 93 562 l 1,39,-1
 186 562 l 1,32,-1
745 562 m 1,40,-1
 652 562 l 1,41,-1
 559 562 l 1,42,-1
 559 655 l 1,43,-1
 559 748 l 1,44,-1
 652 748 l 1,45,-1
 745 748 l 1,46,-1
 745 655 l 1,47,-1
 745 562 l 1,40,-1
745 562 m 1,48,-1
 838 562 l 1,49,-1
 931 562 l 1,50,-1
 931 283 l 1,51,-1
 931 4 l 1,52,-1
 838 4 l 1,53,-1
 745 4 l 1,54,-1
 745 283 l 1,55,-1
 745 562 l 1,48,-1
745 1121 m 1,56,-1
 745 1028 l 1,57,-1
 745 934 l 1,58,-1
 652 934 l 1,59,-1
 559 934 l 1,60,-1
 559 1028 l 1,61,-1
 559 1121 l 1,62,-1
 652 1121 l 1,63,-1
 745 1121 l 1,56,-1
745 1121 m 1,64,-1
 745 1307 l 1,65,-1
 745 1493 l 1,66,-1
 838 1493 l 1,67,-1
 931 1493 l 1,68,-1
 931 1307 l 1,69,-1
 931 1121 l 1,70,-1
 838 1121 l 1,71,-1
 745 1121 l 1,64,-1
EndSplineSet
EndChar

StartChar: LATIN
Encoding: 89 89 60
Width: 1117
Flags: W
LayerCount: 2
Fore
SplineSet
0 1307 m 1,0,-1
 0 1493 l 1,1,-1
 93 1493 l 1,2,-1
 186 1493 l 1,3,-1
 186 1307 l 1,4,-1
 186 1121 l 1,5,-1
 93 1121 l 1,6,-1
 0 1121 l 1,7,-1
 0 1307 l 1,0,-1
745 1121 m 1,8,-1
 745 1028 l 1,9,-1
 745 934 l 1,10,-1
 652 934 l 1,11,-1
 559 934 l 1,12,-1
 559 469 l 1,13,-1
 559 4 l 1,14,-1
 466 4 l 1,15,-1
 372 4 l 1,16,-1
 372 469 l 1,17,-1
 372 934 l 1,18,-1
 279 934 l 1,19,-1
 186 934 l 1,20,-1
 186 1028 l 1,21,-1
 186 1121 l 1,22,-1
 279 1121 l 1,23,-1
 372 1121 l 1,24,-1
 372 1028 l 1,25,-1
 372 934 l 1,26,-1
 466 934 l 1,27,-1
 559 934 l 1,28,-1
 559 1028 l 1,29,-1
 559 1121 l 1,30,-1
 652 1121 l 1,31,-1
 745 1121 l 1,8,-1
745 1121 m 1,32,-1
 745 1307 l 1,33,-1
 745 1493 l 1,34,-1
 838 1493 l 1,35,-1
 931 1493 l 1,36,-1
 931 1307 l 1,37,-1
 931 1121 l 1,38,-1
 838 1121 l 1,39,-1
 745 1121 l 1,32,-1
EndSplineSet
EndChar

StartChar: LATIN
Encoding: 90 90 61
Width: 1117
Flags: W
LayerCount: 2
Fore
SplineSet
0 1400 m 1,0,-1
 0 1493 l 1,1,-1
 465 1493 l 1,2,-1
 931 1493 l 1,3,-1
 931 1307 l 1,4,-1
 931 1121 l 1,5,-1
 838 1121 l 1,6,-1
 745 1121 l 1,7,-1
 745 1214 l 1,8,-1
 745 1307 l 1,9,-1
 373 1307 l 1,10,-1
 0 1307 l 1,11,-1
 0 1400 l 1,0,-1
186 562 m 1,12,-1
 186 655 l 1,13,-1
 186 748 l 1,14,-1
 279 748 l 1,15,-1
 372 748 l 1,16,-1
 372 841 l 1,17,-1
 372 934 l 1,18,-1
 466 934 l 1,19,-1
 559 934 l 1,20,-1
 559 1028 l 1,21,-1
 559 1121 l 1,22,-1
 652 1121 l 1,23,-1
 745 1121 l 1,24,-1
 745 1028 l 1,25,-1
 745 934 l 1,26,-1
 652 934 l 1,27,-1
 559 934 l 1,28,-1
 559 841 l 1,29,-1
 559 748 l 1,30,-1
 466 748 l 1,31,-1
 372 748 l 1,32,-1
 372 655 l 1,33,-1
 372 562 l 1,34,-1
 279 562 l 1,35,-1
 186 562 l 1,12,-1
186 562 m 1,36,-1
 186 376 l 1,37,-1
 186 190 l 1,38,-1
 559 190 l 1,39,-1
 931 190 l 1,40,-1
 931 97 l 1,41,-1
 931 4 l 1,42,-1
 465 4 l 1,43,-1
 0 4 l 1,44,-1
 0 283 l 1,45,-1
 0 562 l 1,46,-1
 93 562 l 1,47,-1
 186 562 l 1,36,-1
EndSplineSet
EndChar

StartChar: LEFT
Encoding: 91 91 62
Width: 1117
Flags: W
LayerCount: 2
Fore
SplineSet
372 655 m 1,0,-1
 372 1493 l 1,1,-1
 652 1493 l 1,2,-1
 931 1493 l 1,3,-1
 931 1400 l 1,4,-1
 931 1307 l 1,5,-1
 745 1307 l 1,6,-1
 559 1307 l 1,7,-1
 559 655 l 1,8,-1
 559 3 l 1,9,-1
 745 3 l 1,10,-1
 931 3 l 1,11,-1
 931 -90 l 1,12,-1
 931 -182 l 1,13,-1
 652 -182 l 1,14,-1
 372 -182 l 1,15,-1
 372 655 l 1,0,-1
EndSplineSet
Substitution2: "'rtla' Right to Left Alternates lookup 0 subtable" RIGHT
EndChar

StartChar: REVERSE
Encoding: 92 92 63
Width: 1117
Flags: W
LayerCount: 2
Fore
SplineSet
186 1307 m 1,0,-1
 186 1493 l 1,1,-1
 279 1493 l 1,2,-1
 372 1493 l 1,3,-1
 372 1307 l 1,4,-1
 372 1121 l 1,5,-1
 279 1121 l 1,6,-1
 186 1121 l 1,7,-1
 186 1307 l 1,0,-1
931 3 m 1,8,-1
 838 3 l 1,9,-1
 745 3 l 1,10,-1
 745 190 l 1,11,-1
 745 376 l 1,12,-1
 652 376 l 1,13,-1
 559 376 l 1,14,-1
 559 562 l 1,15,-1
 559 748 l 1,16,-1
 465 748 l 1,17,-1
 372 748 l 1,18,-1
 372 934 l 1,19,-1
 372 1121 l 1,20,-1
 465 1121 l 1,21,-1
 559 1121 l 1,22,-1
 559 934 l 1,23,-1
 559 748 l 1,24,-1
 652 748 l 1,25,-1
 745 748 l 1,26,-1
 745 562 l 1,27,-1
 745 376 l 1,28,-1
 838 376 l 1,29,-1
 931 376 l 1,30,-1
 931 190 l 1,31,-1
 931 3 l 1,8,-1
931 3 m 1,32,-1
 1024 3 l 1,33,-1
 1117 3 l 1,34,-1
 1117 -183 l 1,35,-1
 1117 -369 l 1,36,-1
 1024 -369 l 1,37,-1
 931 -369 l 1,38,-1
 931 -183 l 1,39,-1
 931 3 l 1,32,-1
EndSplineSet
EndChar

StartChar: RIGHT
Encoding: 93 93 64
Width: 1117
Flags: W
LayerCount: 2
Fore
SplineSet
0 1400 m 1,0,-1
 0 1493 l 1,1,-1
 279 1493 l 1,2,-1
 559 1493 l 1,3,-1
 559 655 l 1,4,-1
 559 -182 l 1,5,-1
 279 -182 l 1,6,-1
 0 -182 l 1,7,-1
 0 -90 l 1,8,-1
 0 3 l 1,9,-1
 186 3 l 1,10,-1
 372 3 l 1,11,-1
 372 655 l 1,12,-1
 372 1307 l 1,13,-1
 186 1307 l 1,14,-1
 0 1307 l 1,15,-1
 0 1400 l 1,0,-1
EndSplineSet
Substitution2: "'rtla' Right to Left Alternates lookup 0 subtable" LEFT
EndChar

StartChar: CIRCUMFLEX
Encoding: 94 94 65
Width: 1117
Flags: W
LayerCount: 2
Fore
SplineSet
372 1214 m 1,0,-1
 372 1307 l 1,1,-1
 466 1307 l 1,2,-1
 559 1307 l 1,3,-1
 559 1214 l 1,4,-1
 559 1121 l 1,5,-1
 466 1121 l 1,6,-1
 372 1121 l 1,7,-1
 372 1214 l 1,0,-1
186 935 m 1,8,-1
 186 1028 l 1,9,-1
 186 1121 l 1,10,-1
 279 1121 l 1,11,-1
 372 1121 l 1,12,-1
 372 1028 l 1,13,-1
 372 935 l 1,14,-1
 279 935 l 1,15,-1
 186 935 l 1,8,-1
186 935 m 1,16,-1
 186 842 l 1,17,-1
 186 748 l 1,18,-1
 93 748 l 1,19,-1
 0 748 l 1,20,-1
 0 842 l 1,21,-1
 0 935 l 1,22,-1
 93 935 l 1,23,-1
 186 935 l 1,16,-1
745 935 m 1,24,-1
 652 935 l 1,25,-1
 559 935 l 1,26,-1
 559 1028 l 1,27,-1
 559 1121 l 1,28,-1
 652 1121 l 1,29,-1
 745 1121 l 1,30,-1
 745 1028 l 1,31,-1
 745 935 l 1,24,-1
745 935 m 1,32,-1
 838 935 l 1,33,-1
 931 935 l 1,34,-1
 931 842 l 1,35,-1
 931 748 l 1,36,-1
 838 748 l 1,37,-1
 745 748 l 1,38,-1
 745 842 l 1,39,-1
 745 935 l 1,32,-1
EndSplineSet
EndChar

StartChar: LOW
Encoding: 95 95 66
Width: 1117
Flags: W
LayerCount: 2
Fore
SplineSet
0 -91 m 1,0,-1
 0 2 l 1,1,-1
 559 2 l 1,2,-1
 1117 2 l 1,3,-1
 1117 -91 l 1,4,-1
 1117 -184 l 1,5,-1
 559 -184 l 1,6,-1
 0 -184 l 1,7,-1
 0 -91 l 1,0,-1
EndSplineSet
EndChar

StartChar: GRAVE
Encoding: 96 96 67
Width: 1117
Flags: W
LayerCount: 2
Fore
SplineSet
186 1400 m 1,0,-1
 186 1493 l 1,1,-1
 279 1493 l 1,2,-1
 372 1493 l 1,3,-1
 372 1400 l 1,4,-1
 372 1307 l 1,5,-1
 279 1307 l 1,6,-1
 186 1307 l 1,7,-1
 186 1400 l 1,0,-1
559 1121 m 1,8,-1
 465 1121 l 1,9,-1
 372 1121 l 1,10,-1
 372 1214 l 1,11,-1
 372 1307 l 1,12,-1
 465 1307 l 1,13,-1
 559 1307 l 1,14,-1
 559 1214 l 1,15,-1
 559 1121 l 1,8,-1
559 1121 m 1,16,-1
 652 1121 l 1,17,-1
 745 1121 l 1,18,-1
 745 1028 l 1,19,-1
 745 935 l 1,20,-1
 652 935 l 1,21,-1
 559 935 l 1,22,-1
 559 1028 l 1,23,-1
 559 1121 l 1,16,-1
EndSplineSet
EndChar

StartChar: LATIN
Encoding: 97 97 68
Width: 1117
Flags: W
LayerCount: 2
Fore
SplineSet
745 283 m 1,0,-1
 745 376 l 1,1,-1
 466 376 l 1,2,-1
 186 376 l 1,3,-1
 186 283 l 1,4,-1
 186 190 l 1,5,-1
 466 190 l 1,6,-1
 745 190 l 1,7,-1
 745 283 l 1,0,-1
186 842 m 1,8,-1
 186 935 l 1,9,-1
 466 935 l 1,10,-1
 745 935 l 1,11,-1
 745 842 l 1,12,-1
 745 748 l 1,13,-1
 466 748 l 1,14,-1
 186 748 l 1,15,-1
 186 842 l 1,8,-1
186 376 m 1,16,-1
 186 469 l 1,17,-1
 186 562 l 1,18,-1
 466 562 l 1,19,-1
 745 562 l 1,20,-1
 745 655 l 1,21,-1
 745 748 l 1,22,-1
 838 748 l 1,23,-1
 931 748 l 1,24,-1
 931 376 l 1,25,-1
 931 4 l 1,26,-1
 559 4 l 1,27,-1
 186 4 l 1,28,-1
 186 97 l 1,29,-1
 186 190 l 1,30,-1
 93 190 l 1,31,-1
 0 190 l 1,32,-1
 0 283 l 1,33,-1
 0 376 l 1,34,-1
 93 376 l 1,35,-1
 186 376 l 1,16,-1
EndSplineSet
EndChar

StartChar: LATIN
Encoding: 98 98 69
Width: 1117
Flags: W
LayerCount: 2
Fore
SplineSet
0 748 m 1,0,-1
 0 1493 l 1,1,-1
 93 1493 l 1,2,-1
 186 1493 l 1,3,-1
 186 1121 l 1,4,-1
 186 748 l 1,5,-1
 279 748 l 1,6,-1
 372 748 l 1,7,-1
 372 655 l 1,8,-1
 372 562 l 1,9,-1
 279 562 l 1,10,-1
 186 562 l 1,11,-1
 186 376 l 1,12,-1
 186 190 l 1,13,-1
 466 190 l 1,14,-1
 745 190 l 1,15,-1
 745 469 l 1,16,-1
 745 748 l 1,17,-1
 559 748 l 1,18,-1
 372 748 l 1,19,-1
 372 841 l 1,20,-1
 372 934 l 1,21,-1
 559 934 l 1,22,-1
 745 934 l 1,23,-1
 745 841 l 1,24,-1
 745 748 l 1,25,-1
 838 748 l 1,26,-1
 931 748 l 1,27,-1
 931 469 l 1,28,-1
 931 190 l 1,29,-1
 838 190 l 1,30,-1
 745 190 l 1,31,-1
 745 97 l 1,32,-1
 745 4 l 1,33,-1
 373 4 l 1,34,-1
 0 4 l 1,35,-1
 0 748 l 1,0,-1
EndSplineSet
EndChar

StartChar: LATIN
Encoding: 99 99 70
Width: 1117
Flags: W
LayerCount: 2
Fore
SplineSet
186 842 m 1,0,-1
 186 935 l 1,1,-1
 559 935 l 1,2,-1
 931 935 l 1,3,-1
 931 842 l 1,4,-1
 931 748 l 1,5,-1
 559 748 l 1,6,-1
 186 748 l 1,7,-1
 186 842 l 1,0,-1
186 190 m 1,8,-1
 93 190 l 1,9,-1
 0 190 l 1,10,-1
 0 469 l 1,11,-1
 0 748 l 1,12,-1
 93 748 l 1,13,-1
 186 748 l 1,14,-1
 186 469 l 1,15,-1
 186 190 l 1,8,-1
186 190 m 1,16,-1
 559 190 l 1,17,-1
 931 190 l 1,18,-1
 931 97 l 1,19,-1
 931 4 l 1,20,-1
 559 4 l 1,21,-1
 186 4 l 1,22,-1
 186 97 l 1,23,-1
 186 190 l 1,16,-1
EndSplineSet
EndChar

StartChar: LATIN
Encoding: 100 100 71
Width: 1117
Flags: W
LayerCount: 2
Fore
SplineSet
745 562 m 1,0,-1
 745 748 l 1,1,-1
 466 748 l 1,2,-1
 186 748 l 1,3,-1
 186 469 l 1,4,-1
 186 190 l 1,5,-1
 373 190 l 1,6,-1
 559 190 l 1,7,-1
 559 283 l 1,8,-1
 559 376 l 1,9,-1
 652 376 l 1,10,-1
 745 376 l 1,11,-1
 745 562 l 1,0,-1
745 1214 m 1,12,-1
 745 1493 l 1,13,-1
 838 1493 l 1,14,-1
 931 1493 l 1,15,-1
 931 748 l 1,16,-1
 931 4 l 1,17,-1
 838 4 l 1,18,-1
 745 4 l 1,19,-1
 745 97 l 1,20,-1
 745 190 l 1,21,-1
 652 190 l 1,22,-1
 559 190 l 1,23,-1
 559 97 l 1,24,-1
 559 4 l 1,25,-1
 373 4 l 1,26,-1
 186 4 l 1,27,-1
 186 97 l 1,28,-1
 186 190 l 1,29,-1
 93 190 l 1,30,-1
 0 190 l 1,31,-1
 0 469 l 1,32,-1
 0 748 l 1,33,-1
 93 748 l 1,34,-1
 186 748 l 1,35,-1
 186 841 l 1,36,-1
 186 934 l 1,37,-1
 466 934 l 1,38,-1
 745 934 l 1,39,-1
 745 1214 l 1,12,-1
EndSplineSet
EndChar

StartChar: LATIN
Encoding: 101 101 72
Width: 1117
Flags: W
LayerCount: 2
Fore
SplineSet
186 842 m 1,0,-1
 186 935 l 1,1,-1
 466 935 l 1,2,-1
 745 935 l 1,3,-1
 745 842 l 1,4,-1
 745 748 l 1,5,-1
 466 748 l 1,6,-1
 186 748 l 1,7,-1
 186 655 l 1,8,-1
 186 562 l 1,9,-1
 466 562 l 1,10,-1
 745 562 l 1,11,-1
 745 655 l 1,12,-1
 745 748 l 1,13,-1
 838 748 l 1,14,-1
 931 748 l 1,15,-1
 931 562 l 1,16,-1
 931 376 l 1,17,-1
 559 376 l 1,18,-1
 186 376 l 1,19,-1
 186 283 l 1,20,-1
 186 190 l 1,21,-1
 93 190 l 1,22,-1
 0 190 l 1,23,-1
 0 469 l 1,24,-1
 0 748 l 1,25,-1
 93 748 l 1,26,-1
 186 748 l 1,27,-1
 186 842 l 1,0,-1
186 190 m 1,28,-1
 559 190 l 1,29,-1
 931 190 l 1,30,-1
 931 97 l 1,31,-1
 931 4 l 1,32,-1
 559 4 l 1,33,-1
 186 4 l 1,34,-1
 186 97 l 1,35,-1
 186 190 l 1,28,-1
EndSplineSet
EndChar

StartChar: LATIN
Encoding: 102 102 73
Width: 1117
Flags: W
LayerCount: 2
Fore
SplineSet
372 1400 m 1,0,-1
 372 1493 l 1,1,-1
 559 1493 l 1,2,-1
 745 1493 l 1,3,-1
 745 1400 l 1,4,-1
 745 1307 l 1,5,-1
 559 1307 l 1,6,-1
 372 1307 l 1,7,-1
 372 1400 l 1,0,-1
372 1307 m 1,8,-1
 372 1121 l 1,9,-1
 372 934 l 1,10,-1
 559 934 l 1,11,-1
 745 934 l 1,12,-1
 745 841 l 1,13,-1
 745 748 l 1,14,-1
 559 748 l 1,15,-1
 372 748 l 1,16,-1
 372 376 l 1,17,-1
 372 4 l 1,18,-1
 279 4 l 1,19,-1
 186 4 l 1,20,-1
 186 655 l 1,21,-1
 186 1307 l 1,22,-1
 279 1307 l 1,23,-1
 372 1307 l 1,8,-1
EndSplineSet
EndChar

StartChar: LATIN
Encoding: 103 103 74
Width: 1117
Flags: W
LayerCount: 2
Fore
SplineSet
745 562 m 1,0,-1
 745 748 l 1,1,-1
 466 748 l 1,2,-1
 186 748 l 1,3,-1
 186 469 l 1,4,-1
 186 190 l 1,5,-1
 373 190 l 1,6,-1
 559 190 l 1,7,-1
 559 283 l 1,8,-1
 559 376 l 1,9,-1
 652 376 l 1,10,-1
 745 376 l 1,11,-1
 745 562 l 1,0,-1
186 842 m 1,12,-1
 186 935 l 1,13,-1
 559 935 l 1,14,-1
 931 935 l 1,15,-1
 931 376 l 1,16,-1
 931 -183 l 1,17,-1
 838 -183 l 1,18,-1
 745 -183 l 1,19,-1
 745 3 l 1,20,-1
 745 190 l 1,21,-1
 652 190 l 1,22,-1
 559 190 l 1,23,-1
 559 96 l 1,24,-1
 559 3 l 1,25,-1
 373 3 l 1,26,-1
 186 3 l 1,27,-1
 186 96 l 1,28,-1
 186 190 l 1,29,-1
 93 190 l 1,30,-1
 0 190 l 1,31,-1
 0 469 l 1,32,-1
 0 748 l 1,33,-1
 93 748 l 1,34,-1
 186 748 l 1,35,-1
 186 842 l 1,12,-1
745 -183 m 1,36,-1
 745 -276 l 1,37,-1
 745 -369 l 1,38,-1
 466 -369 l 1,39,-1
 186 -369 l 1,40,-1
 186 -276 l 1,41,-1
 186 -183 l 1,42,-1
 466 -183 l 1,43,-1
 745 -183 l 1,36,-1
EndSplineSet
EndChar

StartChar: LATIN
Encoding: 104 104 75
Width: 1117
Flags: W
LayerCount: 2
Fore
SplineSet
0 748 m 1,0,-1
 0 1493 l 1,1,-1
 93 1493 l 1,2,-1
 186 1493 l 1,3,-1
 186 1121 l 1,4,-1
 186 748 l 1,5,-1
 279 748 l 1,6,-1
 372 748 l 1,7,-1
 372 655 l 1,8,-1
 372 562 l 1,9,-1
 279 562 l 1,10,-1
 186 562 l 1,11,-1
 186 283 l 1,12,-1
 186 4 l 1,13,-1
 93 4 l 1,14,-1
 0 4 l 1,15,-1
 0 748 l 1,0,-1
745 748 m 1,16,-1
 559 748 l 1,17,-1
 372 748 l 1,18,-1
 372 841 l 1,19,-1
 372 934 l 1,20,-1
 559 934 l 1,21,-1
 745 934 l 1,22,-1
 745 841 l 1,23,-1
 745 748 l 1,16,-1
745 748 m 1,24,-1
 838 748 l 1,25,-1
 931 748 l 1,26,-1
 931 376 l 1,27,-1
 931 4 l 1,28,-1
 838 4 l 1,29,-1
 745 4 l 1,30,-1
 745 376 l 1,31,-1
 745 748 l 1,24,-1
EndSplineSet
EndChar

StartChar: LATIN
Encoding: 105 105 76
Width: 1117
Flags: W
LayerCount: 2
Fore
SplineSet
372 1214 m 1,0,-1
 372 1307 l 1,1,-1
 465 1307 l 1,2,-1
 559 1307 l 1,3,-1
 559 1214 l 1,4,-1
 559 1121 l 1,5,-1
 465 1121 l 1,6,-1
 372 1121 l 1,7,-1
 372 1214 l 1,0,-1
186 841 m 1,8,-1
 186 935 l 1,9,-1
 372 935 l 1,10,-1
 559 935 l 1,11,-1
 559 562 l 1,12,-1
 559 190 l 1,13,-1
 652 190 l 1,14,-1
 745 190 l 1,15,-1
 745 97 l 1,16,-1
 745 4 l 1,17,-1
 559 4 l 1,18,-1
 372 4 l 1,19,-1
 372 376 l 1,20,-1
 372 748 l 1,21,-1
 279 748 l 1,22,-1
 186 748 l 1,23,-1
 186 841 l 1,8,-1
EndSplineSet
EndChar

StartChar: LATIN
Encoding: 106 106 77
Width: 1117
Flags: W
LayerCount: 2
Fore
SplineSet
372 1214 m 1,0,-1
 372 1307 l 1,1,-1
 465 1307 l 1,2,-1
 559 1307 l 1,3,-1
 559 1214 l 1,4,-1
 559 1121 l 1,5,-1
 465 1121 l 1,6,-1
 372 1121 l 1,7,-1
 372 1214 l 1,0,-1
186 841 m 1,8,-1
 186 935 l 1,9,-1
 372 935 l 1,10,-1
 559 935 l 1,11,-1
 559 376 l 1,12,-1
 559 -183 l 1,13,-1
 465 -183 l 1,14,-1
 372 -183 l 1,15,-1
 372 283 l 1,16,-1
 372 748 l 1,17,-1
 279 748 l 1,18,-1
 186 748 l 1,19,-1
 186 841 l 1,8,-1
372 -183 m 1,20,-1
 372 -276 l 1,21,-1
 372 -369 l 1,22,-1
 186 -369 l 1,23,-1
 0 -369 l 1,24,-1
 0 -276 l 1,25,-1
 0 -183 l 1,26,-1
 186 -183 l 1,27,-1
 372 -183 l 1,20,-1
EndSplineSet
EndChar

StartChar: LATIN
Encoding: 107 107 78
Width: 1117
Flags: W
LayerCount: 2
Fore
SplineSet
0 748 m 1,0,-1
 0 1493 l 1,1,-1
 93 1493 l 1,2,-1
 186 1493 l 1,3,-1
 186 1028 l 1,4,-1
 186 562 l 1,5,-1
 279 562 l 1,6,-1
 372 562 l 1,7,-1
 372 655 l 1,8,-1
 372 748 l 1,9,-1
 466 748 l 1,10,-1
 559 748 l 1,11,-1
 559 562 l 1,12,-1
 559 376 l 1,13,-1
 373 376 l 1,14,-1
 186 376 l 1,15,-1
 186 190 l 1,16,-1
 186 4 l 1,17,-1
 93 4 l 1,18,-1
 0 4 l 1,19,-1
 0 748 l 1,0,-1
745 190 m 1,20,-1
 652 190 l 1,21,-1
 559 190 l 1,22,-1
 559 283 l 1,23,-1
 559 376 l 1,24,-1
 652 376 l 1,25,-1
 745 376 l 1,26,-1
 745 283 l 1,27,-1
 745 190 l 1,20,-1
745 190 m 1,28,-1
 838 190 l 1,29,-1
 931 190 l 1,30,-1
 931 97 l 1,31,-1
 931 4 l 1,32,-1
 838 4 l 1,33,-1
 745 4 l 1,34,-1
 745 97 l 1,35,-1
 745 190 l 1,28,-1
559 748 m 1,36,-1
 559 841 l 1,37,-1
 559 934 l 1,38,-1
 652 934 l 1,39,-1
 745 934 l 1,40,-1
 745 841 l 1,41,-1
 745 748 l 1,42,-1
 652 748 l 1,43,-1
 559 748 l 1,36,-1
EndSplineSet
EndChar

StartChar: LATIN
Encoding: 108 108 79
Width: 1117
Flags: W
LayerCount: 2
Fore
SplineSet
186 1400 m 1,0,-1
 186 1493 l 1,1,-1
 372 1493 l 1,2,-1
 559 1493 l 1,3,-1
 559 841 l 1,4,-1
 559 190 l 1,5,-1
 465 190 l 1,6,-1
 372 190 l 1,7,-1
 372 748 l 1,8,-1
 372 1307 l 1,9,-1
 279 1307 l 1,10,-1
 186 1307 l 1,11,-1
 186 1400 l 1,0,-1
559 190 m 1,12,-1
 745 190 l 1,13,-1
 931 190 l 1,14,-1
 931 97 l 1,15,-1
 931 4 l 1,16,-1
 745 4 l 1,17,-1
 559 4 l 1,18,-1
 559 97 l 1,19,-1
 559 190 l 1,12,-1
EndSplineSet
EndChar

StartChar: LATIN
Encoding: 109 109 80
Width: 1117
Flags: W
LayerCount: 2
Fore
SplineSet
0 469 m 1,0,-1
 0 935 l 1,1,-1
 373 935 l 1,2,-1
 745 935 l 1,3,-1
 745 842 l 1,4,-1
 745 748 l 1,5,-1
 652 748 l 1,6,-1
 559 748 l 1,7,-1
 559 376 l 1,8,-1
 559 4 l 1,9,-1
 466 4 l 1,10,-1
 372 4 l 1,11,-1
 372 376 l 1,12,-1
 372 748 l 1,13,-1
 279 748 l 1,14,-1
 186 748 l 1,15,-1
 186 376 l 1,16,-1
 186 4 l 1,17,-1
 93 4 l 1,18,-1
 0 4 l 1,19,-1
 0 469 l 1,0,-1
745 748 m 1,20,-1
 838 748 l 1,21,-1
 931 748 l 1,22,-1
 931 376 l 1,23,-1
 931 4 l 1,24,-1
 838 4 l 1,25,-1
 745 4 l 1,26,-1
 745 376 l 1,27,-1
 745 748 l 1,20,-1
EndSplineSet
EndChar

StartChar: LATIN
Encoding: 110 110 81
Width: 1117
Flags: W
LayerCount: 2
Fore
SplineSet
0 469 m 1,0,-1
 0 935 l 1,1,-1
 373 935 l 1,2,-1
 745 935 l 1,3,-1
 745 842 l 1,4,-1
 745 748 l 1,5,-1
 466 748 l 1,6,-1
 186 748 l 1,7,-1
 186 376 l 1,8,-1
 186 4 l 1,9,-1
 93 4 l 1,10,-1
 0 4 l 1,11,-1
 0 469 l 1,0,-1
745 748 m 1,12,-1
 838 748 l 1,13,-1
 931 748 l 1,14,-1
 931 376 l 1,15,-1
 931 4 l 1,16,-1
 838 4 l 1,17,-1
 745 4 l 1,18,-1
 745 376 l 1,19,-1
 745 748 l 1,12,-1
EndSplineSet
EndChar

StartChar: LATIN
Encoding: 111 111 82
Width: 1117
Flags: W
LayerCount: 2
Fore
SplineSet
186 842 m 1,0,-1
 186 935 l 1,1,-1
 466 935 l 1,2,-1
 745 935 l 1,3,-1
 745 842 l 1,4,-1
 745 748 l 1,5,-1
 466 748 l 1,6,-1
 186 748 l 1,7,-1
 186 469 l 1,8,-1
 186 190 l 1,9,-1
 466 190 l 1,10,-1
 745 190 l 1,11,-1
 745 469 l 1,12,-1
 745 748 l 1,13,-1
 838 748 l 1,14,-1
 931 748 l 1,15,-1
 931 469 l 1,16,-1
 931 190 l 1,17,-1
 838 190 l 1,18,-1
 745 190 l 1,19,-1
 745 97 l 1,20,-1
 745 4 l 1,21,-1
 466 4 l 1,22,-1
 186 4 l 1,23,-1
 186 97 l 1,24,-1
 186 190 l 1,25,-1
 93 190 l 1,26,-1
 0 190 l 1,27,-1
 0 469 l 1,28,-1
 0 748 l 1,29,-1
 93 748 l 1,30,-1
 186 748 l 1,31,-1
 186 842 l 1,0,-1
EndSplineSet
EndChar

StartChar: LATIN
Encoding: 112 112 83
Width: 1117
Flags: W
LayerCount: 2
Fore
SplineSet
0 283 m 1,0,-1
 0 935 l 1,1,-1
 93 935 l 1,2,-1
 186 935 l 1,3,-1
 186 842 l 1,4,-1
 186 748 l 1,5,-1
 279 748 l 1,6,-1
 372 748 l 1,7,-1
 372 655 l 1,8,-1
 372 562 l 1,9,-1
 279 562 l 1,10,-1
 186 562 l 1,11,-1
 186 376 l 1,12,-1
 186 190 l 1,13,-1
 466 190 l 1,14,-1
 745 190 l 1,15,-1
 745 469 l 1,16,-1
 745 748 l 1,17,-1
 559 748 l 1,18,-1
 372 748 l 1,19,-1
 372 842 l 1,20,-1
 372 935 l 1,21,-1
 559 935 l 1,22,-1
 745 935 l 1,23,-1
 745 842 l 1,24,-1
 745 748 l 1,25,-1
 838 748 l 1,26,-1
 931 748 l 1,27,-1
 931 469 l 1,28,-1
 931 190 l 1,29,-1
 838 190 l 1,30,-1
 745 190 l 1,31,-1
 745 96 l 1,32,-1
 745 3 l 1,33,-1
 466 3 l 1,34,-1
 186 3 l 1,35,-1
 186 -183 l 1,36,-1
 186 -369 l 1,37,-1
 93 -369 l 1,38,-1
 0 -369 l 1,39,-1
 0 283 l 1,0,-1
EndSplineSet
EndChar

StartChar: LATIN
Encoding: 113 113 84
Width: 1117
Flags: W
LayerCount: 2
Fore
SplineSet
745 562 m 1,0,-1
 745 748 l 1,1,-1
 466 748 l 1,2,-1
 186 748 l 1,3,-1
 186 469 l 1,4,-1
 186 190 l 1,5,-1
 373 190 l 1,6,-1
 559 190 l 1,7,-1
 559 283 l 1,8,-1
 559 376 l 1,9,-1
 652 376 l 1,10,-1
 745 376 l 1,11,-1
 745 562 l 1,0,-1
186 842 m 1,12,-1
 186 935 l 1,13,-1
 559 935 l 1,14,-1
 931 935 l 1,15,-1
 931 283 l 1,16,-1
 931 -369 l 1,17,-1
 838 -369 l 1,18,-1
 745 -369 l 1,19,-1
 745 -90 l 1,20,-1
 745 190 l 1,21,-1
 652 190 l 1,22,-1
 559 190 l 1,23,-1
 559 96 l 1,24,-1
 559 3 l 1,25,-1
 373 3 l 1,26,-1
 186 3 l 1,27,-1
 186 96 l 1,28,-1
 186 190 l 1,29,-1
 93 190 l 1,30,-1
 0 190 l 1,31,-1
 0 469 l 1,32,-1
 0 748 l 1,33,-1
 93 748 l 1,34,-1
 186 748 l 1,35,-1
 186 842 l 1,12,-1
EndSplineSet
EndChar

StartChar: LATIN
Encoding: 114 114 85
Width: 1117
Flags: W
LayerCount: 2
Fore
SplineSet
0 469 m 1,0,-1
 0 935 l 1,1,-1
 93 935 l 1,2,-1
 186 935 l 1,3,-1
 186 842 l 1,4,-1
 186 748 l 1,5,-1
 279 748 l 1,6,-1
 372 748 l 1,7,-1
 372 655 l 1,8,-1
 372 562 l 1,9,-1
 279 562 l 1,10,-1
 186 562 l 1,11,-1
 186 283 l 1,12,-1
 186 4 l 1,13,-1
 93 4 l 1,14,-1
 0 4 l 1,15,-1
 0 469 l 1,0,-1
745 748 m 1,16,-1
 559 748 l 1,17,-1
 372 748 l 1,18,-1
 372 842 l 1,19,-1
 372 935 l 1,20,-1
 559 935 l 1,21,-1
 745 935 l 1,22,-1
 745 842 l 1,23,-1
 745 748 l 1,16,-1
745 748 m 1,24,-1
 838 748 l 1,25,-1
 931 748 l 1,26,-1
 931 655 l 1,27,-1
 931 562 l 1,28,-1
 838 562 l 1,29,-1
 745 562 l 1,30,-1
 745 655 l 1,31,-1
 745 748 l 1,24,-1
EndSplineSet
EndChar

StartChar: LATIN
Encoding: 115 115 86
Width: 1117
Flags: W
LayerCount: 2
Fore
SplineSet
186 842 m 1,0,-1
 186 935 l 1,1,-1
 466 935 l 1,2,-1
 745 935 l 1,3,-1
 745 842 l 1,4,-1
 745 748 l 1,5,-1
 466 748 l 1,6,-1
 186 748 l 1,7,-1
 186 842 l 1,0,-1
745 190 m 1,8,-1
 745 283 l 1,9,-1
 745 376 l 1,10,-1
 466 376 l 1,11,-1
 186 376 l 1,12,-1
 186 469 l 1,13,-1
 186 562 l 1,14,-1
 93 562 l 1,15,-1
 0 562 l 1,16,-1
 0 655 l 1,17,-1
 0 748 l 1,18,-1
 93 748 l 1,19,-1
 186 748 l 1,20,-1
 186 655 l 1,21,-1
 186 562 l 1,22,-1
 466 562 l 1,23,-1
 745 562 l 1,24,-1
 745 469 l 1,25,-1
 745 376 l 1,26,-1
 838 376 l 1,27,-1
 931 376 l 1,28,-1
 931 283 l 1,29,-1
 931 190 l 1,30,-1
 838 190 l 1,31,-1
 745 190 l 1,8,-1
745 190 m 1,32,-1
 745 97 l 1,33,-1
 745 4 l 1,34,-1
 373 4 l 1,35,-1
 0 4 l 1,36,-1
 0 97 l 1,37,-1
 0 190 l 1,38,-1
 373 190 l 1,39,-1
 745 190 l 1,32,-1
EndSplineSet
EndChar

StartChar: LATIN
Encoding: 116 116 87
Width: 1117
Flags: W
LayerCount: 2
Fore
SplineSet
186 1214 m 1,0,-1
 186 1493 l 1,1,-1
 279 1493 l 1,2,-1
 372 1493 l 1,3,-1
 372 1214 l 1,4,-1
 372 934 l 1,5,-1
 559 934 l 1,6,-1
 745 934 l 1,7,-1
 745 841 l 1,8,-1
 745 748 l 1,9,-1
 559 748 l 1,10,-1
 372 748 l 1,11,-1
 372 469 l 1,12,-1
 372 190 l 1,13,-1
 279 190 l 1,14,-1
 186 190 l 1,15,-1
 186 469 l 1,16,-1
 186 748 l 1,17,-1
 93 748 l 1,18,-1
 0 748 l 1,19,-1
 0 841 l 1,20,-1
 0 934 l 1,21,-1
 93 934 l 1,22,-1
 186 934 l 1,23,-1
 186 1214 l 1,0,-1
372 190 m 1,24,-1
 559 190 l 1,25,-1
 745 190 l 1,26,-1
 745 97 l 1,27,-1
 745 4 l 1,28,-1
 559 4 l 1,29,-1
 372 4 l 1,30,-1
 372 97 l 1,31,-1
 372 190 l 1,24,-1
EndSplineSet
EndChar

StartChar: LATIN
Encoding: 117 117 88
Width: 1117
Flags: W
LayerCount: 2
Fore
SplineSet
0 562 m 1,0,-1
 0 935 l 1,1,-1
 93 935 l 1,2,-1
 186 935 l 1,3,-1
 186 562 l 1,4,-1
 186 190 l 1,5,-1
 93 190 l 1,6,-1
 0 190 l 1,7,-1
 0 562 l 1,0,-1
559 190 m 1,8,-1
 559 97 l 1,9,-1
 559 4 l 1,10,-1
 373 4 l 1,11,-1
 186 4 l 1,12,-1
 186 97 l 1,13,-1
 186 190 l 1,14,-1
 373 190 l 1,15,-1
 559 190 l 1,8,-1
559 190 m 1,16,-1
 559 283 l 1,17,-1
 559 376 l 1,18,-1
 652 376 l 1,19,-1
 745 376 l 1,20,-1
 745 655 l 1,21,-1
 745 935 l 1,22,-1
 838 935 l 1,23,-1
 931 935 l 1,24,-1
 931 469 l 1,25,-1
 931 4 l 1,26,-1
 838 4 l 1,27,-1
 745 4 l 1,28,-1
 745 97 l 1,29,-1
 745 190 l 1,30,-1
 652 190 l 1,31,-1
 559 190 l 1,16,-1
EndSplineSet
EndChar

StartChar: LATIN
Encoding: 118 118 89
Width: 1117
Flags: W
LayerCount: 2
Fore
SplineSet
0 748 m 1,0,-1
 0 935 l 1,1,-1
 93 935 l 1,2,-1
 186 935 l 1,3,-1
 186 748 l 1,4,-1
 186 562 l 1,5,-1
 93 562 l 1,6,-1
 0 562 l 1,7,-1
 0 748 l 1,0,-1
745 562 m 1,8,-1
 745 376 l 1,9,-1
 745 190 l 1,10,-1
 652 190 l 1,11,-1
 559 190 l 1,12,-1
 559 97 l 1,13,-1
 559 4 l 1,14,-1
 466 4 l 1,15,-1
 372 4 l 1,16,-1
 372 97 l 1,17,-1
 372 190 l 1,18,-1
 279 190 l 1,19,-1
 186 190 l 1,20,-1
 186 376 l 1,21,-1
 186 562 l 1,22,-1
 279 562 l 1,23,-1
 372 562 l 1,24,-1
 372 376 l 1,25,-1
 372 190 l 1,26,-1
 466 190 l 1,27,-1
 559 190 l 1,28,-1
 559 376 l 1,29,-1
 559 562 l 1,30,-1
 652 562 l 1,31,-1
 745 562 l 1,8,-1
745 562 m 1,32,-1
 745 748 l 1,33,-1
 745 935 l 1,34,-1
 838 935 l 1,35,-1
 931 935 l 1,36,-1
 931 748 l 1,37,-1
 931 562 l 1,38,-1
 838 562 l 1,39,-1
 745 562 l 1,32,-1
EndSplineSet
EndChar

StartChar: LATIN
Encoding: 119 119 90
Width: 1117
Flags: W
LayerCount: 2
Fore
SplineSet
0 562 m 1,0,-1
 0 935 l 1,1,-1
 93 935 l 1,2,-1
 186 935 l 1,3,-1
 186 562 l 1,4,-1
 186 190 l 1,5,-1
 93 190 l 1,6,-1
 0 190 l 1,7,-1
 0 562 l 1,0,-1
745 190 m 1,8,-1
 745 97 l 1,9,-1
 745 4 l 1,10,-1
 652 4 l 1,11,-1
 559 4 l 1,12,-1
 559 97 l 1,13,-1
 559 190 l 1,14,-1
 466 190 l 1,15,-1
 372 190 l 1,16,-1
 372 97 l 1,17,-1
 372 4 l 1,18,-1
 279 4 l 1,19,-1
 186 4 l 1,20,-1
 186 97 l 1,21,-1
 186 190 l 1,22,-1
 279 190 l 1,23,-1
 372 190 l 1,24,-1
 372 469 l 1,25,-1
 372 748 l 1,26,-1
 466 748 l 1,27,-1
 559 748 l 1,28,-1
 559 469 l 1,29,-1
 559 190 l 1,30,-1
 652 190 l 1,31,-1
 745 190 l 1,8,-1
745 190 m 1,32,-1
 745 562 l 1,33,-1
 745 935 l 1,34,-1
 838 935 l 1,35,-1
 931 935 l 1,36,-1
 931 562 l 1,37,-1
 931 190 l 1,38,-1
 838 190 l 1,39,-1
 745 190 l 1,32,-1
EndSplineSet
EndChar

StartChar: LATIN
Encoding: 120 120 91
Width: 1117
Flags: W
LayerCount: 2
Fore
SplineSet
0 842 m 1,0,-1
 0 935 l 1,1,-1
 93 935 l 1,2,-1
 186 935 l 1,3,-1
 186 842 l 1,4,-1
 186 748 l 1,5,-1
 93 748 l 1,6,-1
 0 748 l 1,7,-1
 0 842 l 1,0,-1
186 190 m 1,8,-1
 186 283 l 1,9,-1
 186 376 l 1,10,-1
 279 376 l 1,11,-1
 372 376 l 1,12,-1
 372 469 l 1,13,-1
 372 562 l 1,14,-1
 279 562 l 1,15,-1
 186 562 l 1,16,-1
 186 655 l 1,17,-1
 186 748 l 1,18,-1
 279 748 l 1,19,-1
 372 748 l 1,20,-1
 372 655 l 1,21,-1
 372 562 l 1,22,-1
 466 562 l 1,23,-1
 559 562 l 1,24,-1
 559 469 l 1,25,-1
 559 376 l 1,26,-1
 466 376 l 1,27,-1
 372 376 l 1,28,-1
 372 283 l 1,29,-1
 372 190 l 1,30,-1
 279 190 l 1,31,-1
 186 190 l 1,8,-1
186 190 m 1,32,-1
 186 97 l 1,33,-1
 186 4 l 1,34,-1
 93 4 l 1,35,-1
 0 4 l 1,36,-1
 0 97 l 1,37,-1
 0 190 l 1,38,-1
 93 190 l 1,39,-1
 186 190 l 1,32,-1
745 190 m 1,40,-1
 652 190 l 1,41,-1
 559 190 l 1,42,-1
 559 283 l 1,43,-1
 559 376 l 1,44,-1
 652 376 l 1,45,-1
 745 376 l 1,46,-1
 745 283 l 1,47,-1
 745 190 l 1,40,-1
745 190 m 1,48,-1
 838 190 l 1,49,-1
 931 190 l 1,50,-1
 931 97 l 1,51,-1
 931 4 l 1,52,-1
 838 4 l 1,53,-1
 745 4 l 1,54,-1
 745 97 l 1,55,-1
 745 190 l 1,48,-1
745 748 m 1,56,-1
 745 655 l 1,57,-1
 745 562 l 1,58,-1
 652 562 l 1,59,-1
 559 562 l 1,60,-1
 559 655 l 1,61,-1
 559 748 l 1,62,-1
 652 748 l 1,63,-1
 745 748 l 1,56,-1
745 748 m 1,64,-1
 745 842 l 1,65,-1
 745 935 l 1,66,-1
 838 935 l 1,67,-1
 931 935 l 1,68,-1
 931 842 l 1,69,-1
 931 748 l 1,70,-1
 838 748 l 1,71,-1
 745 748 l 1,64,-1
EndSplineSet
EndChar

StartChar: LATIN
Encoding: 121 121 92
Width: 1117
Flags: W
LayerCount: 2
Fore
SplineSet
0 562 m 1,0,-1
 0 935 l 1,1,-1
 93 935 l 1,2,-1
 186 935 l 1,3,-1
 186 562 l 1,4,-1
 186 190 l 1,5,-1
 93 190 l 1,6,-1
 0 190 l 1,7,-1
 0 562 l 1,0,-1
745 -183 m 1,8,-1
 745 3 l 1,9,-1
 745 190 l 1,10,-1
 652 190 l 1,11,-1
 559 190 l 1,12,-1
 559 96 l 1,13,-1
 559 3 l 1,14,-1
 373 3 l 1,15,-1
 186 3 l 1,16,-1
 186 96 l 1,17,-1
 186 190 l 1,18,-1
 373 190 l 1,19,-1
 559 190 l 1,20,-1
 559 283 l 1,21,-1
 559 376 l 1,22,-1
 652 376 l 1,23,-1
 745 376 l 1,24,-1
 745 655 l 1,25,-1
 745 935 l 1,26,-1
 838 935 l 1,27,-1
 931 935 l 1,28,-1
 931 376 l 1,29,-1
 931 -183 l 1,30,-1
 838 -183 l 1,31,-1
 745 -183 l 1,8,-1
745 -183 m 1,32,-1
 745 -276 l 1,33,-1
 745 -369 l 1,34,-1
 466 -369 l 1,35,-1
 186 -369 l 1,36,-1
 186 -276 l 1,37,-1
 186 -183 l 1,38,-1
 466 -183 l 1,39,-1
 745 -183 l 1,32,-1
EndSplineSet
EndChar

StartChar: LATIN
Encoding: 122 122 93
Width: 1117
Flags: W
LayerCount: 2
Fore
SplineSet
0 842 m 1,0,-1
 0 935 l 1,1,-1
 465 935 l 1,2,-1
 931 935 l 1,3,-1
 931 842 l 1,4,-1
 931 748 l 1,5,-1
 838 748 l 1,6,-1
 745 748 l 1,7,-1
 745 655 l 1,8,-1
 745 562 l 1,9,-1
 652 562 l 1,10,-1
 559 562 l 1,11,-1
 559 655 l 1,12,-1
 559 748 l 1,13,-1
 279 748 l 1,14,-1
 0 748 l 1,15,-1
 0 842 l 1,0,-1
372 376 m 1,16,-1
 372 469 l 1,17,-1
 372 562 l 1,18,-1
 466 562 l 1,19,-1
 559 562 l 1,20,-1
 559 469 l 1,21,-1
 559 376 l 1,22,-1
 466 376 l 1,23,-1
 372 376 l 1,16,-1
372 376 m 1,24,-1
 372 283 l 1,25,-1
 372 190 l 1,26,-1
 652 190 l 1,27,-1
 931 190 l 1,28,-1
 931 97 l 1,29,-1
 931 4 l 1,30,-1
 465 4 l 1,31,-1
 0 4 l 1,32,-1
 0 97 l 1,33,-1
 0 190 l 1,34,-1
 93 190 l 1,35,-1
 186 190 l 1,36,-1
 186 283 l 1,37,-1
 186 376 l 1,38,-1
 279 376 l 1,39,-1
 372 376 l 1,24,-1
EndSplineSet
EndChar

StartChar: LEFT
Encoding: 123 123 94
Width: 1117
Flags: W
LayerCount: 2
Fore
SplineSet
559 1586 m 1,0,-1
 559 1679 l 1,1,-1
 745 1679 l 1,2,-1
 931 1679 l 1,3,-1
 931 1586 l 1,4,-1
 931 1493 l 1,5,-1
 745 1493 l 1,6,-1
 559 1493 l 1,7,-1
 559 1586 l 1,0,-1
559 -182 m 1,8,-1
 466 -182 l 1,9,-1
 372 -182 l 1,10,-1
 372 190 l 1,11,-1
 372 562 l 1,12,-1
 186 562 l 1,13,-1
 0 562 l 1,14,-1
 0 655 l 1,15,-1
 0 748 l 1,16,-1
 186 748 l 1,17,-1
 372 748 l 1,18,-1
 372 1121 l 1,19,-1
 372 1493 l 1,20,-1
 466 1493 l 1,21,-1
 559 1493 l 1,22,-1
 559 1121 l 1,23,-1
 559 748 l 1,24,-1
 466 748 l 1,25,-1
 372 748 l 1,26,-1
 372 655 l 1,27,-1
 372 562 l 1,28,-1
 466 562 l 1,29,-1
 559 562 l 1,30,-1
 559 190 l 1,31,-1
 559 -182 l 1,8,-1
559 -182 m 1,32,-1
 745 -182 l 1,33,-1
 931 -182 l 1,34,-1
 931 -276 l 1,35,-1
 931 -369 l 1,36,-1
 745 -369 l 1,37,-1
 559 -369 l 1,38,-1
 559 -276 l 1,39,-1
 559 -182 l 1,32,-1
EndSplineSet
Substitution2: "'rtla' Right to Left Alternates lookup 0 subtable" RIGHT
EndChar

StartChar: VERTICAL
Encoding: 124 124 95
Width: 1117
Flags: W
LayerCount: 2
Fore
SplineSet
372 654 m 1,0,-1
 372 1492 l 1,1,-1
 465 1492 l 1,2,-1
 558 1492 l 1,3,-1
 558 654 l 1,4,-1
 558 -184 l 1,5,-1
 465 -184 l 1,6,-1
 372 -184 l 1,7,-1
 372 654 l 1,0,-1
EndSplineSet
EndChar

StartChar: RIGHT
Encoding: 125 125 96
Width: 1117
Flags: W
LayerCount: 2
Fore
SplineSet
0 1586 m 1,0,-1
 0 1679 l 1,1,-1
 186 1679 l 1,2,-1
 372 1679 l 1,3,-1
 372 1586 l 1,4,-1
 372 1493 l 1,5,-1
 186 1493 l 1,6,-1
 0 1493 l 1,7,-1
 0 1586 l 1,0,-1
372 -182 m 1,8,-1
 372 190 l 1,9,-1
 372 562 l 1,10,-1
 466 562 l 1,11,-1
 559 562 l 1,12,-1
 559 655 l 1,13,-1
 559 748 l 1,14,-1
 466 748 l 1,15,-1
 372 748 l 1,16,-1
 372 1121 l 1,17,-1
 372 1493 l 1,18,-1
 466 1493 l 1,19,-1
 559 1493 l 1,20,-1
 559 1121 l 1,21,-1
 559 748 l 1,22,-1
 745 748 l 1,23,-1
 931 748 l 1,24,-1
 931 655 l 1,25,-1
 931 562 l 1,26,-1
 745 562 l 1,27,-1
 559 562 l 1,28,-1
 559 190 l 1,29,-1
 559 -182 l 1,30,-1
 466 -182 l 1,31,-1
 372 -182 l 1,8,-1
372 -182 m 1,32,-1
 372 -276 l 1,33,-1
 372 -369 l 1,34,-1
 186 -369 l 1,35,-1
 0 -369 l 1,36,-1
 0 -276 l 1,37,-1
 0 -182 l 1,38,-1
 186 -182 l 1,39,-1
 372 -182 l 1,32,-1
EndSplineSet
Substitution2: "'rtla' Right to Left Alternates lookup 0 subtable" LEFT
EndChar

StartChar: TILDE
Encoding: 126 126 97
Width: 1117
Flags: W
LayerCount: 2
Fore
SplineSet
186 842 m 1,0,-1
 186 935 l 1,1,-1
 279 935 l 1,2,-1
 372 935 l 1,3,-1
 372 842 l 1,4,-1
 372 748 l 1,5,-1
 279 748 l 1,6,-1
 186 748 l 1,7,-1
 186 842 l 1,0,-1
186 748 m 1,8,-1
 186 655 l 1,9,-1
 186 562 l 1,10,-1
 93 562 l 1,11,-1
 0 562 l 1,12,-1
 0 655 l 1,13,-1
 0 748 l 1,14,-1
 93 748 l 1,15,-1
 186 748 l 1,8,-1
745 562 m 1,16,-1
 745 469 l 1,17,-1
 745 376 l 1,18,-1
 652 376 l 1,19,-1
 559 376 l 1,20,-1
 559 469 l 1,21,-1
 559 562 l 1,22,-1
 466 562 l 1,23,-1
 372 562 l 1,24,-1
 372 655 l 1,25,-1
 372 748 l 1,26,-1
 466 748 l 1,27,-1
 559 748 l 1,28,-1
 559 655 l 1,29,-1
 559 562 l 1,30,-1
 652 562 l 1,31,-1
 745 562 l 1,16,-1
745 562 m 1,32,-1
 745 655 l 1,33,-1
 745 748 l 1,34,-1
 838 748 l 1,35,-1
 931 748 l 1,36,-1
 931 655 l 1,37,-1
 931 562 l 1,38,-1
 838 562 l 1,39,-1
 745 562 l 1,32,-1
EndSplineSet
EndChar

StartChar: INVERTED
Encoding: 161 161 99
Width: 1117
Flags: W
LayerCount: 2
Fore
SplineSet
372 1400 m 1,0,-1
 372 1493 l 1,1,-1
 465 1493 l 1,2,-1
 559 1493 l 1,3,-1
 559 1400 l 1,4,-1
 559 1307 l 1,5,-1
 465 1307 l 1,6,-1
 372 1307 l 1,7,-1
 372 1400 l 1,0,-1
372 562 m 1,8,-1
 372 1121 l 1,9,-1
 465 1121 l 1,10,-1
 559 1121 l 1,11,-1
 559 562 l 1,12,-1
 559 4 l 1,13,-1
 465 4 l 1,14,-1
 372 4 l 1,15,-1
 372 562 l 1,8,-1
EndSplineSet
EndChar

StartChar: CENT
Encoding: 162 162 100
Width: 1117
Flags: W
LayerCount: 2
Fore
SplineSet
372 469 m 1,0,-1
 372 748 l 1,1,-1
 279 748 l 1,2,-1
 186 748 l 1,3,-1
 186 469 l 1,4,-1
 186 190 l 1,5,-1
 279 190 l 1,6,-1
 372 190 l 1,7,-1
 372 469 l 1,0,-1
372 1028 m 1,8,-1
 372 1121 l 1,9,-1
 466 1121 l 1,10,-1
 559 1121 l 1,11,-1
 559 1028 l 1,12,-1
 559 935 l 1,13,-1
 745 935 l 1,14,-1
 931 935 l 1,15,-1
 931 842 l 1,16,-1
 931 748 l 1,17,-1
 745 748 l 1,18,-1
 559 748 l 1,19,-1
 559 469 l 1,20,-1
 559 190 l 1,21,-1
 745 190 l 1,22,-1
 931 190 l 1,23,-1
 931 96 l 1,24,-1
 931 3 l 1,25,-1
 745 3 l 1,26,-1
 559 3 l 1,27,-1
 559 -90 l 1,28,-1
 559 -182 l 1,29,-1
 466 -182 l 1,30,-1
 372 -182 l 1,31,-1
 372 -90 l 1,32,-1
 372 3 l 1,33,-1
 279 3 l 1,34,-1
 186 3 l 1,35,-1
 186 96 l 1,36,-1
 186 190 l 1,37,-1
 93 190 l 1,38,-1
 0 190 l 1,39,-1
 0 469 l 1,40,-1
 0 748 l 1,41,-1
 93 748 l 1,42,-1
 186 748 l 1,43,-1
 186 842 l 1,44,-1
 186 935 l 1,45,-1
 279 935 l 1,46,-1
 372 935 l 1,47,-1
 372 1028 l 1,8,-1
EndSplineSet
EndChar

StartChar: POUND
Encoding: 163 163 101
Width: 1117
Flags: W
LayerCount: 2
Fore
SplineSet
372 1400 m 1,0,-1
 372 1493 l 1,1,-1
 559 1493 l 1,2,-1
 745 1493 l 1,3,-1
 745 1400 l 1,4,-1
 745 1307 l 1,5,-1
 559 1307 l 1,6,-1
 372 1307 l 1,7,-1
 372 1400 l 1,0,-1
186 190 m 1,8,-1
 186 376 l 1,9,-1
 186 562 l 1,10,-1
 93 562 l 1,11,-1
 0 562 l 1,12,-1
 0 655 l 1,13,-1
 0 748 l 1,14,-1
 93 748 l 1,15,-1
 186 748 l 1,16,-1
 186 1028 l 1,17,-1
 186 1307 l 1,18,-1
 279 1307 l 1,19,-1
 372 1307 l 1,20,-1
 372 1028 l 1,21,-1
 372 748 l 1,22,-1
 466 748 l 1,23,-1
 559 748 l 1,24,-1
 559 655 l 1,25,-1
 559 562 l 1,26,-1
 466 562 l 1,27,-1
 372 562 l 1,28,-1
 372 376 l 1,29,-1
 372 190 l 1,30,-1
 279 190 l 1,31,-1
 186 190 l 1,8,-1
186 190 m 1,32,-1
 186 97 l 1,33,-1
 186 4 l 1,34,-1
 93 4 l 1,35,-1
 0 4 l 1,36,-1
 0 97 l 1,37,-1
 0 190 l 1,38,-1
 93 190 l 1,39,-1
 186 190 l 1,32,-1
745 190 m 1,40,-1
 745 97 l 1,41,-1
 745 4 l 1,42,-1
 559 4 l 1,43,-1
 372 4 l 1,44,-1
 372 97 l 1,45,-1
 372 190 l 1,46,-1
 559 190 l 1,47,-1
 745 190 l 1,40,-1
745 190 m 1,48,-1
 745 283 l 1,49,-1
 745 376 l 1,50,-1
 838 376 l 1,51,-1
 931 376 l 1,52,-1
 931 283 l 1,53,-1
 931 190 l 1,54,-1
 838 190 l 1,55,-1
 745 190 l 1,48,-1
745 1307 m 1,56,-1
 838 1307 l 1,57,-1
 931 1307 l 1,58,-1
 931 1214 l 1,59,-1
 931 1121 l 1,60,-1
 838 1121 l 1,61,-1
 745 1121 l 1,62,-1
 745 1214 l 1,63,-1
 745 1307 l 1,56,-1
EndSplineSet
EndChar

StartChar: CURRENCY
Encoding: 164 164 102
Width: 1117
Flags: W
LayerCount: 2
Fore
SplineSet
559 469 m 1,0,-1
 559 562 l 1,1,-1
 466 562 l 1,2,-1
 372 562 l 1,3,-1
 372 469 l 1,4,-1
 372 376 l 1,5,-1
 466 376 l 1,6,-1
 559 376 l 1,7,-1
 559 469 l 1,0,-1
0 842 m 1,8,-1
 0 935 l 1,9,-1
 93 935 l 1,10,-1
 186 935 l 1,11,-1
 186 842 l 1,12,-1
 186 748 l 1,13,-1
 93 748 l 1,14,-1
 0 748 l 1,15,-1
 0 842 l 1,8,-1
186 190 m 1,16,-1
 186 469 l 1,17,-1
 186 748 l 1,18,-1
 466 748 l 1,19,-1
 745 748 l 1,20,-1
 745 469 l 1,21,-1
 745 190 l 1,22,-1
 466 190 l 1,23,-1
 186 190 l 1,16,-1
186 190 m 1,24,-1
 186 97 l 1,25,-1
 186 4 l 1,26,-1
 93 4 l 1,27,-1
 0 4 l 1,28,-1
 0 97 l 1,29,-1
 0 190 l 1,30,-1
 93 190 l 1,31,-1
 186 190 l 1,24,-1
745 190 m 1,32,-1
 838 190 l 1,33,-1
 931 190 l 1,34,-1
 931 97 l 1,35,-1
 931 4 l 1,36,-1
 838 4 l 1,37,-1
 745 4 l 1,38,-1
 745 97 l 1,39,-1
 745 190 l 1,32,-1
745 748 m 1,40,-1
 745 842 l 1,41,-1
 745 935 l 1,42,-1
 838 935 l 1,43,-1
 931 935 l 1,44,-1
 931 842 l 1,45,-1
 931 748 l 1,46,-1
 838 748 l 1,47,-1
 745 748 l 1,40,-1
EndSplineSet
EndChar

StartChar: YEN
Encoding: 165 165 103
Width: 1117
Flags: W
LayerCount: 2
Fore
SplineSet
0 1307 m 1,0,-1
 0 1493 l 1,1,-1
 93 1493 l 1,2,-1
 186 1493 l 1,3,-1
 186 1307 l 1,4,-1
 186 1121 l 1,5,-1
 93 1121 l 1,6,-1
 0 1121 l 1,7,-1
 0 1307 l 1,0,-1
745 1121 m 1,8,-1
 745 1028 l 1,9,-1
 745 934 l 1,10,-1
 652 934 l 1,11,-1
 559 934 l 1,12,-1
 559 841 l 1,13,-1
 559 748 l 1,14,-1
 745 748 l 1,15,-1
 931 748 l 1,16,-1
 931 655 l 1,17,-1
 931 562 l 1,18,-1
 745 562 l 1,19,-1
 559 562 l 1,20,-1
 559 469 l 1,21,-1
 559 376 l 1,22,-1
 745 376 l 1,23,-1
 931 376 l 1,24,-1
 931 283 l 1,25,-1
 931 190 l 1,26,-1
 745 190 l 1,27,-1
 559 190 l 1,28,-1
 559 4 l 1,29,-1
 559 -182 l 1,30,-1
 466 -182 l 1,31,-1
 372 -182 l 1,32,-1
 372 4 l 1,33,-1
 372 190 l 1,34,-1
 186 190 l 1,35,-1
 0 190 l 1,36,-1
 0 283 l 1,37,-1
 0 376 l 1,38,-1
 186 376 l 1,39,-1
 372 376 l 1,40,-1
 372 469 l 1,41,-1
 372 562 l 1,42,-1
 186 562 l 1,43,-1
 0 562 l 1,44,-1
 0 655 l 1,45,-1
 0 748 l 1,46,-1
 186 748 l 1,47,-1
 372 748 l 1,48,-1
 372 841 l 1,49,-1
 372 934 l 1,50,-1
 279 934 l 1,51,-1
 186 934 l 1,52,-1
 186 1028 l 1,53,-1
 186 1121 l 1,54,-1
 279 1121 l 1,55,-1
 372 1121 l 1,56,-1
 372 1028 l 1,57,-1
 372 934 l 1,58,-1
 466 934 l 1,59,-1
 559 934 l 1,60,-1
 559 1028 l 1,61,-1
 559 1121 l 1,62,-1
 652 1121 l 1,63,-1
 745 1121 l 1,8,-1
745 1121 m 1,64,-1
 745 1307 l 1,65,-1
 745 1493 l 1,66,-1
 838 1493 l 1,67,-1
 931 1493 l 1,68,-1
 931 1307 l 1,69,-1
 931 1121 l 1,70,-1
 838 1121 l 1,71,-1
 745 1121 l 1,64,-1
EndSplineSet
EndChar

StartChar: BROKEN
Encoding: 166 166 104
Width: 1117
Flags: W
LayerCount: 2
Fore
SplineSet
372 1121 m 1,0,-1
 372 1493 l 1,1,-1
 465 1493 l 1,2,-1
 559 1493 l 1,3,-1
 559 1121 l 1,4,-1
 559 748 l 1,5,-1
 465 748 l 1,6,-1
 372 748 l 1,7,-1
 372 1121 l 1,0,-1
372 190 m 1,8,-1
 372 562 l 1,9,-1
 465 562 l 1,10,-1
 559 562 l 1,11,-1
 559 190 l 1,12,-1
 559 -182 l 1,13,-1
 465 -182 l 1,14,-1
 372 -182 l 1,15,-1
 372 190 l 1,8,-1
EndSplineSet
EndChar

StartChar: SECTION
Encoding: 167 167 105
Width: 1117
Flags: W
LayerCount: 2
Fore
SplineSet
372 1400 m 1,0,-1
 372 1493 l 1,1,-1
 652 1493 l 1,2,-1
 931 1493 l 1,3,-1
 931 1400 l 1,4,-1
 931 1307 l 1,5,-1
 652 1307 l 1,6,-1
 372 1307 l 1,7,-1
 372 1400 l 1,0,-1
372 562 m 1,8,-1
 559 562 l 1,9,-1
 745 562 l 1,10,-1
 745 655 l 1,11,-1
 745 748 l 1,12,-1
 559 748 l 1,13,-1
 372 748 l 1,14,-1
 372 655 l 1,15,-1
 372 562 l 1,8,-1
372 562 m 1,16,-1
 279 562 l 1,17,-1
 186 562 l 1,18,-1
 186 934 l 1,19,-1
 186 1307 l 1,20,-1
 279 1307 l 1,21,-1
 372 1307 l 1,22,-1
 372 1121 l 1,23,-1
 372 934 l 1,24,-1
 559 934 l 1,25,-1
 745 934 l 1,26,-1
 745 841 l 1,27,-1
 745 748 l 1,28,-1
 838 748 l 1,29,-1
 931 748 l 1,30,-1
 931 376 l 1,31,-1
 931 3 l 1,32,-1
 838 3 l 1,33,-1
 745 3 l 1,34,-1
 745 190 l 1,35,-1
 745 376 l 1,36,-1
 559 376 l 1,37,-1
 372 376 l 1,38,-1
 372 469 l 1,39,-1
 372 562 l 1,16,-1
745 3 m 1,40,-1
 745 -90 l 1,41,-1
 745 -182 l 1,42,-1
 466 -182 l 1,43,-1
 186 -182 l 1,44,-1
 186 -90 l 1,45,-1
 186 3 l 1,46,-1
 466 3 l 1,47,-1
 745 3 l 1,40,-1
EndSplineSet
EndChar

StartChar: DIAERESIS
Encoding: 168 168 106
Width: 1117
Flags: W
LayerCount: 2
Fore
SplineSet
186 1400 m 1,0,-1
 186 1493 l 1,1,-1
 279 1493 l 1,2,-1
 372 1493 l 1,3,-1
 372 1400 l 1,4,-1
 372 1307 l 1,5,-1
 279 1307 l 1,6,-1
 186 1307 l 1,7,-1
 186 1400 l 1,0,-1
559 1400 m 1,8,-1
 559 1493 l 1,9,-1
 652 1493 l 1,10,-1
 745 1493 l 1,11,-1
 745 1400 l 1,12,-1
 745 1307 l 1,13,-1
 652 1307 l 1,14,-1
 559 1307 l 1,15,-1
 559 1400 l 1,8,-1
EndSplineSet
EndChar

StartChar: COPYRIGHT
Encoding: 169 169 107
Width: 1117
Flags: W
LayerCount: 2
Fore
SplineSet
186 1214 m 1,0,-1
 186 1307 l 1,1,-1
 466 1307 l 1,2,-1
 745 1307 l 1,3,-1
 745 1214 l 1,4,-1
 745 1121 l 1,5,-1
 466 1121 l 1,6,-1
 186 1121 l 1,7,-1
 186 934 l 1,8,-1
 186 748 l 1,9,-1
 279 748 l 1,10,-1
 372 748 l 1,11,-1
 372 655 l 1,12,-1
 372 562 l 1,13,-1
 279 562 l 1,14,-1
 186 562 l 1,15,-1
 186 376 l 1,16,-1
 186 190 l 1,17,-1
 466 190 l 1,18,-1
 745 190 l 1,19,-1
 745 655 l 1,20,-1
 745 1121 l 1,21,-1
 838 1121 l 1,22,-1
 931 1121 l 1,23,-1
 931 655 l 1,24,-1
 931 190 l 1,25,-1
 838 190 l 1,26,-1
 745 190 l 1,27,-1
 745 97 l 1,28,-1
 745 4 l 1,29,-1
 466 4 l 1,30,-1
 186 4 l 1,31,-1
 186 97 l 1,32,-1
 186 190 l 1,33,-1
 93 190 l 1,34,-1
 0 190 l 1,35,-1
 0 655 l 1,36,-1
 0 1121 l 1,37,-1
 93 1121 l 1,38,-1
 186 1121 l 1,39,-1
 186 1214 l 1,0,-1
372 841 m 1,40,-1
 372 935 l 1,41,-1
 466 935 l 1,42,-1
 559 935 l 1,43,-1
 559 841 l 1,44,-1
 559 748 l 1,45,-1
 466 748 l 1,46,-1
 372 748 l 1,47,-1
 372 841 l 1,40,-1
372 562 m 1,48,-1
 466 562 l 1,49,-1
 559 562 l 1,50,-1
 559 469 l 1,51,-1
 559 376 l 1,52,-1
 466 376 l 1,53,-1
 372 376 l 1,54,-1
 372 469 l 1,55,-1
 372 562 l 1,48,-1
EndSplineSet
EndChar

StartChar: FEMININE
Encoding: 170 170 108
Width: 1117
Flags: W
LayerCount: 2
Fore
SplineSet
745 1028 m 1,0,-1
 745 1121 l 1,1,-1
 559 1121 l 1,2,-1
 372 1121 l 1,3,-1
 372 934 l 1,4,-1
 372 748 l 1,5,-1
 465 748 l 1,6,-1
 559 748 l 1,7,-1
 559 841 l 1,8,-1
 559 935 l 1,9,-1
 652 935 l 1,10,-1
 745 935 l 1,11,-1
 745 1028 l 1,0,-1
372 1214 m 1,12,-1
 372 1307 l 1,13,-1
 652 1307 l 1,14,-1
 931 1307 l 1,15,-1
 931 934 l 1,16,-1
 931 562 l 1,17,-1
 838 562 l 1,18,-1
 745 562 l 1,19,-1
 745 655 l 1,20,-1
 745 748 l 1,21,-1
 652 748 l 1,22,-1
 559 748 l 1,23,-1
 559 655 l 1,24,-1
 559 562 l 1,25,-1
 465 562 l 1,26,-1
 372 562 l 1,27,-1
 372 655 l 1,28,-1
 372 748 l 1,29,-1
 279 748 l 1,30,-1
 186 748 l 1,31,-1
 186 934 l 1,32,-1
 186 1121 l 1,33,-1
 279 1121 l 1,34,-1
 372 1121 l 1,35,-1
 372 1214 l 1,12,-1
186 283 m 1,36,-1
 186 376 l 1,37,-1
 559 376 l 1,38,-1
 931 376 l 1,39,-1
 931 283 l 1,40,-1
 931 190 l 1,41,-1
 559 190 l 1,42,-1
 186 190 l 1,43,-1
 186 283 l 1,36,-1
EndSplineSet
EndChar

StartChar: LEFT-POINTING
Encoding: 171 171 109
Width: 1117
Flags: W
LayerCount: 2
Fore
SplineSet
372 1028 m 1,0,-1
 372 1121 l 1,1,-1
 466 1121 l 1,2,-1
 559 1121 l 1,3,-1
 559 1028 l 1,4,-1
 559 935 l 1,5,-1
 466 935 l 1,6,-1
 372 935 l 1,7,-1
 372 1028 l 1,0,-1
931 1028 m 1,8,-1
 931 1121 l 1,9,-1
 1024 1121 l 1,10,-1
 1117 1121 l 1,11,-1
 1117 1028 l 1,12,-1
 1117 935 l 1,13,-1
 1024 935 l 1,14,-1
 931 935 l 1,15,-1
 931 1028 l 1,8,-1
372 376 m 1,16,-1
 279 376 l 1,17,-1
 186 376 l 1,18,-1
 186 469 l 1,19,-1
 186 562 l 1,20,-1
 93 562 l 1,21,-1
 0 562 l 1,22,-1
 0 655 l 1,23,-1
 0 748 l 1,24,-1
 93 748 l 1,25,-1
 186 748 l 1,26,-1
 186 842 l 1,27,-1
 186 935 l 1,28,-1
 279 935 l 1,29,-1
 372 935 l 1,30,-1
 372 842 l 1,31,-1
 372 748 l 1,32,-1
 279 748 l 1,33,-1
 186 748 l 1,34,-1
 186 655 l 1,35,-1
 186 562 l 1,36,-1
 279 562 l 1,37,-1
 372 562 l 1,38,-1
 372 469 l 1,39,-1
 372 376 l 1,16,-1
372 376 m 1,40,-1
 466 376 l 1,41,-1
 559 376 l 1,42,-1
 559 283 l 1,43,-1
 559 190 l 1,44,-1
 466 190 l 1,45,-1
 372 190 l 1,46,-1
 372 283 l 1,47,-1
 372 376 l 1,40,-1
931 376 m 1,48,-1
 838 376 l 1,49,-1
 745 376 l 1,50,-1
 745 469 l 1,51,-1
 745 562 l 1,52,-1
 652 562 l 1,53,-1
 559 562 l 1,54,-1
 559 655 l 1,55,-1
 559 748 l 1,56,-1
 652 748 l 1,57,-1
 745 748 l 1,58,-1
 745 842 l 1,59,-1
 745 935 l 1,60,-1
 838 935 l 1,61,-1
 931 935 l 1,62,-1
 931 842 l 1,63,-1
 931 748 l 1,64,-1
 838 748 l 1,65,-1
 745 748 l 1,66,-1
 745 655 l 1,67,-1
 745 562 l 1,68,-1
 838 562 l 1,69,-1
 931 562 l 1,70,-1
 931 469 l 1,71,-1
 931 376 l 1,48,-1
931 376 m 1,72,-1
 1024 376 l 1,73,-1
 1117 376 l 1,74,-1
 1117 283 l 1,75,-1
 1117 190 l 1,76,-1
 1024 190 l 1,77,-1
 931 190 l 1,78,-1
 931 283 l 1,79,-1
 931 376 l 1,72,-1
EndSplineSet
EndChar

StartChar: NOT
Encoding: 172 172 110
Width: 1117
Flags: W
LayerCount: 2
Fore
SplineSet
186 655 m 1,0,-1
 186 748 l 1,1,-1
 559 748 l 1,2,-1
 931 748 l 1,3,-1
 931 562 l 1,4,-1
 931 376 l 1,5,-1
 838 376 l 1,6,-1
 745 376 l 1,7,-1
 745 469 l 1,8,-1
 745 562 l 1,9,-1
 466 562 l 1,10,-1
 186 562 l 1,11,-1
 186 655 l 1,0,-1
EndSplineSet
EndChar

StartChar: SOFT
Encoding: 173 173 111
Width: 1117
Flags: W
LayerCount: 2
Fore
SplineSet
186 654 m 1,0,-1
 186 747 l 1,1,-1
 559 747 l 1,2,-1
 931 747 l 1,3,-1
 931 654 l 1,4,-1
 931 561 l 1,5,-1
 559 561 l 1,6,-1
 186 561 l 1,7,-1
 186 654 l 1,0,-1
EndSplineSet
EndChar

StartChar: REGISTERED
Encoding: 174 174 112
Width: 1117
Flags: W
LayerCount: 2
Fore
SplineSet
186 1214 m 1,0,-1
 186 1307 l 1,1,-1
 466 1307 l 1,2,-1
 745 1307 l 1,3,-1
 745 1214 l 1,4,-1
 745 1121 l 1,5,-1
 466 1121 l 1,6,-1
 186 1121 l 1,7,-1
 186 1028 l 1,8,-1
 186 935 l 1,9,-1
 373 935 l 1,10,-1
 559 935 l 1,11,-1
 559 841 l 1,12,-1
 559 748 l 1,13,-1
 466 748 l 1,14,-1
 372 748 l 1,15,-1
 372 562 l 1,16,-1
 372 376 l 1,17,-1
 279 376 l 1,18,-1
 186 376 l 1,19,-1
 186 283 l 1,20,-1
 186 190 l 1,21,-1
 466 190 l 1,22,-1
 745 190 l 1,23,-1
 745 655 l 1,24,-1
 745 1121 l 1,25,-1
 838 1121 l 1,26,-1
 931 1121 l 1,27,-1
 931 655 l 1,28,-1
 931 190 l 1,29,-1
 838 190 l 1,30,-1
 745 190 l 1,31,-1
 745 97 l 1,32,-1
 745 4 l 1,33,-1
 466 4 l 1,34,-1
 186 4 l 1,35,-1
 186 97 l 1,36,-1
 186 190 l 1,37,-1
 93 190 l 1,38,-1
 0 190 l 1,39,-1
 0 655 l 1,40,-1
 0 1121 l 1,41,-1
 93 1121 l 1,42,-1
 186 1121 l 1,43,-1
 186 1214 l 1,0,-1
EndSplineSet
EndChar

StartChar: MACRON
Encoding: 175 175 113
Width: 1117
Flags: W
LayerCount: 2
Fore
SplineSet
0 1399 m 1,0,-1
 0 1492 l 1,1,-1
 465 1492 l 1,2,-1
 931 1492 l 1,3,-1
 931 1399 l 1,4,-1
 931 1306 l 1,5,-1
 465 1306 l 1,6,-1
 0 1306 l 1,7,-1
 0 1399 l 1,0,-1
EndSplineSet
EndChar

StartChar: DEGREE
Encoding: 176 176 114
Width: 1117
Flags: W
LayerCount: 2
Fore
SplineSet
372 1214 m 1,0,-1
 372 1307 l 1,1,-1
 465 1307 l 1,2,-1
 559 1307 l 1,3,-1
 559 1214 l 1,4,-1
 559 1121 l 1,5,-1
 465 1121 l 1,6,-1
 372 1121 l 1,7,-1
 372 1028 l 1,8,-1
 372 935 l 1,9,-1
 465 935 l 1,10,-1
 559 935 l 1,11,-1
 559 1028 l 1,12,-1
 559 1121 l 1,13,-1
 652 1121 l 1,14,-1
 745 1121 l 1,15,-1
 745 1028 l 1,16,-1
 745 935 l 1,17,-1
 652 935 l 1,18,-1
 559 935 l 1,19,-1
 559 842 l 1,20,-1
 559 748 l 1,21,-1
 465 748 l 1,22,-1
 372 748 l 1,23,-1
 372 842 l 1,24,-1
 372 935 l 1,25,-1
 279 935 l 1,26,-1
 186 935 l 1,27,-1
 186 1028 l 1,28,-1
 186 1121 l 1,29,-1
 279 1121 l 1,30,-1
 372 1121 l 1,31,-1
 372 1214 l 1,0,-1
EndSplineSet
EndChar

StartChar: PLUS-MINUS
Encoding: 177 177 115
Width: 1117
Flags: W
LayerCount: 2
Fore
SplineSet
372 935 m 1,0,-1
 372 1121 l 1,1,-1
 466 1121 l 1,2,-1
 559 1121 l 1,3,-1
 559 935 l 1,4,-1
 559 748 l 1,5,-1
 745 748 l 1,6,-1
 931 748 l 1,7,-1
 931 655 l 1,8,-1
 931 562 l 1,9,-1
 745 562 l 1,10,-1
 559 562 l 1,11,-1
 559 376 l 1,12,-1
 559 190 l 1,13,-1
 745 190 l 1,14,-1
 931 190 l 1,15,-1
 931 97 l 1,16,-1
 931 4 l 1,17,-1
 465 4 l 1,18,-1
 0 4 l 1,19,-1
 0 97 l 1,20,-1
 0 190 l 1,21,-1
 186 190 l 1,22,-1
 372 190 l 1,23,-1
 372 376 l 1,24,-1
 372 562 l 1,25,-1
 186 562 l 1,26,-1
 0 562 l 1,27,-1
 0 655 l 1,28,-1
 0 748 l 1,29,-1
 186 748 l 1,30,-1
 372 748 l 1,31,-1
 372 935 l 1,0,-1
EndSplineSet
EndChar

StartChar: SUPERSCRIPT
Encoding: 178 178 116
Width: 1117
Flags: W
LayerCount: 2
Fore
SplineSet
372 1400 m 1,0,-1
 372 1493 l 1,1,-1
 559 1493 l 1,2,-1
 745 1493 l 1,3,-1
 745 1400 l 1,4,-1
 745 1307 l 1,5,-1
 559 1307 l 1,6,-1
 372 1307 l 1,7,-1
 372 1400 l 1,0,-1
372 1307 m 1,8,-1
 372 1214 l 1,9,-1
 372 1121 l 1,10,-1
 279 1121 l 1,11,-1
 186 1121 l 1,12,-1
 186 1214 l 1,13,-1
 186 1307 l 1,14,-1
 279 1307 l 1,15,-1
 372 1307 l 1,8,-1
559 934 m 1,16,-1
 559 1028 l 1,17,-1
 559 1121 l 1,18,-1
 652 1121 l 1,19,-1
 745 1121 l 1,20,-1
 745 1214 l 1,21,-1
 745 1307 l 1,22,-1
 838 1307 l 1,23,-1
 931 1307 l 1,24,-1
 931 1214 l 1,25,-1
 931 1121 l 1,26,-1
 838 1121 l 1,27,-1
 745 1121 l 1,28,-1
 745 1028 l 1,29,-1
 745 934 l 1,30,-1
 652 934 l 1,31,-1
 559 934 l 1,16,-1
559 934 m 1,32,-1
 559 841 l 1,33,-1
 559 748 l 1,34,-1
 745 748 l 1,35,-1
 931 748 l 1,36,-1
 931 655 l 1,37,-1
 931 562 l 1,38,-1
 559 562 l 1,39,-1
 186 562 l 1,40,-1
 186 655 l 1,41,-1
 186 748 l 1,42,-1
 279 748 l 1,43,-1
 372 748 l 1,44,-1
 372 841 l 1,45,-1
 372 934 l 1,46,-1
 465 934 l 1,47,-1
 559 934 l 1,32,-1
EndSplineSet
EndChar

StartChar: SUPERSCRIPT
Encoding: 179 179 117
Width: 1117
Flags: W
LayerCount: 2
Fore
SplineSet
186 1400 m 1,0,-1
 186 1493 l 1,1,-1
 466 1493 l 1,2,-1
 745 1493 l 1,3,-1
 745 1400 l 1,4,-1
 745 1307 l 1,5,-1
 466 1307 l 1,6,-1
 186 1307 l 1,7,-1
 186 1400 l 1,0,-1
745 748 m 1,8,-1
 745 841 l 1,9,-1
 745 934 l 1,10,-1
 559 934 l 1,11,-1
 372 934 l 1,12,-1
 372 1028 l 1,13,-1
 372 1121 l 1,14,-1
 559 1121 l 1,15,-1
 745 1121 l 1,16,-1
 745 1214 l 1,17,-1
 745 1307 l 1,18,-1
 838 1307 l 1,19,-1
 931 1307 l 1,20,-1
 931 1214 l 1,21,-1
 931 1121 l 1,22,-1
 838 1121 l 1,23,-1
 745 1121 l 1,24,-1
 745 1028 l 1,25,-1
 745 934 l 1,26,-1
 838 934 l 1,27,-1
 931 934 l 1,28,-1
 931 841 l 1,29,-1
 931 748 l 1,30,-1
 838 748 l 1,31,-1
 745 748 l 1,8,-1
745 748 m 1,32,-1
 745 655 l 1,33,-1
 745 562 l 1,34,-1
 466 562 l 1,35,-1
 186 562 l 1,36,-1
 186 655 l 1,37,-1
 186 748 l 1,38,-1
 466 748 l 1,39,-1
 745 748 l 1,32,-1
EndSplineSet
EndChar

StartChar: ACUTE
Encoding: 180 180 118
Width: 1117
Flags: W
LayerCount: 2
Fore
SplineSet
559 1400 m 1,0,-1
 559 1493 l 1,1,-1
 652 1493 l 1,2,-1
 745 1493 l 1,3,-1
 745 1400 l 1,4,-1
 745 1307 l 1,5,-1
 652 1307 l 1,6,-1
 559 1307 l 1,7,-1
 559 1400 l 1,0,-1
559 1307 m 1,8,-1
 559 1214 l 1,9,-1
 559 1121 l 1,10,-1
 465 1121 l 1,11,-1
 372 1121 l 1,12,-1
 372 1214 l 1,13,-1
 372 1307 l 1,14,-1
 465 1307 l 1,15,-1
 559 1307 l 1,8,-1
EndSplineSet
EndChar

StartChar: MICRO
Encoding: 181 181 119
Width: 1117
Flags: W
LayerCount: 2
Fore
SplineSet
0 376 m 1,0,-1
 0 935 l 1,1,-1
 93 935 l 1,2,-1
 186 935 l 1,3,-1
 186 655 l 1,4,-1
 186 376 l 1,5,-1
 279 376 l 1,6,-1
 372 376 l 1,7,-1
 372 283 l 1,8,-1
 372 190 l 1,9,-1
 279 190 l 1,10,-1
 186 190 l 1,11,-1
 186 4 l 1,12,-1
 186 -182 l 1,13,-1
 93 -182 l 1,14,-1
 0 -182 l 1,15,-1
 0 376 l 1,0,-1
745 190 m 1,16,-1
 745 96 l 1,17,-1
 745 3 l 1,18,-1
 559 3 l 1,19,-1
 372 3 l 1,20,-1
 372 96 l 1,21,-1
 372 190 l 1,22,-1
 559 190 l 1,23,-1
 745 190 l 1,16,-1
745 190 m 1,24,-1
 745 562 l 1,25,-1
 745 935 l 1,26,-1
 838 935 l 1,27,-1
 931 935 l 1,28,-1
 931 562 l 1,29,-1
 931 190 l 1,30,-1
 838 190 l 1,31,-1
 745 190 l 1,24,-1
EndSplineSet
EndChar

StartChar: PILCROW
Encoding: 182 182 120
Width: 1117
Flags: W
LayerCount: 2
Fore
SplineSet
186 1214 m 1,0,-1
 186 1307 l 1,1,-1
 559 1307 l 1,2,-1
 931 1307 l 1,3,-1
 931 655 l 1,4,-1
 931 4 l 1,5,-1
 838 4 l 1,6,-1
 745 4 l 1,7,-1
 745 562 l 1,8,-1
 745 1121 l 1,9,-1
 652 1121 l 1,10,-1
 559 1121 l 1,11,-1
 559 562 l 1,12,-1
 559 4 l 1,13,-1
 466 4 l 1,14,-1
 372 4 l 1,15,-1
 372 283 l 1,16,-1
 372 562 l 1,17,-1
 279 562 l 1,18,-1
 186 562 l 1,19,-1
 186 655 l 1,20,-1
 186 748 l 1,21,-1
 93 748 l 1,22,-1
 0 748 l 1,23,-1
 0 934 l 1,24,-1
 0 1121 l 1,25,-1
 93 1121 l 1,26,-1
 186 1121 l 1,27,-1
 186 1214 l 1,0,-1
EndSplineSet
EndChar

StartChar: MIDDLE
Encoding: 183 183 121
Width: 1117
Flags: W
LayerCount: 2
Fore
SplineSet
372 654 m 1,0,-1
 372 747 l 1,1,-1
 465 747 l 1,2,-1
 558 747 l 1,3,-1
 558 654 l 1,4,-1
 558 561 l 1,5,-1
 465 561 l 1,6,-1
 372 561 l 1,7,-1
 372 654 l 1,0,-1
EndSplineSet
EndChar

StartChar: CEDILLA
Encoding: 184 184 122
Width: 1117
Flags: W
LayerCount: 2
Fore
SplineSet
559 -89 m 1,0,-1
 559 4 l 1,1,-1
 652 4 l 1,2,-1
 745 4 l 1,3,-1
 745 -89 l 1,4,-1
 745 -182 l 1,5,-1
 652 -182 l 1,6,-1
 559 -182 l 1,7,-1
 559 -89 l 1,0,-1
559 -182 m 1,8,-1
 559 -276 l 1,9,-1
 559 -369 l 1,10,-1
 465 -369 l 1,11,-1
 372 -369 l 1,12,-1
 372 -276 l 1,13,-1
 372 -182 l 1,14,-1
 465 -182 l 1,15,-1
 559 -182 l 1,8,-1
EndSplineSet
EndChar

StartChar: SUPERSCRIPT
Encoding: 185 185 123
Width: 1117
Flags: W
LayerCount: 2
Fore
SplineSet
372 1400 m 1,0,-1
 372 1493 l 1,1,-1
 465 1493 l 1,2,-1
 559 1493 l 1,3,-1
 559 1121 l 1,4,-1
 559 748 l 1,5,-1
 652 748 l 1,6,-1
 745 748 l 1,7,-1
 745 655 l 1,8,-1
 745 562 l 1,9,-1
 465 562 l 1,10,-1
 186 562 l 1,11,-1
 186 655 l 1,12,-1
 186 748 l 1,13,-1
 279 748 l 1,14,-1
 372 748 l 1,15,-1
 372 934 l 1,16,-1
 372 1121 l 1,17,-1
 279 1121 l 1,18,-1
 186 1121 l 1,19,-1
 186 1214 l 1,20,-1
 186 1307 l 1,21,-1
 279 1307 l 1,22,-1
 372 1307 l 1,23,-1
 372 1400 l 1,0,-1
EndSplineSet
EndChar

StartChar: MASCULINE
Encoding: 186 186 124
Width: 1117
Flags: W
LayerCount: 2
Fore
SplineSet
372 1214 m 1,0,-1
 372 1307 l 1,1,-1
 559 1307 l 1,2,-1
 745 1307 l 1,3,-1
 745 1214 l 1,4,-1
 745 1121 l 1,5,-1
 559 1121 l 1,6,-1
 372 1121 l 1,7,-1
 372 934 l 1,8,-1
 372 748 l 1,9,-1
 559 748 l 1,10,-1
 745 748 l 1,11,-1
 745 934 l 1,12,-1
 745 1121 l 1,13,-1
 838 1121 l 1,14,-1
 931 1121 l 1,15,-1
 931 934 l 1,16,-1
 931 748 l 1,17,-1
 838 748 l 1,18,-1
 745 748 l 1,19,-1
 745 655 l 1,20,-1
 745 562 l 1,21,-1
 559 562 l 1,22,-1
 372 562 l 1,23,-1
 372 655 l 1,24,-1
 372 748 l 1,25,-1
 279 748 l 1,26,-1
 186 748 l 1,27,-1
 186 934 l 1,28,-1
 186 1121 l 1,29,-1
 279 1121 l 1,30,-1
 372 1121 l 1,31,-1
 372 1214 l 1,0,-1
186 283 m 1,32,-1
 186 376 l 1,33,-1
 559 376 l 1,34,-1
 931 376 l 1,35,-1
 931 283 l 1,36,-1
 931 190 l 1,37,-1
 559 190 l 1,38,-1
 186 190 l 1,39,-1
 186 283 l 1,32,-1
EndSplineSet
EndChar

StartChar: RIGHT-POINTING
Encoding: 187 187 125
Width: 1117
Flags: W
LayerCount: 2
Fore
SplineSet
0 1028 m 1,0,-1
 0 1121 l 1,1,-1
 93 1121 l 1,2,-1
 186 1121 l 1,3,-1
 186 1028 l 1,4,-1
 186 935 l 1,5,-1
 93 935 l 1,6,-1
 0 935 l 1,7,-1
 0 1028 l 1,0,-1
559 1028 m 1,8,-1
 559 1121 l 1,9,-1
 652 1121 l 1,10,-1
 745 1121 l 1,11,-1
 745 1028 l 1,12,-1
 745 935 l 1,13,-1
 652 935 l 1,14,-1
 559 935 l 1,15,-1
 559 1028 l 1,8,-1
186 376 m 1,16,-1
 186 469 l 1,17,-1
 186 562 l 1,18,-1
 279 562 l 1,19,-1
 372 562 l 1,20,-1
 372 655 l 1,21,-1
 372 748 l 1,22,-1
 279 748 l 1,23,-1
 186 748 l 1,24,-1
 186 842 l 1,25,-1
 186 935 l 1,26,-1
 279 935 l 1,27,-1
 372 935 l 1,28,-1
 372 842 l 1,29,-1
 372 748 l 1,30,-1
 466 748 l 1,31,-1
 559 748 l 1,32,-1
 559 655 l 1,33,-1
 559 562 l 1,34,-1
 466 562 l 1,35,-1
 372 562 l 1,36,-1
 372 469 l 1,37,-1
 372 376 l 1,38,-1
 279 376 l 1,39,-1
 186 376 l 1,16,-1
186 376 m 1,40,-1
 186 283 l 1,41,-1
 186 190 l 1,42,-1
 93 190 l 1,43,-1
 0 190 l 1,44,-1
 0 283 l 1,45,-1
 0 376 l 1,46,-1
 93 376 l 1,47,-1
 186 376 l 1,40,-1
745 376 m 1,48,-1
 745 469 l 1,49,-1
 745 562 l 1,50,-1
 838 562 l 1,51,-1
 931 562 l 1,52,-1
 931 655 l 1,53,-1
 931 748 l 1,54,-1
 838 748 l 1,55,-1
 745 748 l 1,56,-1
 745 842 l 1,57,-1
 745 935 l 1,58,-1
 838 935 l 1,59,-1
 931 935 l 1,60,-1
 931 842 l 1,61,-1
 931 748 l 1,62,-1
 1024 748 l 1,63,-1
 1117 748 l 1,64,-1
 1117 655 l 1,65,-1
 1117 562 l 1,66,-1
 1024 562 l 1,67,-1
 931 562 l 1,68,-1
 931 469 l 1,69,-1
 931 376 l 1,70,-1
 838 376 l 1,71,-1
 745 376 l 1,48,-1
745 376 m 1,72,-1
 745 283 l 1,73,-1
 745 190 l 1,74,-1
 652 190 l 1,75,-1
 559 190 l 1,76,-1
 559 283 l 1,77,-1
 559 376 l 1,78,-1
 652 376 l 1,79,-1
 745 376 l 1,72,-1
EndSplineSet
EndChar

StartChar: VULGAR
Encoding: 188 188 126
Width: 1117
Flags: W
LayerCount: 2
Fore
SplineSet
186 1400 m 1,0,-1
 186 1493 l 1,1,-1
 279 1493 l 1,2,-1
 372 1493 l 1,3,-1
 372 1121 l 1,4,-1
 372 748 l 1,5,-1
 466 748 l 1,6,-1
 559 748 l 1,7,-1
 559 655 l 1,8,-1
 559 562 l 1,9,-1
 279 562 l 1,10,-1
 0 562 l 1,11,-1
 0 655 l 1,12,-1
 0 748 l 1,13,-1
 93 748 l 1,14,-1
 186 748 l 1,15,-1
 186 934 l 1,16,-1
 186 1121 l 1,17,-1
 93 1121 l 1,18,-1
 0 1121 l 1,19,-1
 0 1214 l 1,20,-1
 0 1307 l 1,21,-1
 93 1307 l 1,22,-1
 186 1307 l 1,23,-1
 186 1400 l 1,0,-1
931 283 m 1,24,-1
 931 376 l 1,25,-1
 838 376 l 1,26,-1
 745 376 l 1,27,-1
 745 283 l 1,28,-1
 745 190 l 1,29,-1
 838 190 l 1,30,-1
 931 190 l 1,31,-1
 931 283 l 1,24,-1
931 655 m 1,32,-1
 931 748 l 1,33,-1
 1024 748 l 1,34,-1
 1117 748 l 1,35,-1
 1117 283 l 1,36,-1
 1117 -182 l 1,37,-1
 1024 -182 l 1,38,-1
 931 -182 l 1,39,-1
 931 -90 l 1,40,-1
 931 3 l 1,41,-1
 652 3 l 1,42,-1
 372 3 l 1,43,-1
 372 96 l 1,44,-1
 372 190 l 1,45,-1
 466 190 l 1,46,-1
 559 190 l 1,47,-1
 559 283 l 1,48,-1
 559 376 l 1,49,-1
 652 376 l 1,50,-1
 745 376 l 1,51,-1
 745 469 l 1,52,-1
 745 562 l 1,53,-1
 838 562 l 1,54,-1
 931 562 l 1,55,-1
 931 655 l 1,32,-1
EndSplineSet
EndChar

StartChar: VULGAR
Encoding: 189 189 127
Width: 1117
Flags: W
LayerCount: 2
Fore
SplineSet
186 1400 m 1,0,-1
 186 1493 l 1,1,-1
 279 1493 l 1,2,-1
 372 1493 l 1,3,-1
 372 1121 l 1,4,-1
 372 748 l 1,5,-1
 466 748 l 1,6,-1
 559 748 l 1,7,-1
 559 655 l 1,8,-1
 559 562 l 1,9,-1
 279 562 l 1,10,-1
 0 562 l 1,11,-1
 0 655 l 1,12,-1
 0 748 l 1,13,-1
 93 748 l 1,14,-1
 186 748 l 1,15,-1
 186 934 l 1,16,-1
 186 1121 l 1,17,-1
 93 1121 l 1,18,-1
 0 1121 l 1,19,-1
 0 1214 l 1,20,-1
 0 1307 l 1,21,-1
 93 1307 l 1,22,-1
 186 1307 l 1,23,-1
 186 1400 l 1,0,-1
931 190 m 1,24,-1
 931 376 l 1,25,-1
 931 562 l 1,26,-1
 838 562 l 1,27,-1
 745 562 l 1,28,-1
 745 469 l 1,29,-1
 745 376 l 1,30,-1
 652 376 l 1,31,-1
 559 376 l 1,32,-1
 559 469 l 1,33,-1
 559 562 l 1,34,-1
 652 562 l 1,35,-1
 745 562 l 1,36,-1
 745 655 l 1,37,-1
 745 748 l 1,38,-1
 838 748 l 1,39,-1
 931 748 l 1,40,-1
 931 655 l 1,41,-1
 931 562 l 1,42,-1
 1024 562 l 1,43,-1
 1117 562 l 1,44,-1
 1117 376 l 1,45,-1
 1117 190 l 1,46,-1
 1024 190 l 1,47,-1
 931 190 l 1,24,-1
931 190 m 1,48,-1
 931 96 l 1,49,-1
 931 3 l 1,50,-1
 1024 3 l 1,51,-1
 1117 3 l 1,52,-1
 1117 -90 l 1,53,-1
 1117 -182 l 1,54,-1
 838 -182 l 1,55,-1
 559 -182 l 1,56,-1
 559 -90 l 1,57,-1
 559 3 l 1,58,-1
 652 3 l 1,59,-1
 745 3 l 1,60,-1
 745 96 l 1,61,-1
 745 190 l 1,62,-1
 838 190 l 1,63,-1
 931 190 l 1,48,-1
EndSplineSet
EndChar

StartChar: VULGAR
Encoding: 190 190 128
Width: 1117
Flags: W
LayerCount: 2
Fore
SplineSet
0 1400 m 1,0,-1
 0 1493 l 1,1,-1
 186 1493 l 1,2,-1
 372 1493 l 1,3,-1
 372 1400 l 1,4,-1
 372 1307 l 1,5,-1
 186 1307 l 1,6,-1
 0 1307 l 1,7,-1
 0 1400 l 1,0,-1
745 283 m 1,8,-1
 745 376 l 1,9,-1
 652 376 l 1,10,-1
 559 376 l 1,11,-1
 559 283 l 1,12,-1
 559 190 l 1,13,-1
 652 190 l 1,14,-1
 745 190 l 1,15,-1
 745 283 l 1,8,-1
745 655 m 1,16,-1
 745 748 l 1,17,-1
 838 748 l 1,18,-1
 931 748 l 1,19,-1
 931 283 l 1,20,-1
 931 -182 l 1,21,-1
 838 -182 l 1,22,-1
 745 -182 l 1,23,-1
 745 -90 l 1,24,-1
 745 3 l 1,25,-1
 466 3 l 1,26,-1
 186 3 l 1,27,-1
 186 96 l 1,28,-1
 186 190 l 1,29,-1
 279 190 l 1,30,-1
 372 190 l 1,31,-1
 372 283 l 1,32,-1
 372 376 l 1,33,-1
 466 376 l 1,34,-1
 559 376 l 1,35,-1
 559 469 l 1,36,-1
 559 562 l 1,37,-1
 652 562 l 1,38,-1
 745 562 l 1,39,-1
 745 655 l 1,16,-1
372 748 m 1,40,-1
 372 841 l 1,41,-1
 372 934 l 1,42,-1
 279 934 l 1,43,-1
 186 934 l 1,44,-1
 186 1028 l 1,45,-1
 186 1121 l 1,46,-1
 279 1121 l 1,47,-1
 372 1121 l 1,48,-1
 372 1214 l 1,49,-1
 372 1307 l 1,50,-1
 466 1307 l 1,51,-1
 559 1307 l 1,52,-1
 559 1214 l 1,53,-1
 559 1121 l 1,54,-1
 466 1121 l 1,55,-1
 372 1121 l 1,56,-1
 372 1028 l 1,57,-1
 372 934 l 1,58,-1
 466 934 l 1,59,-1
 559 934 l 1,60,-1
 559 841 l 1,61,-1
 559 748 l 1,62,-1
 466 748 l 1,63,-1
 372 748 l 1,40,-1
372 748 m 1,64,-1
 372 655 l 1,65,-1
 372 562 l 1,66,-1
 186 562 l 1,67,-1
 0 562 l 1,68,-1
 0 655 l 1,69,-1
 0 748 l 1,70,-1
 186 748 l 1,71,-1
 372 748 l 1,64,-1
EndSplineSet
EndChar

StartChar: INVERTED
Encoding: 191 191 129
Width: 1117
Flags: W
LayerCount: 2
Fore
SplineSet
372 1214 m 1,0,-1
 372 1307 l 1,1,-1
 466 1307 l 1,2,-1
 559 1307 l 1,3,-1
 559 1214 l 1,4,-1
 559 1121 l 1,5,-1
 466 1121 l 1,6,-1
 372 1121 l 1,7,-1
 372 1214 l 1,0,-1
372 841 m 1,8,-1
 372 935 l 1,9,-1
 466 935 l 1,10,-1
 559 935 l 1,11,-1
 559 841 l 1,12,-1
 559 748 l 1,13,-1
 466 748 l 1,14,-1
 372 748 l 1,15,-1
 372 841 l 1,8,-1
745 190 m 1,16,-1
 745 97 l 1,17,-1
 745 4 l 1,18,-1
 466 4 l 1,19,-1
 186 4 l 1,20,-1
 186 97 l 1,21,-1
 186 190 l 1,22,-1
 93 190 l 1,23,-1
 0 190 l 1,24,-1
 0 376 l 1,25,-1
 0 562 l 1,26,-1
 93 562 l 1,27,-1
 186 562 l 1,28,-1
 186 655 l 1,29,-1
 186 748 l 1,30,-1
 279 748 l 1,31,-1
 372 748 l 1,32,-1
 372 655 l 1,33,-1
 372 562 l 1,34,-1
 279 562 l 1,35,-1
 186 562 l 1,36,-1
 186 376 l 1,37,-1
 186 190 l 1,38,-1
 466 190 l 1,39,-1
 745 190 l 1,16,-1
745 190 m 1,40,-1
 745 283 l 1,41,-1
 745 376 l 1,42,-1
 838 376 l 1,43,-1
 931 376 l 1,44,-1
 931 283 l 1,45,-1
 931 190 l 1,46,-1
 838 190 l 1,47,-1
 745 190 l 1,40,-1
EndSplineSet
EndChar

StartChar: LATIN
Encoding: 192 192 130
Width: 1117
Flags: W
LayerCount: 2
Fore
SplineSet
186 1586 m 1,0,-1
 186 1679 l 1,1,-1
 279 1679 l 1,2,-1
 372 1679 l 1,3,-1
 372 1586 l 1,4,-1
 372 1493 l 1,5,-1
 279 1493 l 1,6,-1
 186 1493 l 1,7,-1
 186 1586 l 1,0,-1
186 1120 m 1,8,-1
 186 934 l 1,9,-1
 186 748 l 1,10,-1
 466 748 l 1,11,-1
 745 748 l 1,12,-1
 745 934 l 1,13,-1
 745 1120 l 1,14,-1
 466 1120 l 1,15,-1
 186 1120 l 1,8,-1
186 1120 m 1,16,-1
 186 1214 l 1,17,-1
 186 1307 l 1,18,-1
 279 1307 l 1,19,-1
 372 1307 l 1,20,-1
 372 1400 l 1,21,-1
 372 1493 l 1,22,-1
 466 1493 l 1,23,-1
 559 1493 l 1,24,-1
 559 1400 l 1,25,-1
 559 1307 l 1,26,-1
 652 1307 l 1,27,-1
 745 1307 l 1,28,-1
 745 1214 l 1,29,-1
 745 1120 l 1,30,-1
 838 1120 l 1,31,-1
 931 1120 l 1,32,-1
 931 562 l 1,33,-1
 931 4 l 1,34,-1
 838 4 l 1,35,-1
 745 4 l 1,36,-1
 745 283 l 1,37,-1
 745 562 l 1,38,-1
 466 562 l 1,39,-1
 186 562 l 1,40,-1
 186 283 l 1,41,-1
 186 4 l 1,42,-1
 93 4 l 1,43,-1
 0 4 l 1,44,-1
 0 562 l 1,45,-1
 0 1120 l 1,46,-1
 93 1120 l 1,47,-1
 186 1120 l 1,16,-1
EndSplineSet
EndChar

StartChar: LATIN
Encoding: 193 193 131
Width: 1117
Flags: W
LayerCount: 2
Fore
SplineSet
559 1586 m 1,0,-1
 559 1679 l 1,1,-1
 652 1679 l 1,2,-1
 745 1679 l 1,3,-1
 745 1586 l 1,4,-1
 745 1493 l 1,5,-1
 652 1493 l 1,6,-1
 559 1493 l 1,7,-1
 559 1586 l 1,0,-1
186 1120 m 1,8,-1
 186 934 l 1,9,-1
 186 748 l 1,10,-1
 466 748 l 1,11,-1
 745 748 l 1,12,-1
 745 934 l 1,13,-1
 745 1120 l 1,14,-1
 466 1120 l 1,15,-1
 186 1120 l 1,8,-1
186 1120 m 1,16,-1
 186 1214 l 1,17,-1
 186 1307 l 1,18,-1
 279 1307 l 1,19,-1
 372 1307 l 1,20,-1
 372 1400 l 1,21,-1
 372 1493 l 1,22,-1
 466 1493 l 1,23,-1
 559 1493 l 1,24,-1
 559 1400 l 1,25,-1
 559 1307 l 1,26,-1
 652 1307 l 1,27,-1
 745 1307 l 1,28,-1
 745 1214 l 1,29,-1
 745 1120 l 1,30,-1
 838 1120 l 1,31,-1
 931 1120 l 1,32,-1
 931 562 l 1,33,-1
 931 4 l 1,34,-1
 838 4 l 1,35,-1
 745 4 l 1,36,-1
 745 283 l 1,37,-1
 745 562 l 1,38,-1
 466 562 l 1,39,-1
 186 562 l 1,40,-1
 186 283 l 1,41,-1
 186 4 l 1,42,-1
 93 4 l 1,43,-1
 0 4 l 1,44,-1
 0 562 l 1,45,-1
 0 1120 l 1,46,-1
 93 1120 l 1,47,-1
 186 1120 l 1,16,-1
EndSplineSet
EndChar

StartChar: LATIN
Encoding: 194 194 132
Width: 1117
Flags: W
LayerCount: 2
Fore
SplineSet
372 1586 m 1,0,-1
 372 1679 l 1,1,-1
 466 1679 l 1,2,-1
 559 1679 l 1,3,-1
 559 1586 l 1,4,-1
 559 1493 l 1,5,-1
 466 1493 l 1,6,-1
 372 1493 l 1,7,-1
 372 1586 l 1,0,-1
186 1027 m 1,8,-1
 186 1120 l 1,9,-1
 466 1120 l 1,10,-1
 745 1120 l 1,11,-1
 745 1027 l 1,12,-1
 745 934 l 1,13,-1
 466 934 l 1,14,-1
 186 934 l 1,15,-1
 186 748 l 1,16,-1
 186 562 l 1,17,-1
 466 562 l 1,18,-1
 745 562 l 1,19,-1
 745 748 l 1,20,-1
 745 934 l 1,21,-1
 838 934 l 1,22,-1
 931 934 l 1,23,-1
 931 469 l 1,24,-1
 931 4 l 1,25,-1
 838 4 l 1,26,-1
 745 4 l 1,27,-1
 745 190 l 1,28,-1
 745 376 l 1,29,-1
 466 376 l 1,30,-1
 186 376 l 1,31,-1
 186 190 l 1,32,-1
 186 4 l 1,33,-1
 93 4 l 1,34,-1
 0 4 l 1,35,-1
 0 469 l 1,36,-1
 0 934 l 1,37,-1
 93 934 l 1,38,-1
 186 934 l 1,39,-1
 186 1027 l 1,8,-1
372 1493 m 1,40,-1
 372 1400 l 1,41,-1
 372 1307 l 1,42,-1
 279 1307 l 1,43,-1
 186 1307 l 1,44,-1
 186 1400 l 1,45,-1
 186 1493 l 1,46,-1
 279 1493 l 1,47,-1
 372 1493 l 1,40,-1
559 1493 m 1,48,-1
 652 1493 l 1,49,-1
 745 1493 l 1,50,-1
 745 1400 l 1,51,-1
 745 1307 l 1,52,-1
 652 1307 l 1,53,-1
 559 1307 l 1,54,-1
 559 1400 l 1,55,-1
 559 1493 l 1,48,-1
EndSplineSet
EndChar

StartChar: LATIN
Encoding: 195 195 133
Width: 1117
Flags: W
LayerCount: 2
Fore
SplineSet
186 1586 m 1,0,-1
 186 1679 l 1,1,-1
 373 1679 l 1,2,-1
 559 1679 l 1,3,-1
 559 1586 l 1,4,-1
 559 1493 l 1,5,-1
 652 1493 l 1,6,-1
 745 1493 l 1,7,-1
 745 1400 l 1,8,-1
 745 1307 l 1,9,-1
 559 1307 l 1,10,-1
 372 1307 l 1,11,-1
 372 1400 l 1,12,-1
 372 1493 l 1,13,-1
 279 1493 l 1,14,-1
 186 1493 l 1,15,-1
 186 1586 l 1,0,-1
186 1027 m 1,16,-1
 186 1120 l 1,17,-1
 466 1120 l 1,18,-1
 745 1120 l 1,19,-1
 745 1027 l 1,20,-1
 745 934 l 1,21,-1
 466 934 l 1,22,-1
 186 934 l 1,23,-1
 186 748 l 1,24,-1
 186 562 l 1,25,-1
 466 562 l 1,26,-1
 745 562 l 1,27,-1
 745 748 l 1,28,-1
 745 934 l 1,29,-1
 838 934 l 1,30,-1
 931 934 l 1,31,-1
 931 469 l 1,32,-1
 931 4 l 1,33,-1
 838 4 l 1,34,-1
 745 4 l 1,35,-1
 745 190 l 1,36,-1
 745 376 l 1,37,-1
 466 376 l 1,38,-1
 186 376 l 1,39,-1
 186 190 l 1,40,-1
 186 4 l 1,41,-1
 93 4 l 1,42,-1
 0 4 l 1,43,-1
 0 469 l 1,44,-1
 0 934 l 1,45,-1
 93 934 l 1,46,-1
 186 934 l 1,47,-1
 186 1027 l 1,16,-1
186 1493 m 1,48,-1
 186 1400 l 1,49,-1
 186 1307 l 1,50,-1
 93 1307 l 1,51,-1
 0 1307 l 1,52,-1
 0 1400 l 1,53,-1
 0 1493 l 1,54,-1
 93 1493 l 1,55,-1
 186 1493 l 1,48,-1
745 1493 m 1,56,-1
 745 1586 l 1,57,-1
 745 1679 l 1,58,-1
 838 1679 l 1,59,-1
 931 1679 l 1,60,-1
 931 1586 l 1,61,-1
 931 1493 l 1,62,-1
 838 1493 l 1,63,-1
 745 1493 l 1,56,-1
EndSplineSet
EndChar

StartChar: LATIN
Encoding: 196 196 134
Width: 1117
Flags: W
LayerCount: 2
Fore
SplineSet
186 1586 m 1,0,-1
 186 1679 l 1,1,-1
 279 1679 l 1,2,-1
 372 1679 l 1,3,-1
 372 1586 l 1,4,-1
 372 1493 l 1,5,-1
 279 1493 l 1,6,-1
 186 1493 l 1,7,-1
 186 1586 l 1,0,-1
559 1586 m 1,8,-1
 559 1679 l 1,9,-1
 652 1679 l 1,10,-1
 745 1679 l 1,11,-1
 745 1586 l 1,12,-1
 745 1493 l 1,13,-1
 652 1493 l 1,14,-1
 559 1493 l 1,15,-1
 559 1586 l 1,8,-1
186 1214 m 1,16,-1
 186 1307 l 1,17,-1
 466 1307 l 1,18,-1
 745 1307 l 1,19,-1
 745 1214 l 1,20,-1
 745 1120 l 1,21,-1
 466 1120 l 1,22,-1
 186 1120 l 1,23,-1
 186 934 l 1,24,-1
 186 748 l 1,25,-1
 466 748 l 1,26,-1
 745 748 l 1,27,-1
 745 934 l 1,28,-1
 745 1120 l 1,29,-1
 838 1120 l 1,30,-1
 931 1120 l 1,31,-1
 931 562 l 1,32,-1
 931 4 l 1,33,-1
 838 4 l 1,34,-1
 745 4 l 1,35,-1
 745 283 l 1,36,-1
 745 562 l 1,37,-1
 466 562 l 1,38,-1
 186 562 l 1,39,-1
 186 283 l 1,40,-1
 186 4 l 1,41,-1
 93 4 l 1,42,-1
 0 4 l 1,43,-1
 0 562 l 1,44,-1
 0 1120 l 1,45,-1
 93 1120 l 1,46,-1
 186 1120 l 1,47,-1
 186 1214 l 1,16,-1
EndSplineSet
EndChar

StartChar: LATIN
Encoding: 197 197 135
Width: 1117
Flags: W
LayerCount: 2
Fore
SplineSet
372 1586 m 1,0,-1
 372 1679 l 1,1,-1
 466 1679 l 1,2,-1
 559 1679 l 1,3,-1
 559 1586 l 1,4,-1
 559 1493 l 1,5,-1
 466 1493 l 1,6,-1
 372 1493 l 1,7,-1
 372 1400 l 1,8,-1
 372 1307 l 1,9,-1
 466 1307 l 1,10,-1
 559 1307 l 1,11,-1
 559 1400 l 1,12,-1
 559 1493 l 1,13,-1
 652 1493 l 1,14,-1
 745 1493 l 1,15,-1
 745 1400 l 1,16,-1
 745 1307 l 1,17,-1
 652 1307 l 1,18,-1
 559 1307 l 1,19,-1
 559 1214 l 1,20,-1
 559 1120 l 1,21,-1
 652 1120 l 1,22,-1
 745 1120 l 1,23,-1
 745 1027 l 1,24,-1
 745 934 l 1,25,-1
 466 934 l 1,26,-1
 186 934 l 1,27,-1
 186 748 l 1,28,-1
 186 562 l 1,29,-1
 466 562 l 1,30,-1
 745 562 l 1,31,-1
 745 748 l 1,32,-1
 745 934 l 1,33,-1
 838 934 l 1,34,-1
 931 934 l 1,35,-1
 931 469 l 1,36,-1
 931 4 l 1,37,-1
 838 4 l 1,38,-1
 745 4 l 1,39,-1
 745 190 l 1,40,-1
 745 376 l 1,41,-1
 466 376 l 1,42,-1
 186 376 l 1,43,-1
 186 190 l 1,44,-1
 186 4 l 1,45,-1
 93 4 l 1,46,-1
 0 4 l 1,47,-1
 0 469 l 1,48,-1
 0 934 l 1,49,-1
 93 934 l 1,50,-1
 186 934 l 1,51,-1
 186 1027 l 1,52,-1
 186 1120 l 1,53,-1
 279 1120 l 1,54,-1
 372 1120 l 1,55,-1
 372 1214 l 1,56,-1
 372 1307 l 1,57,-1
 279 1307 l 1,58,-1
 186 1307 l 1,59,-1
 186 1400 l 1,60,-1
 186 1493 l 1,61,-1
 279 1493 l 1,62,-1
 372 1493 l 1,63,-1
 372 1586 l 1,0,-1
EndSplineSet
EndChar

StartChar: LATIN
Encoding: 198 198 136
Width: 1117
Flags: W
LayerCount: 2
Fore
SplineSet
372 934 m 1,0,-1
 372 1121 l 1,1,-1
 279 1121 l 1,2,-1
 186 1121 l 1,3,-1
 186 934 l 1,4,-1
 186 748 l 1,5,-1
 279 748 l 1,6,-1
 372 748 l 1,7,-1
 372 934 l 1,0,-1
186 1214 m 1,8,-1
 186 1307 l 1,9,-1
 559 1307 l 1,10,-1
 931 1307 l 1,11,-1
 931 1214 l 1,12,-1
 931 1121 l 1,13,-1
 745 1121 l 1,14,-1
 559 1121 l 1,15,-1
 559 934 l 1,16,-1
 559 748 l 1,17,-1
 652 748 l 1,18,-1
 745 748 l 1,19,-1
 745 655 l 1,20,-1
 745 562 l 1,21,-1
 652 562 l 1,22,-1
 559 562 l 1,23,-1
 559 376 l 1,24,-1
 559 190 l 1,25,-1
 745 190 l 1,26,-1
 931 190 l 1,27,-1
 931 97 l 1,28,-1
 931 4 l 1,29,-1
 652 4 l 1,30,-1
 372 4 l 1,31,-1
 372 283 l 1,32,-1
 372 562 l 1,33,-1
 279 562 l 1,34,-1
 186 562 l 1,35,-1
 186 283 l 1,36,-1
 186 4 l 1,37,-1
 93 4 l 1,38,-1
 0 4 l 1,39,-1
 0 562 l 1,40,-1
 0 1121 l 1,41,-1
 93 1121 l 1,42,-1
 186 1121 l 1,43,-1
 186 1214 l 1,8,-1
EndSplineSet
EndChar

StartChar: LATIN
Encoding: 199 199 137
Width: 1117
Flags: W
LayerCount: 2
Fore
SplineSet
186 1214 m 1,0,-1
 186 1307 l 1,1,-1
 466 1307 l 1,2,-1
 745 1307 l 1,3,-1
 745 1214 l 1,4,-1
 745 1121 l 1,5,-1
 466 1121 l 1,6,-1
 186 1121 l 1,7,-1
 186 1214 l 1,0,-1
372 -183 m 1,8,-1
 372 -90 l 1,9,-1
 372 3 l 1,10,-1
 279 3 l 1,11,-1
 186 3 l 1,12,-1
 186 96 l 1,13,-1
 186 190 l 1,14,-1
 93 190 l 1,15,-1
 0 190 l 1,16,-1
 0 655 l 1,17,-1
 0 1121 l 1,18,-1
 93 1121 l 1,19,-1
 186 1121 l 1,20,-1
 186 655 l 1,21,-1
 186 190 l 1,22,-1
 466 190 l 1,23,-1
 745 190 l 1,24,-1
 745 96 l 1,25,-1
 745 3 l 1,26,-1
 652 3 l 1,27,-1
 559 3 l 1,28,-1
 559 -90 l 1,29,-1
 559 -183 l 1,30,-1
 466 -183 l 1,31,-1
 372 -183 l 1,8,-1
372 -183 m 1,32,-1
 372 -276 l 1,33,-1
 372 -369 l 1,34,-1
 279 -369 l 1,35,-1
 186 -369 l 1,36,-1
 186 -276 l 1,37,-1
 186 -183 l 1,38,-1
 279 -183 l 1,39,-1
 372 -183 l 1,32,-1
745 190 m 1,40,-1
 745 283 l 1,41,-1
 745 376 l 1,42,-1
 838 376 l 1,43,-1
 931 376 l 1,44,-1
 931 283 l 1,45,-1
 931 190 l 1,46,-1
 838 190 l 1,47,-1
 745 190 l 1,40,-1
745 1121 m 1,48,-1
 838 1121 l 1,49,-1
 931 1121 l 1,50,-1
 931 1028 l 1,51,-1
 931 935 l 1,52,-1
 838 935 l 1,53,-1
 745 935 l 1,54,-1
 745 1028 l 1,55,-1
 745 1121 l 1,48,-1
EndSplineSet
EndChar

StartChar: LATIN
Encoding: 200 200 138
Width: 1117
Flags: W
LayerCount: 2
Fore
SplineSet
186 1586 m 1,0,-1
 186 1679 l 1,1,-1
 279 1679 l 1,2,-1
 372 1679 l 1,3,-1
 372 1586 l 1,4,-1
 372 1493 l 1,5,-1
 279 1493 l 1,6,-1
 186 1493 l 1,7,-1
 186 1586 l 1,0,-1
372 1493 m 1,8,-1
 466 1493 l 1,9,-1
 559 1493 l 1,10,-1
 559 1400 l 1,11,-1
 559 1307 l 1,12,-1
 745 1307 l 1,13,-1
 931 1307 l 1,14,-1
 931 1214 l 1,15,-1
 931 1120 l 1,16,-1
 559 1120 l 1,17,-1
 186 1120 l 1,18,-1
 186 934 l 1,19,-1
 186 748 l 1,20,-1
 466 748 l 1,21,-1
 745 748 l 1,22,-1
 745 655 l 1,23,-1
 745 562 l 1,24,-1
 466 562 l 1,25,-1
 186 562 l 1,26,-1
 186 376 l 1,27,-1
 186 190 l 1,28,-1
 559 190 l 1,29,-1
 931 190 l 1,30,-1
 931 97 l 1,31,-1
 931 4 l 1,32,-1
 465 4 l 1,33,-1
 0 4 l 1,34,-1
 0 655 l 1,35,-1
 0 1307 l 1,36,-1
 186 1307 l 1,37,-1
 372 1307 l 1,38,-1
 372 1400 l 1,39,-1
 372 1493 l 1,8,-1
EndSplineSet
EndChar

StartChar: LATIN
Encoding: 201 201 139
Width: 1117
Flags: W
LayerCount: 2
Fore
SplineSet
559 1586 m 1,0,-1
 559 1679 l 1,1,-1
 652 1679 l 1,2,-1
 745 1679 l 1,3,-1
 745 1586 l 1,4,-1
 745 1493 l 1,5,-1
 652 1493 l 1,6,-1
 559 1493 l 1,7,-1
 559 1586 l 1,0,-1
559 1493 m 1,8,-1
 559 1400 l 1,9,-1
 559 1307 l 1,10,-1
 745 1307 l 1,11,-1
 931 1307 l 1,12,-1
 931 1214 l 1,13,-1
 931 1120 l 1,14,-1
 559 1120 l 1,15,-1
 186 1120 l 1,16,-1
 186 934 l 1,17,-1
 186 748 l 1,18,-1
 466 748 l 1,19,-1
 745 748 l 1,20,-1
 745 655 l 1,21,-1
 745 562 l 1,22,-1
 466 562 l 1,23,-1
 186 562 l 1,24,-1
 186 376 l 1,25,-1
 186 190 l 1,26,-1
 559 190 l 1,27,-1
 931 190 l 1,28,-1
 931 97 l 1,29,-1
 931 4 l 1,30,-1
 465 4 l 1,31,-1
 0 4 l 1,32,-1
 0 655 l 1,33,-1
 0 1307 l 1,34,-1
 186 1307 l 1,35,-1
 372 1307 l 1,36,-1
 372 1400 l 1,37,-1
 372 1493 l 1,38,-1
 466 1493 l 1,39,-1
 559 1493 l 1,8,-1
EndSplineSet
EndChar

StartChar: LATIN
Encoding: 202 202 140
Width: 1117
Flags: W
LayerCount: 2
Fore
SplineSet
372 1586 m 1,0,-1
 372 1679 l 1,1,-1
 466 1679 l 1,2,-1
 559 1679 l 1,3,-1
 559 1586 l 1,4,-1
 559 1493 l 1,5,-1
 466 1493 l 1,6,-1
 372 1493 l 1,7,-1
 372 1400 l 1,8,-1
 372 1307 l 1,9,-1
 466 1307 l 1,10,-1
 559 1307 l 1,11,-1
 559 1400 l 1,12,-1
 559 1493 l 1,13,-1
 652 1493 l 1,14,-1
 745 1493 l 1,15,-1
 745 1400 l 1,16,-1
 745 1307 l 1,17,-1
 838 1307 l 1,18,-1
 931 1307 l 1,19,-1
 931 1214 l 1,20,-1
 931 1120 l 1,21,-1
 559 1120 l 1,22,-1
 186 1120 l 1,23,-1
 186 934 l 1,24,-1
 186 748 l 1,25,-1
 466 748 l 1,26,-1
 745 748 l 1,27,-1
 745 655 l 1,28,-1
 745 562 l 1,29,-1
 466 562 l 1,30,-1
 186 562 l 1,31,-1
 186 376 l 1,32,-1
 186 190 l 1,33,-1
 559 190 l 1,34,-1
 931 190 l 1,35,-1
 931 97 l 1,36,-1
 931 4 l 1,37,-1
 465 4 l 1,38,-1
 0 4 l 1,39,-1
 0 655 l 1,40,-1
 0 1307 l 1,41,-1
 93 1307 l 1,42,-1
 186 1307 l 1,43,-1
 186 1400 l 1,44,-1
 186 1493 l 1,45,-1
 279 1493 l 1,46,-1
 372 1493 l 1,47,-1
 372 1586 l 1,0,-1
EndSplineSet
EndChar

StartChar: LATIN
Encoding: 203 203 141
Width: 1117
Flags: W
LayerCount: 2
Fore
SplineSet
186 1586 m 1,0,-1
 186 1679 l 1,1,-1
 279 1679 l 1,2,-1
 372 1679 l 1,3,-1
 372 1586 l 1,4,-1
 372 1493 l 1,5,-1
 279 1493 l 1,6,-1
 186 1493 l 1,7,-1
 186 1586 l 1,0,-1
559 1586 m 1,8,-1
 559 1679 l 1,9,-1
 652 1679 l 1,10,-1
 745 1679 l 1,11,-1
 745 1586 l 1,12,-1
 745 1493 l 1,13,-1
 652 1493 l 1,14,-1
 559 1493 l 1,15,-1
 559 1586 l 1,8,-1
0 655 m 1,16,-1
 0 1307 l 1,17,-1
 465 1307 l 1,18,-1
 931 1307 l 1,19,-1
 931 1214 l 1,20,-1
 931 1120 l 1,21,-1
 559 1120 l 1,22,-1
 186 1120 l 1,23,-1
 186 934 l 1,24,-1
 186 748 l 1,25,-1
 466 748 l 1,26,-1
 745 748 l 1,27,-1
 745 655 l 1,28,-1
 745 562 l 1,29,-1
 466 562 l 1,30,-1
 186 562 l 1,31,-1
 186 376 l 1,32,-1
 186 190 l 1,33,-1
 559 190 l 1,34,-1
 931 190 l 1,35,-1
 931 97 l 1,36,-1
 931 4 l 1,37,-1
 465 4 l 1,38,-1
 0 4 l 1,39,-1
 0 655 l 1,16,-1
EndSplineSet
EndChar

StartChar: LATIN
Encoding: 204 204 142
Width: 1117
Flags: W
LayerCount: 2
Fore
SplineSet
372 1586 m 1,0,-1
 372 1679 l 1,1,-1
 465 1679 l 1,2,-1
 559 1679 l 1,3,-1
 559 1586 l 1,4,-1
 559 1493 l 1,5,-1
 465 1493 l 1,6,-1
 372 1493 l 1,7,-1
 372 1586 l 1,0,-1
186 1027 m 1,8,-1
 186 1120 l 1,9,-1
 465 1120 l 1,10,-1
 745 1120 l 1,11,-1
 745 1027 l 1,12,-1
 745 934 l 1,13,-1
 652 934 l 1,14,-1
 559 934 l 1,15,-1
 559 562 l 1,16,-1
 559 190 l 1,17,-1
 652 190 l 1,18,-1
 745 190 l 1,19,-1
 745 97 l 1,20,-1
 745 4 l 1,21,-1
 465 4 l 1,22,-1
 186 4 l 1,23,-1
 186 97 l 1,24,-1
 186 190 l 1,25,-1
 279 190 l 1,26,-1
 372 190 l 1,27,-1
 372 562 l 1,28,-1
 372 934 l 1,29,-1
 279 934 l 1,30,-1
 186 934 l 1,31,-1
 186 1027 l 1,8,-1
559 1493 m 1,32,-1
 652 1493 l 1,33,-1
 745 1493 l 1,34,-1
 745 1400 l 1,35,-1
 745 1307 l 1,36,-1
 652 1307 l 1,37,-1
 559 1307 l 1,38,-1
 559 1400 l 1,39,-1
 559 1493 l 1,32,-1
EndSplineSet
EndChar

StartChar: LATIN
Encoding: 205 205 143
Width: 1117
Flags: W
LayerCount: 2
Fore
SplineSet
372 1586 m 1,0,-1
 372 1679 l 1,1,-1
 465 1679 l 1,2,-1
 559 1679 l 1,3,-1
 559 1586 l 1,4,-1
 559 1493 l 1,5,-1
 465 1493 l 1,6,-1
 372 1493 l 1,7,-1
 372 1586 l 1,0,-1
186 1027 m 1,8,-1
 186 1120 l 1,9,-1
 465 1120 l 1,10,-1
 745 1120 l 1,11,-1
 745 1027 l 1,12,-1
 745 934 l 1,13,-1
 652 934 l 1,14,-1
 559 934 l 1,15,-1
 559 562 l 1,16,-1
 559 190 l 1,17,-1
 652 190 l 1,18,-1
 745 190 l 1,19,-1
 745 97 l 1,20,-1
 745 4 l 1,21,-1
 465 4 l 1,22,-1
 186 4 l 1,23,-1
 186 97 l 1,24,-1
 186 190 l 1,25,-1
 279 190 l 1,26,-1
 372 190 l 1,27,-1
 372 562 l 1,28,-1
 372 934 l 1,29,-1
 279 934 l 1,30,-1
 186 934 l 1,31,-1
 186 1027 l 1,8,-1
372 1493 m 1,32,-1
 372 1400 l 1,33,-1
 372 1307 l 1,34,-1
 279 1307 l 1,35,-1
 186 1307 l 1,36,-1
 186 1400 l 1,37,-1
 186 1493 l 1,38,-1
 279 1493 l 1,39,-1
 372 1493 l 1,32,-1
EndSplineSet
EndChar

StartChar: LATIN
Encoding: 206 206 144
Width: 1117
Flags: W
LayerCount: 2
Fore
SplineSet
372 1586 m 1,0,-1
 372 1679 l 1,1,-1
 465 1679 l 1,2,-1
 559 1679 l 1,3,-1
 559 1586 l 1,4,-1
 559 1493 l 1,5,-1
 465 1493 l 1,6,-1
 372 1493 l 1,7,-1
 372 1586 l 1,0,-1
186 1027 m 1,8,-1
 186 1120 l 1,9,-1
 465 1120 l 1,10,-1
 745 1120 l 1,11,-1
 745 1027 l 1,12,-1
 745 934 l 1,13,-1
 652 934 l 1,14,-1
 559 934 l 1,15,-1
 559 562 l 1,16,-1
 559 190 l 1,17,-1
 652 190 l 1,18,-1
 745 190 l 1,19,-1
 745 97 l 1,20,-1
 745 4 l 1,21,-1
 465 4 l 1,22,-1
 186 4 l 1,23,-1
 186 97 l 1,24,-1
 186 190 l 1,25,-1
 279 190 l 1,26,-1
 372 190 l 1,27,-1
 372 562 l 1,28,-1
 372 934 l 1,29,-1
 279 934 l 1,30,-1
 186 934 l 1,31,-1
 186 1027 l 1,8,-1
372 1493 m 1,32,-1
 372 1400 l 1,33,-1
 372 1307 l 1,34,-1
 279 1307 l 1,35,-1
 186 1307 l 1,36,-1
 186 1400 l 1,37,-1
 186 1493 l 1,38,-1
 279 1493 l 1,39,-1
 372 1493 l 1,32,-1
559 1493 m 1,40,-1
 652 1493 l 1,41,-1
 745 1493 l 1,42,-1
 745 1400 l 1,43,-1
 745 1307 l 1,44,-1
 652 1307 l 1,45,-1
 559 1307 l 1,46,-1
 559 1400 l 1,47,-1
 559 1493 l 1,40,-1
EndSplineSet
EndChar

StartChar: LATIN
Encoding: 207 207 145
Width: 1117
Flags: W
LayerCount: 2
Fore
SplineSet
186 1586 m 1,0,-1
 186 1679 l 1,1,-1
 279 1679 l 1,2,-1
 372 1679 l 1,3,-1
 372 1586 l 1,4,-1
 372 1493 l 1,5,-1
 279 1493 l 1,6,-1
 186 1493 l 1,7,-1
 186 1586 l 1,0,-1
559 1586 m 1,8,-1
 559 1679 l 1,9,-1
 652 1679 l 1,10,-1
 745 1679 l 1,11,-1
 745 1586 l 1,12,-1
 745 1493 l 1,13,-1
 652 1493 l 1,14,-1
 559 1493 l 1,15,-1
 559 1586 l 1,8,-1
186 1214 m 1,16,-1
 186 1307 l 1,17,-1
 465 1307 l 1,18,-1
 745 1307 l 1,19,-1
 745 1214 l 1,20,-1
 745 1120 l 1,21,-1
 652 1120 l 1,22,-1
 559 1120 l 1,23,-1
 559 655 l 1,24,-1
 559 190 l 1,25,-1
 652 190 l 1,26,-1
 745 190 l 1,27,-1
 745 97 l 1,28,-1
 745 4 l 1,29,-1
 465 4 l 1,30,-1
 186 4 l 1,31,-1
 186 97 l 1,32,-1
 186 190 l 1,33,-1
 279 190 l 1,34,-1
 372 190 l 1,35,-1
 372 655 l 1,36,-1
 372 1120 l 1,37,-1
 279 1120 l 1,38,-1
 186 1120 l 1,39,-1
 186 1214 l 1,16,-1
EndSplineSet
EndChar

StartChar: LATIN
Encoding: 208 208 146
Width: 1117
Flags: W
LayerCount: 2
Fore
SplineSet
186 1028 m 1,0,-1
 186 1307 l 1,1,-1
 466 1307 l 1,2,-1
 745 1307 l 1,3,-1
 745 1214 l 1,4,-1
 745 1121 l 1,5,-1
 559 1121 l 1,6,-1
 372 1121 l 1,7,-1
 372 934 l 1,8,-1
 372 748 l 1,9,-1
 466 748 l 1,10,-1
 559 748 l 1,11,-1
 559 655 l 1,12,-1
 559 562 l 1,13,-1
 466 562 l 1,14,-1
 372 562 l 1,15,-1
 372 376 l 1,16,-1
 372 190 l 1,17,-1
 559 190 l 1,18,-1
 745 190 l 1,19,-1
 745 655 l 1,20,-1
 745 1121 l 1,21,-1
 838 1121 l 1,22,-1
 931 1121 l 1,23,-1
 931 655 l 1,24,-1
 931 190 l 1,25,-1
 838 190 l 1,26,-1
 745 190 l 1,27,-1
 745 97 l 1,28,-1
 745 4 l 1,29,-1
 466 4 l 1,30,-1
 186 4 l 1,31,-1
 186 283 l 1,32,-1
 186 562 l 1,33,-1
 93 562 l 1,34,-1
 0 562 l 1,35,-1
 0 655 l 1,36,-1
 0 748 l 1,37,-1
 93 748 l 1,38,-1
 186 748 l 1,39,-1
 186 1028 l 1,0,-1
EndSplineSet
EndChar

StartChar: LATIN
Encoding: 209 209 147
Width: 1117
Flags: W
LayerCount: 2
Fore
SplineSet
372 1400 m 1,0,-1
 372 1493 l 1,1,-1
 279 1493 l 1,2,-1
 186 1493 l 1,3,-1
 186 1307 l 1,4,-1
 186 1120 l 1,5,-1
 279 1120 l 1,6,-1
 372 1120 l 1,7,-1
 372 1027 l 1,8,-1
 372 934 l 1,9,-1
 466 934 l 1,10,-1
 559 934 l 1,11,-1
 559 841 l 1,12,-1
 559 748 l 1,13,-1
 652 748 l 1,14,-1
 745 748 l 1,15,-1
 745 1028 l 1,16,-1
 745 1307 l 1,17,-1
 559 1307 l 1,18,-1
 372 1307 l 1,19,-1
 372 1400 l 1,0,-1
186 1586 m 1,20,-1
 186 1679 l 1,21,-1
 373 1679 l 1,22,-1
 559 1679 l 1,23,-1
 559 1586 l 1,24,-1
 559 1493 l 1,25,-1
 652 1493 l 1,26,-1
 745 1493 l 1,27,-1
 745 1400 l 1,28,-1
 745 1307 l 1,29,-1
 838 1307 l 1,30,-1
 931 1307 l 1,31,-1
 931 655 l 1,32,-1
 931 4 l 1,33,-1
 838 4 l 1,34,-1
 745 4 l 1,35,-1
 745 283 l 1,36,-1
 745 562 l 1,37,-1
 652 562 l 1,38,-1
 559 562 l 1,39,-1
 559 655 l 1,40,-1
 559 748 l 1,41,-1
 466 748 l 1,42,-1
 372 748 l 1,43,-1
 372 841 l 1,44,-1
 372 934 l 1,45,-1
 279 934 l 1,46,-1
 186 934 l 1,47,-1
 186 469 l 1,48,-1
 186 4 l 1,49,-1
 93 4 l 1,50,-1
 0 4 l 1,51,-1
 0 748 l 1,52,-1
 0 1493 l 1,53,-1
 93 1493 l 1,54,-1
 186 1493 l 1,55,-1
 186 1586 l 1,20,-1
745 1493 m 1,56,-1
 745 1586 l 1,57,-1
 745 1679 l 1,58,-1
 838 1679 l 1,59,-1
 931 1679 l 1,60,-1
 931 1586 l 1,61,-1
 931 1493 l 1,62,-1
 838 1493 l 1,63,-1
 745 1493 l 1,56,-1
EndSplineSet
EndChar

StartChar: LATIN
Encoding: 210 210 148
Width: 1117
Flags: W
LayerCount: 2
Fore
SplineSet
186 1586 m 1,0,-1
 186 1679 l 1,1,-1
 279 1679 l 1,2,-1
 372 1679 l 1,3,-1
 372 1586 l 1,4,-1
 372 1493 l 1,5,-1
 279 1493 l 1,6,-1
 186 1493 l 1,7,-1
 186 1586 l 1,0,-1
186 1120 m 1,8,-1
 186 655 l 1,9,-1
 186 190 l 1,10,-1
 466 190 l 1,11,-1
 745 190 l 1,12,-1
 745 655 l 1,13,-1
 745 1120 l 1,14,-1
 466 1120 l 1,15,-1
 186 1120 l 1,8,-1
186 1120 m 1,16,-1
 186 1214 l 1,17,-1
 186 1307 l 1,18,-1
 279 1307 l 1,19,-1
 372 1307 l 1,20,-1
 372 1400 l 1,21,-1
 372 1493 l 1,22,-1
 466 1493 l 1,23,-1
 559 1493 l 1,24,-1
 559 1400 l 1,25,-1
 559 1307 l 1,26,-1
 652 1307 l 1,27,-1
 745 1307 l 1,28,-1
 745 1214 l 1,29,-1
 745 1120 l 1,30,-1
 838 1120 l 1,31,-1
 931 1120 l 1,32,-1
 931 655 l 1,33,-1
 931 190 l 1,34,-1
 838 190 l 1,35,-1
 745 190 l 1,36,-1
 745 97 l 1,37,-1
 745 4 l 1,38,-1
 466 4 l 1,39,-1
 186 4 l 1,40,-1
 186 97 l 1,41,-1
 186 190 l 1,42,-1
 93 190 l 1,43,-1
 0 190 l 1,44,-1
 0 655 l 1,45,-1
 0 1120 l 1,46,-1
 93 1120 l 1,47,-1
 186 1120 l 1,16,-1
EndSplineSet
EndChar

StartChar: LATIN
Encoding: 211 211 149
Width: 1117
Flags: W
LayerCount: 2
Fore
SplineSet
559 1586 m 1,0,-1
 559 1679 l 1,1,-1
 652 1679 l 1,2,-1
 745 1679 l 1,3,-1
 745 1586 l 1,4,-1
 745 1493 l 1,5,-1
 652 1493 l 1,6,-1
 559 1493 l 1,7,-1
 559 1586 l 1,0,-1
186 1120 m 1,8,-1
 186 655 l 1,9,-1
 186 190 l 1,10,-1
 466 190 l 1,11,-1
 745 190 l 1,12,-1
 745 655 l 1,13,-1
 745 1120 l 1,14,-1
 466 1120 l 1,15,-1
 186 1120 l 1,8,-1
186 1120 m 1,16,-1
 186 1214 l 1,17,-1
 186 1307 l 1,18,-1
 279 1307 l 1,19,-1
 372 1307 l 1,20,-1
 372 1400 l 1,21,-1
 372 1493 l 1,22,-1
 466 1493 l 1,23,-1
 559 1493 l 1,24,-1
 559 1400 l 1,25,-1
 559 1307 l 1,26,-1
 652 1307 l 1,27,-1
 745 1307 l 1,28,-1
 745 1214 l 1,29,-1
 745 1120 l 1,30,-1
 838 1120 l 1,31,-1
 931 1120 l 1,32,-1
 931 655 l 1,33,-1
 931 190 l 1,34,-1
 838 190 l 1,35,-1
 745 190 l 1,36,-1
 745 97 l 1,37,-1
 745 4 l 1,38,-1
 466 4 l 1,39,-1
 186 4 l 1,40,-1
 186 97 l 1,41,-1
 186 190 l 1,42,-1
 93 190 l 1,43,-1
 0 190 l 1,44,-1
 0 655 l 1,45,-1
 0 1120 l 1,46,-1
 93 1120 l 1,47,-1
 186 1120 l 1,16,-1
EndSplineSet
EndChar

StartChar: LATIN
Encoding: 212 212 150
Width: 1117
Flags: W
LayerCount: 2
Fore
SplineSet
372 1586 m 1,0,-1
 372 1679 l 1,1,-1
 466 1679 l 1,2,-1
 559 1679 l 1,3,-1
 559 1586 l 1,4,-1
 559 1493 l 1,5,-1
 466 1493 l 1,6,-1
 372 1493 l 1,7,-1
 372 1586 l 1,0,-1
186 1027 m 1,8,-1
 186 1120 l 1,9,-1
 466 1120 l 1,10,-1
 745 1120 l 1,11,-1
 745 1027 l 1,12,-1
 745 934 l 1,13,-1
 466 934 l 1,14,-1
 186 934 l 1,15,-1
 186 562 l 1,16,-1
 186 190 l 1,17,-1
 466 190 l 1,18,-1
 745 190 l 1,19,-1
 745 562 l 1,20,-1
 745 934 l 1,21,-1
 838 934 l 1,22,-1
 931 934 l 1,23,-1
 931 562 l 1,24,-1
 931 190 l 1,25,-1
 838 190 l 1,26,-1
 745 190 l 1,27,-1
 745 97 l 1,28,-1
 745 4 l 1,29,-1
 466 4 l 1,30,-1
 186 4 l 1,31,-1
 186 97 l 1,32,-1
 186 190 l 1,33,-1
 93 190 l 1,34,-1
 0 190 l 1,35,-1
 0 562 l 1,36,-1
 0 934 l 1,37,-1
 93 934 l 1,38,-1
 186 934 l 1,39,-1
 186 1027 l 1,8,-1
372 1493 m 1,40,-1
 372 1400 l 1,41,-1
 372 1307 l 1,42,-1
 279 1307 l 1,43,-1
 186 1307 l 1,44,-1
 186 1400 l 1,45,-1
 186 1493 l 1,46,-1
 279 1493 l 1,47,-1
 372 1493 l 1,40,-1
559 1493 m 1,48,-1
 652 1493 l 1,49,-1
 745 1493 l 1,50,-1
 745 1400 l 1,51,-1
 745 1307 l 1,52,-1
 652 1307 l 1,53,-1
 559 1307 l 1,54,-1
 559 1400 l 1,55,-1
 559 1493 l 1,48,-1
EndSplineSet
EndChar

StartChar: LATIN
Encoding: 213 213 151
Width: 1117
Flags: W
LayerCount: 2
Fore
SplineSet
372 1400 m 1,0,-1
 372 1493 l 1,1,-1
 279 1493 l 1,2,-1
 186 1493 l 1,3,-1
 186 1400 l 1,4,-1
 186 1307 l 1,5,-1
 279 1307 l 1,6,-1
 372 1307 l 1,7,-1
 372 1400 l 1,0,-1
186 1586 m 1,8,-1
 186 1679 l 1,9,-1
 373 1679 l 1,10,-1
 559 1679 l 1,11,-1
 559 1586 l 1,12,-1
 559 1493 l 1,13,-1
 652 1493 l 1,14,-1
 745 1493 l 1,15,-1
 745 1307 l 1,16,-1
 745 1120 l 1,17,-1
 466 1120 l 1,18,-1
 186 1120 l 1,19,-1
 186 655 l 1,20,-1
 186 190 l 1,21,-1
 466 190 l 1,22,-1
 745 190 l 1,23,-1
 745 655 l 1,24,-1
 745 1120 l 1,25,-1
 838 1120 l 1,26,-1
 931 1120 l 1,27,-1
 931 655 l 1,28,-1
 931 190 l 1,29,-1
 838 190 l 1,30,-1
 745 190 l 1,31,-1
 745 97 l 1,32,-1
 745 4 l 1,33,-1
 466 4 l 1,34,-1
 186 4 l 1,35,-1
 186 97 l 1,36,-1
 186 190 l 1,37,-1
 93 190 l 1,38,-1
 0 190 l 1,39,-1
 0 655 l 1,40,-1
 0 1120 l 1,41,-1
 93 1120 l 1,42,-1
 186 1120 l 1,43,-1
 186 1214 l 1,44,-1
 186 1307 l 1,45,-1
 93 1307 l 1,46,-1
 0 1307 l 1,47,-1
 0 1400 l 1,48,-1
 0 1493 l 1,49,-1
 93 1493 l 1,50,-1
 186 1493 l 1,51,-1
 186 1586 l 1,8,-1
745 1493 m 1,52,-1
 745 1586 l 1,53,-1
 745 1679 l 1,54,-1
 838 1679 l 1,55,-1
 931 1679 l 1,56,-1
 931 1586 l 1,57,-1
 931 1493 l 1,58,-1
 838 1493 l 1,59,-1
 745 1493 l 1,52,-1
EndSplineSet
EndChar

StartChar: LATIN
Encoding: 214 214 152
Width: 1117
Flags: W
LayerCount: 2
Fore
SplineSet
186 1586 m 1,0,-1
 186 1679 l 1,1,-1
 279 1679 l 1,2,-1
 372 1679 l 1,3,-1
 372 1586 l 1,4,-1
 372 1493 l 1,5,-1
 279 1493 l 1,6,-1
 186 1493 l 1,7,-1
 186 1586 l 1,0,-1
559 1586 m 1,8,-1
 559 1679 l 1,9,-1
 652 1679 l 1,10,-1
 745 1679 l 1,11,-1
 745 1586 l 1,12,-1
 745 1493 l 1,13,-1
 652 1493 l 1,14,-1
 559 1493 l 1,15,-1
 559 1586 l 1,8,-1
186 1214 m 1,16,-1
 186 1307 l 1,17,-1
 466 1307 l 1,18,-1
 745 1307 l 1,19,-1
 745 1214 l 1,20,-1
 745 1120 l 1,21,-1
 466 1120 l 1,22,-1
 186 1120 l 1,23,-1
 186 655 l 1,24,-1
 186 190 l 1,25,-1
 466 190 l 1,26,-1
 745 190 l 1,27,-1
 745 655 l 1,28,-1
 745 1120 l 1,29,-1
 838 1120 l 1,30,-1
 931 1120 l 1,31,-1
 931 655 l 1,32,-1
 931 190 l 1,33,-1
 838 190 l 1,34,-1
 745 190 l 1,35,-1
 745 97 l 1,36,-1
 745 4 l 1,37,-1
 466 4 l 1,38,-1
 186 4 l 1,39,-1
 186 97 l 1,40,-1
 186 190 l 1,41,-1
 93 190 l 1,42,-1
 0 190 l 1,43,-1
 0 655 l 1,44,-1
 0 1120 l 1,45,-1
 93 1120 l 1,46,-1
 186 1120 l 1,47,-1
 186 1214 l 1,16,-1
EndSplineSet
EndChar

StartChar: MULTIPLICATION
Encoding: 215 215 153
Width: 1117
Flags: W
LayerCount: 2
Fore
SplineSet
0 1028 m 1,0,-1
 0 1121 l 1,1,-1
 93 1121 l 1,2,-1
 186 1121 l 1,3,-1
 186 1028 l 1,4,-1
 186 935 l 1,5,-1
 93 935 l 1,6,-1
 0 935 l 1,7,-1
 0 1028 l 1,0,-1
186 376 m 1,8,-1
 186 469 l 1,9,-1
 186 562 l 1,10,-1
 279 562 l 1,11,-1
 372 562 l 1,12,-1
 372 655 l 1,13,-1
 372 748 l 1,14,-1
 279 748 l 1,15,-1
 186 748 l 1,16,-1
 186 842 l 1,17,-1
 186 935 l 1,18,-1
 279 935 l 1,19,-1
 372 935 l 1,20,-1
 372 842 l 1,21,-1
 372 748 l 1,22,-1
 466 748 l 1,23,-1
 559 748 l 1,24,-1
 559 655 l 1,25,-1
 559 562 l 1,26,-1
 466 562 l 1,27,-1
 372 562 l 1,28,-1
 372 469 l 1,29,-1
 372 376 l 1,30,-1
 279 376 l 1,31,-1
 186 376 l 1,8,-1
186 376 m 1,32,-1
 186 283 l 1,33,-1
 186 190 l 1,34,-1
 93 190 l 1,35,-1
 0 190 l 1,36,-1
 0 283 l 1,37,-1
 0 376 l 1,38,-1
 93 376 l 1,39,-1
 186 376 l 1,32,-1
745 376 m 1,40,-1
 652 376 l 1,41,-1
 559 376 l 1,42,-1
 559 469 l 1,43,-1
 559 562 l 1,44,-1
 652 562 l 1,45,-1
 745 562 l 1,46,-1
 745 469 l 1,47,-1
 745 376 l 1,40,-1
745 376 m 1,48,-1
 838 376 l 1,49,-1
 931 376 l 1,50,-1
 931 283 l 1,51,-1
 931 190 l 1,52,-1
 838 190 l 1,53,-1
 745 190 l 1,54,-1
 745 283 l 1,55,-1
 745 376 l 1,48,-1
745 935 m 1,56,-1
 745 842 l 1,57,-1
 745 748 l 1,58,-1
 652 748 l 1,59,-1
 559 748 l 1,60,-1
 559 842 l 1,61,-1
 559 935 l 1,62,-1
 652 935 l 1,63,-1
 745 935 l 1,56,-1
745 935 m 1,64,-1
 745 1028 l 1,65,-1
 745 1121 l 1,66,-1
 838 1121 l 1,67,-1
 931 1121 l 1,68,-1
 931 1028 l 1,69,-1
 931 935 l 1,70,-1
 838 935 l 1,71,-1
 745 935 l 1,64,-1
EndSplineSet
EndChar

StartChar: LATIN
Encoding: 216 216 154
Width: 1117
Flags: W
LayerCount: 2
Fore
SplineSet
186 1214 m 1,0,-1
 186 1307 l 1,1,-1
 466 1307 l 1,2,-1
 745 1307 l 1,3,-1
 745 1214 l 1,4,-1
 745 1121 l 1,5,-1
 466 1121 l 1,6,-1
 186 1121 l 1,7,-1
 186 841 l 1,8,-1
 186 562 l 1,9,-1
 279 562 l 1,10,-1
 372 562 l 1,11,-1
 372 469 l 1,12,-1
 372 376 l 1,13,-1
 559 376 l 1,14,-1
 745 376 l 1,15,-1
 745 562 l 1,16,-1
 745 748 l 1,17,-1
 652 748 l 1,18,-1
 559 748 l 1,19,-1
 559 841 l 1,20,-1
 559 935 l 1,21,-1
 652 935 l 1,22,-1
 745 935 l 1,23,-1
 745 1028 l 1,24,-1
 745 1121 l 1,25,-1
 838 1121 l 1,26,-1
 931 1121 l 1,27,-1
 931 748 l 1,28,-1
 931 376 l 1,29,-1
 838 376 l 1,30,-1
 745 376 l 1,31,-1
 745 283 l 1,32,-1
 745 190 l 1,33,-1
 373 190 l 1,34,-1
 0 190 l 1,35,-1
 0 655 l 1,36,-1
 0 1121 l 1,37,-1
 93 1121 l 1,38,-1
 186 1121 l 1,39,-1
 186 1214 l 1,0,-1
372 655 m 1,40,-1
 372 748 l 1,41,-1
 466 748 l 1,42,-1
 559 748 l 1,43,-1
 559 655 l 1,44,-1
 559 562 l 1,45,-1
 466 562 l 1,46,-1
 372 562 l 1,47,-1
 372 655 l 1,40,-1
931 1121 m 1,48,-1
 931 1214 l 1,49,-1
 931 1307 l 1,50,-1
 1024 1307 l 1,51,-1
 1117 1307 l 1,52,-1
 1117 1214 l 1,53,-1
 1117 1121 l 1,54,-1
 1024 1121 l 1,55,-1
 931 1121 l 1,48,-1
EndSplineSet
EndChar

StartChar: LATIN
Encoding: 217 217 155
Width: 1117
Flags: W
LayerCount: 2
Fore
SplineSet
186 1586 m 1,0,-1
 186 1679 l 1,1,-1
 279 1679 l 1,2,-1
 372 1679 l 1,3,-1
 372 1586 l 1,4,-1
 372 1493 l 1,5,-1
 279 1493 l 1,6,-1
 186 1493 l 1,7,-1
 186 1586 l 1,0,-1
0 748 m 1,8,-1
 0 1307 l 1,9,-1
 93 1307 l 1,10,-1
 186 1307 l 1,11,-1
 186 748 l 1,12,-1
 186 190 l 1,13,-1
 93 190 l 1,14,-1
 0 190 l 1,15,-1
 0 748 l 1,8,-1
372 1493 m 1,16,-1
 466 1493 l 1,17,-1
 559 1493 l 1,18,-1
 559 1400 l 1,19,-1
 559 1307 l 1,20,-1
 466 1307 l 1,21,-1
 372 1307 l 1,22,-1
 372 1400 l 1,23,-1
 372 1493 l 1,16,-1
745 190 m 1,24,-1
 745 97 l 1,25,-1
 745 4 l 1,26,-1
 466 4 l 1,27,-1
 186 4 l 1,28,-1
 186 97 l 1,29,-1
 186 190 l 1,30,-1
 466 190 l 1,31,-1
 745 190 l 1,24,-1
745 190 m 1,32,-1
 745 748 l 1,33,-1
 745 1307 l 1,34,-1
 838 1307 l 1,35,-1
 931 1307 l 1,36,-1
 931 748 l 1,37,-1
 931 190 l 1,38,-1
 838 190 l 1,39,-1
 745 190 l 1,32,-1
EndSplineSet
EndChar

StartChar: LATIN
Encoding: 218 218 156
Width: 1117
Flags: W
LayerCount: 2
Fore
SplineSet
559 1586 m 1,0,-1
 559 1679 l 1,1,-1
 652 1679 l 1,2,-1
 745 1679 l 1,3,-1
 745 1586 l 1,4,-1
 745 1493 l 1,5,-1
 652 1493 l 1,6,-1
 559 1493 l 1,7,-1
 559 1586 l 1,0,-1
0 748 m 1,8,-1
 0 1307 l 1,9,-1
 93 1307 l 1,10,-1
 186 1307 l 1,11,-1
 186 748 l 1,12,-1
 186 190 l 1,13,-1
 93 190 l 1,14,-1
 0 190 l 1,15,-1
 0 748 l 1,8,-1
559 1493 m 1,16,-1
 559 1400 l 1,17,-1
 559 1307 l 1,18,-1
 466 1307 l 1,19,-1
 372 1307 l 1,20,-1
 372 1400 l 1,21,-1
 372 1493 l 1,22,-1
 466 1493 l 1,23,-1
 559 1493 l 1,16,-1
745 190 m 1,24,-1
 745 97 l 1,25,-1
 745 4 l 1,26,-1
 466 4 l 1,27,-1
 186 4 l 1,28,-1
 186 97 l 1,29,-1
 186 190 l 1,30,-1
 466 190 l 1,31,-1
 745 190 l 1,24,-1
745 190 m 1,32,-1
 745 748 l 1,33,-1
 745 1307 l 1,34,-1
 838 1307 l 1,35,-1
 931 1307 l 1,36,-1
 931 748 l 1,37,-1
 931 190 l 1,38,-1
 838 190 l 1,39,-1
 745 190 l 1,32,-1
EndSplineSet
EndChar

StartChar: LATIN
Encoding: 219 219 157
Width: 1117
Flags: W
LayerCount: 2
Fore
SplineSet
559 1586 m 1,0,-1
 559 1679 l 1,1,-1
 652 1679 l 1,2,-1
 745 1679 l 1,3,-1
 745 1586 l 1,4,-1
 745 1493 l 1,5,-1
 652 1493 l 1,6,-1
 559 1493 l 1,7,-1
 559 1586 l 1,0,-1
0 748 m 1,8,-1
 0 1307 l 1,9,-1
 93 1307 l 1,10,-1
 186 1307 l 1,11,-1
 186 748 l 1,12,-1
 186 190 l 1,13,-1
 93 190 l 1,14,-1
 0 190 l 1,15,-1
 0 748 l 1,8,-1
559 1493 m 1,16,-1
 559 1400 l 1,17,-1
 559 1307 l 1,18,-1
 466 1307 l 1,19,-1
 372 1307 l 1,20,-1
 372 1400 l 1,21,-1
 372 1493 l 1,22,-1
 466 1493 l 1,23,-1
 559 1493 l 1,16,-1
745 190 m 1,24,-1
 745 97 l 1,25,-1
 745 4 l 1,26,-1
 466 4 l 1,27,-1
 186 4 l 1,28,-1
 186 97 l 1,29,-1
 186 190 l 1,30,-1
 466 190 l 1,31,-1
 745 190 l 1,24,-1
745 190 m 1,32,-1
 745 748 l 1,33,-1
 745 1307 l 1,34,-1
 838 1307 l 1,35,-1
 931 1307 l 1,36,-1
 931 748 l 1,37,-1
 931 190 l 1,38,-1
 838 190 l 1,39,-1
 745 190 l 1,32,-1
EndSplineSet
EndChar

StartChar: LATIN
Encoding: 220 220 158
Width: 1117
Flags: W
LayerCount: 2
Fore
SplineSet
186 1586 m 1,0,-1
 186 1679 l 1,1,-1
 279 1679 l 1,2,-1
 372 1679 l 1,3,-1
 372 1586 l 1,4,-1
 372 1493 l 1,5,-1
 279 1493 l 1,6,-1
 186 1493 l 1,7,-1
 186 1586 l 1,0,-1
559 1586 m 1,8,-1
 559 1679 l 1,9,-1
 652 1679 l 1,10,-1
 745 1679 l 1,11,-1
 745 1586 l 1,12,-1
 745 1493 l 1,13,-1
 652 1493 l 1,14,-1
 559 1493 l 1,15,-1
 559 1586 l 1,8,-1
0 748 m 1,16,-1
 0 1307 l 1,17,-1
 93 1307 l 1,18,-1
 186 1307 l 1,19,-1
 186 748 l 1,20,-1
 186 190 l 1,21,-1
 93 190 l 1,22,-1
 0 190 l 1,23,-1
 0 748 l 1,16,-1
745 190 m 1,24,-1
 745 97 l 1,25,-1
 745 4 l 1,26,-1
 466 4 l 1,27,-1
 186 4 l 1,28,-1
 186 97 l 1,29,-1
 186 190 l 1,30,-1
 466 190 l 1,31,-1
 745 190 l 1,24,-1
745 190 m 1,32,-1
 745 748 l 1,33,-1
 745 1307 l 1,34,-1
 838 1307 l 1,35,-1
 931 1307 l 1,36,-1
 931 748 l 1,37,-1
 931 190 l 1,38,-1
 838 190 l 1,39,-1
 745 190 l 1,32,-1
EndSplineSet
EndChar

StartChar: LATIN
Encoding: 221 221 159
Width: 1117
Flags: W
LayerCount: 2
Fore
SplineSet
559 1586 m 1,0,-1
 559 1679 l 1,1,-1
 652 1679 l 1,2,-1
 745 1679 l 1,3,-1
 745 1586 l 1,4,-1
 745 1493 l 1,5,-1
 652 1493 l 1,6,-1
 559 1493 l 1,7,-1
 559 1586 l 1,0,-1
0 1028 m 1,8,-1
 0 1307 l 1,9,-1
 93 1307 l 1,10,-1
 186 1307 l 1,11,-1
 186 1028 l 1,12,-1
 186 748 l 1,13,-1
 93 748 l 1,14,-1
 0 748 l 1,15,-1
 0 1028 l 1,8,-1
559 1493 m 1,16,-1
 559 1400 l 1,17,-1
 559 1307 l 1,18,-1
 466 1307 l 1,19,-1
 372 1307 l 1,20,-1
 372 1400 l 1,21,-1
 372 1493 l 1,22,-1
 466 1493 l 1,23,-1
 559 1493 l 1,16,-1
745 748 m 1,24,-1
 745 655 l 1,25,-1
 745 562 l 1,26,-1
 652 562 l 1,27,-1
 559 562 l 1,28,-1
 559 283 l 1,29,-1
 559 4 l 1,30,-1
 466 4 l 1,31,-1
 372 4 l 1,32,-1
 372 283 l 1,33,-1
 372 562 l 1,34,-1
 279 562 l 1,35,-1
 186 562 l 1,36,-1
 186 655 l 1,37,-1
 186 748 l 1,38,-1
 279 748 l 1,39,-1
 372 748 l 1,40,-1
 372 655 l 1,41,-1
 372 562 l 1,42,-1
 466 562 l 1,43,-1
 559 562 l 1,44,-1
 559 655 l 1,45,-1
 559 748 l 1,46,-1
 652 748 l 1,47,-1
 745 748 l 1,24,-1
745 748 m 1,48,-1
 745 1028 l 1,49,-1
 745 1307 l 1,50,-1
 838 1307 l 1,51,-1
 931 1307 l 1,52,-1
 931 1028 l 1,53,-1
 931 748 l 1,54,-1
 838 748 l 1,55,-1
 745 748 l 1,48,-1
EndSplineSet
EndChar

StartChar: LATIN
Encoding: 222 222 160
Width: 1117
Flags: W
LayerCount: 2
Fore
SplineSet
0 655 m 1,0,-1
 0 1307 l 1,1,-1
 93 1307 l 1,2,-1
 186 1307 l 1,3,-1
 186 1214 l 1,4,-1
 186 1121 l 1,5,-1
 466 1121 l 1,6,-1
 745 1121 l 1,7,-1
 745 1028 l 1,8,-1
 745 935 l 1,9,-1
 466 935 l 1,10,-1
 186 935 l 1,11,-1
 186 748 l 1,12,-1
 186 562 l 1,13,-1
 466 562 l 1,14,-1
 745 562 l 1,15,-1
 745 748 l 1,16,-1
 745 935 l 1,17,-1
 838 935 l 1,18,-1
 931 935 l 1,19,-1
 931 748 l 1,20,-1
 931 562 l 1,21,-1
 838 562 l 1,22,-1
 745 562 l 1,23,-1
 745 469 l 1,24,-1
 745 376 l 1,25,-1
 466 376 l 1,26,-1
 186 376 l 1,27,-1
 186 190 l 1,28,-1
 186 4 l 1,29,-1
 93 4 l 1,30,-1
 0 4 l 1,31,-1
 0 655 l 1,0,-1
EndSplineSet
EndChar

StartChar: LATIN
Encoding: 223 223 161
Width: 1117
Flags: W
LayerCount: 2
Fore
SplineSet
372 1400 m 1,0,-1
 372 1493 l 1,1,-1
 559 1493 l 1,2,-1
 745 1493 l 1,3,-1
 745 1400 l 1,4,-1
 745 1307 l 1,5,-1
 559 1307 l 1,6,-1
 372 1307 l 1,7,-1
 372 1400 l 1,0,-1
186 1121 m 1,8,-1
 186 1214 l 1,9,-1
 186 1307 l 1,10,-1
 279 1307 l 1,11,-1
 372 1307 l 1,12,-1
 372 1214 l 1,13,-1
 372 1121 l 1,14,-1
 279 1121 l 1,15,-1
 186 1121 l 1,8,-1
186 1121 m 1,16,-1
 186 469 l 1,17,-1
 186 -182 l 1,18,-1
 93 -182 l 1,19,-1
 0 -182 l 1,20,-1
 0 469 l 1,21,-1
 0 1121 l 1,22,-1
 93 1121 l 1,23,-1
 186 1121 l 1,16,-1
745 190 m 1,24,-1
 745 376 l 1,25,-1
 745 562 l 1,26,-1
 652 562 l 1,27,-1
 559 562 l 1,28,-1
 559 748 l 1,29,-1
 559 934 l 1,30,-1
 652 934 l 1,31,-1
 745 934 l 1,32,-1
 745 1121 l 1,33,-1
 745 1307 l 1,34,-1
 838 1307 l 1,35,-1
 931 1307 l 1,36,-1
 931 1121 l 1,37,-1
 931 934 l 1,38,-1
 838 934 l 1,39,-1
 745 934 l 1,40,-1
 745 748 l 1,41,-1
 745 562 l 1,42,-1
 838 562 l 1,43,-1
 931 562 l 1,44,-1
 931 376 l 1,45,-1
 931 190 l 1,46,-1
 838 190 l 1,47,-1
 745 190 l 1,24,-1
745 190 m 1,48,-1
 745 96 l 1,49,-1
 745 3 l 1,50,-1
 559 3 l 1,51,-1
 372 3 l 1,52,-1
 372 96 l 1,53,-1
 372 190 l 1,54,-1
 559 190 l 1,55,-1
 745 190 l 1,48,-1
EndSplineSet
EndChar

StartChar: LATIN
Encoding: 224 224 162
Width: 1117
Flags: W
LayerCount: 2
Fore
SplineSet
372 1400 m 1,0,-1
 372 1493 l 1,1,-1
 466 1493 l 1,2,-1
 559 1493 l 1,3,-1
 559 1400 l 1,4,-1
 559 1307 l 1,5,-1
 466 1307 l 1,6,-1
 372 1307 l 1,7,-1
 372 1400 l 1,0,-1
745 283 m 1,8,-1
 745 376 l 1,9,-1
 466 376 l 1,10,-1
 186 376 l 1,11,-1
 186 283 l 1,12,-1
 186 190 l 1,13,-1
 466 190 l 1,14,-1
 745 190 l 1,15,-1
 745 283 l 1,8,-1
186 841 m 1,16,-1
 186 934 l 1,17,-1
 466 934 l 1,18,-1
 745 934 l 1,19,-1
 745 841 l 1,20,-1
 745 748 l 1,21,-1
 466 748 l 1,22,-1
 186 748 l 1,23,-1
 186 841 l 1,16,-1
559 1307 m 1,24,-1
 652 1307 l 1,25,-1
 745 1307 l 1,26,-1
 745 1214 l 1,27,-1
 745 1121 l 1,28,-1
 652 1121 l 1,29,-1
 559 1121 l 1,30,-1
 559 1214 l 1,31,-1
 559 1307 l 1,24,-1
186 376 m 1,32,-1
 186 469 l 1,33,-1
 186 562 l 1,34,-1
 466 562 l 1,35,-1
 745 562 l 1,36,-1
 745 655 l 1,37,-1
 745 748 l 1,38,-1
 838 748 l 1,39,-1
 931 748 l 1,40,-1
 931 376 l 1,41,-1
 931 4 l 1,42,-1
 559 4 l 1,43,-1
 186 4 l 1,44,-1
 186 97 l 1,45,-1
 186 190 l 1,46,-1
 93 190 l 1,47,-1
 0 190 l 1,48,-1
 0 283 l 1,49,-1
 0 376 l 1,50,-1
 93 376 l 1,51,-1
 186 376 l 1,32,-1
EndSplineSet
EndChar

StartChar: LATIN
Encoding: 225 225 163
Width: 1117
Flags: W
LayerCount: 2
Fore
SplineSet
559 1400 m 1,0,-1
 559 1493 l 1,1,-1
 652 1493 l 1,2,-1
 745 1493 l 1,3,-1
 745 1400 l 1,4,-1
 745 1307 l 1,5,-1
 652 1307 l 1,6,-1
 559 1307 l 1,7,-1
 559 1400 l 1,0,-1
745 283 m 1,8,-1
 745 376 l 1,9,-1
 466 376 l 1,10,-1
 186 376 l 1,11,-1
 186 283 l 1,12,-1
 186 190 l 1,13,-1
 466 190 l 1,14,-1
 745 190 l 1,15,-1
 745 283 l 1,8,-1
186 841 m 1,16,-1
 186 934 l 1,17,-1
 466 934 l 1,18,-1
 745 934 l 1,19,-1
 745 841 l 1,20,-1
 745 748 l 1,21,-1
 466 748 l 1,22,-1
 186 748 l 1,23,-1
 186 841 l 1,16,-1
559 1307 m 1,24,-1
 559 1214 l 1,25,-1
 559 1121 l 1,26,-1
 466 1121 l 1,27,-1
 372 1121 l 1,28,-1
 372 1214 l 1,29,-1
 372 1307 l 1,30,-1
 466 1307 l 1,31,-1
 559 1307 l 1,24,-1
186 376 m 1,32,-1
 186 469 l 1,33,-1
 186 562 l 1,34,-1
 466 562 l 1,35,-1
 745 562 l 1,36,-1
 745 655 l 1,37,-1
 745 748 l 1,38,-1
 838 748 l 1,39,-1
 931 748 l 1,40,-1
 931 376 l 1,41,-1
 931 4 l 1,42,-1
 559 4 l 1,43,-1
 186 4 l 1,44,-1
 186 97 l 1,45,-1
 186 190 l 1,46,-1
 93 190 l 1,47,-1
 0 190 l 1,48,-1
 0 283 l 1,49,-1
 0 376 l 1,50,-1
 93 376 l 1,51,-1
 186 376 l 1,32,-1
EndSplineSet
EndChar

StartChar: LATIN
Encoding: 226 226 164
Width: 1117
Flags: W
LayerCount: 2
Fore
SplineSet
372 1400 m 1,0,-1
 372 1493 l 1,1,-1
 466 1493 l 1,2,-1
 559 1493 l 1,3,-1
 559 1400 l 1,4,-1
 559 1307 l 1,5,-1
 466 1307 l 1,6,-1
 372 1307 l 1,7,-1
 372 1400 l 1,0,-1
745 283 m 1,8,-1
 745 376 l 1,9,-1
 466 376 l 1,10,-1
 186 376 l 1,11,-1
 186 283 l 1,12,-1
 186 190 l 1,13,-1
 466 190 l 1,14,-1
 745 190 l 1,15,-1
 745 283 l 1,8,-1
186 841 m 1,16,-1
 186 934 l 1,17,-1
 466 934 l 1,18,-1
 745 934 l 1,19,-1
 745 841 l 1,20,-1
 745 748 l 1,21,-1
 466 748 l 1,22,-1
 186 748 l 1,23,-1
 186 841 l 1,16,-1
372 1307 m 1,24,-1
 372 1214 l 1,25,-1
 372 1121 l 1,26,-1
 279 1121 l 1,27,-1
 186 1121 l 1,28,-1
 186 1214 l 1,29,-1
 186 1307 l 1,30,-1
 279 1307 l 1,31,-1
 372 1307 l 1,24,-1
559 1307 m 1,32,-1
 652 1307 l 1,33,-1
 745 1307 l 1,34,-1
 745 1214 l 1,35,-1
 745 1121 l 1,36,-1
 652 1121 l 1,37,-1
 559 1121 l 1,38,-1
 559 1214 l 1,39,-1
 559 1307 l 1,32,-1
186 376 m 1,40,-1
 186 469 l 1,41,-1
 186 562 l 1,42,-1
 466 562 l 1,43,-1
 745 562 l 1,44,-1
 745 655 l 1,45,-1
 745 748 l 1,46,-1
 838 748 l 1,47,-1
 931 748 l 1,48,-1
 931 376 l 1,49,-1
 931 4 l 1,50,-1
 559 4 l 1,51,-1
 186 4 l 1,52,-1
 186 97 l 1,53,-1
 186 190 l 1,54,-1
 93 190 l 1,55,-1
 0 190 l 1,56,-1
 0 283 l 1,57,-1
 0 376 l 1,58,-1
 93 376 l 1,59,-1
 186 376 l 1,40,-1
EndSplineSet
EndChar

StartChar: LATIN
Encoding: 227 227 165
Width: 1117
Flags: W
LayerCount: 2
Fore
SplineSet
186 1400 m 1,0,-1
 186 1493 l 1,1,-1
 373 1493 l 1,2,-1
 559 1493 l 1,3,-1
 559 1400 l 1,4,-1
 559 1307 l 1,5,-1
 652 1307 l 1,6,-1
 745 1307 l 1,7,-1
 745 1214 l 1,8,-1
 745 1121 l 1,9,-1
 559 1121 l 1,10,-1
 372 1121 l 1,11,-1
 372 1214 l 1,12,-1
 372 1307 l 1,13,-1
 279 1307 l 1,14,-1
 186 1307 l 1,15,-1
 186 1400 l 1,0,-1
745 283 m 1,16,-1
 745 376 l 1,17,-1
 466 376 l 1,18,-1
 186 376 l 1,19,-1
 186 283 l 1,20,-1
 186 190 l 1,21,-1
 466 190 l 1,22,-1
 745 190 l 1,23,-1
 745 283 l 1,16,-1
186 841 m 1,24,-1
 186 934 l 1,25,-1
 466 934 l 1,26,-1
 745 934 l 1,27,-1
 745 841 l 1,28,-1
 745 748 l 1,29,-1
 466 748 l 1,30,-1
 186 748 l 1,31,-1
 186 841 l 1,24,-1
186 1307 m 1,32,-1
 186 1214 l 1,33,-1
 186 1121 l 1,34,-1
 93 1121 l 1,35,-1
 0 1121 l 1,36,-1
 0 1214 l 1,37,-1
 0 1307 l 1,38,-1
 93 1307 l 1,39,-1
 186 1307 l 1,32,-1
745 1307 m 1,40,-1
 745 1400 l 1,41,-1
 745 1493 l 1,42,-1
 838 1493 l 1,43,-1
 931 1493 l 1,44,-1
 931 1400 l 1,45,-1
 931 1307 l 1,46,-1
 838 1307 l 1,47,-1
 745 1307 l 1,40,-1
186 376 m 1,48,-1
 186 469 l 1,49,-1
 186 562 l 1,50,-1
 466 562 l 1,51,-1
 745 562 l 1,52,-1
 745 655 l 1,53,-1
 745 748 l 1,54,-1
 838 748 l 1,55,-1
 931 748 l 1,56,-1
 931 376 l 1,57,-1
 931 4 l 1,58,-1
 559 4 l 1,59,-1
 186 4 l 1,60,-1
 186 97 l 1,61,-1
 186 190 l 1,62,-1
 93 190 l 1,63,-1
 0 190 l 1,64,-1
 0 283 l 1,65,-1
 0 376 l 1,66,-1
 93 376 l 1,67,-1
 186 376 l 1,48,-1
EndSplineSet
EndChar

StartChar: LATIN
Encoding: 228 228 166
Width: 1117
Flags: W
LayerCount: 2
Fore
SplineSet
186 1214 m 1,0,-1
 186 1307 l 1,1,-1
 279 1307 l 1,2,-1
 372 1307 l 1,3,-1
 372 1214 l 1,4,-1
 372 1121 l 1,5,-1
 279 1121 l 1,6,-1
 186 1121 l 1,7,-1
 186 1214 l 1,0,-1
559 1214 m 1,8,-1
 559 1307 l 1,9,-1
 652 1307 l 1,10,-1
 745 1307 l 1,11,-1
 745 1214 l 1,12,-1
 745 1121 l 1,13,-1
 652 1121 l 1,14,-1
 559 1121 l 1,15,-1
 559 1214 l 1,8,-1
745 283 m 1,16,-1
 745 376 l 1,17,-1
 466 376 l 1,18,-1
 186 376 l 1,19,-1
 186 283 l 1,20,-1
 186 190 l 1,21,-1
 466 190 l 1,22,-1
 745 190 l 1,23,-1
 745 283 l 1,16,-1
186 841 m 1,24,-1
 186 935 l 1,25,-1
 466 935 l 1,26,-1
 745 935 l 1,27,-1
 745 841 l 1,28,-1
 745 748 l 1,29,-1
 466 748 l 1,30,-1
 186 748 l 1,31,-1
 186 841 l 1,24,-1
186 376 m 1,32,-1
 186 469 l 1,33,-1
 186 562 l 1,34,-1
 466 562 l 1,35,-1
 745 562 l 1,36,-1
 745 655 l 1,37,-1
 745 748 l 1,38,-1
 838 748 l 1,39,-1
 931 748 l 1,40,-1
 931 376 l 1,41,-1
 931 4 l 1,42,-1
 559 4 l 1,43,-1
 186 4 l 1,44,-1
 186 97 l 1,45,-1
 186 190 l 1,46,-1
 93 190 l 1,47,-1
 0 190 l 1,48,-1
 0 283 l 1,49,-1
 0 376 l 1,50,-1
 93 376 l 1,51,-1
 186 376 l 1,32,-1
EndSplineSet
EndChar

StartChar: LATIN
Encoding: 229 229 167
Width: 1117
Flags: W
LayerCount: 2
Fore
SplineSet
745 283 m 1,0,-1
 745 376 l 1,1,-1
 466 376 l 1,2,-1
 186 376 l 1,3,-1
 186 283 l 1,4,-1
 186 190 l 1,5,-1
 466 190 l 1,6,-1
 745 190 l 1,7,-1
 745 283 l 1,0,-1
372 1400 m 1,8,-1
 372 1493 l 1,9,-1
 466 1493 l 1,10,-1
 559 1493 l 1,11,-1
 559 1400 l 1,12,-1
 559 1307 l 1,13,-1
 466 1307 l 1,14,-1
 372 1307 l 1,15,-1
 372 1214 l 1,16,-1
 372 1121 l 1,17,-1
 466 1121 l 1,18,-1
 559 1121 l 1,19,-1
 559 1214 l 1,20,-1
 559 1307 l 1,21,-1
 652 1307 l 1,22,-1
 745 1307 l 1,23,-1
 745 1214 l 1,24,-1
 745 1121 l 1,25,-1
 652 1121 l 1,26,-1
 559 1121 l 1,27,-1
 559 1028 l 1,28,-1
 559 934 l 1,29,-1
 652 934 l 1,30,-1
 745 934 l 1,31,-1
 745 841 l 1,32,-1
 745 748 l 1,33,-1
 466 748 l 1,34,-1
 186 748 l 1,35,-1
 186 841 l 1,36,-1
 186 934 l 1,37,-1
 279 934 l 1,38,-1
 372 934 l 1,39,-1
 372 1028 l 1,40,-1
 372 1121 l 1,41,-1
 279 1121 l 1,42,-1
 186 1121 l 1,43,-1
 186 1214 l 1,44,-1
 186 1307 l 1,45,-1
 279 1307 l 1,46,-1
 372 1307 l 1,47,-1
 372 1400 l 1,8,-1
186 376 m 1,48,-1
 186 469 l 1,49,-1
 186 562 l 1,50,-1
 466 562 l 1,51,-1
 745 562 l 1,52,-1
 745 655 l 1,53,-1
 745 748 l 1,54,-1
 838 748 l 1,55,-1
 931 748 l 1,56,-1
 931 376 l 1,57,-1
 931 4 l 1,58,-1
 559 4 l 1,59,-1
 186 4 l 1,60,-1
 186 97 l 1,61,-1
 186 190 l 1,62,-1
 93 190 l 1,63,-1
 0 190 l 1,64,-1
 0 283 l 1,65,-1
 0 376 l 1,66,-1
 93 376 l 1,67,-1
 186 376 l 1,48,-1
EndSplineSet
EndChar

StartChar: LATIN
Encoding: 230 230 168
Width: 1117
Flags: W
LayerCount: 2
Fore
SplineSet
372 469 m 1,0,-1
 372 748 l 1,1,-1
 279 748 l 1,2,-1
 186 748 l 1,3,-1
 186 469 l 1,4,-1
 186 190 l 1,5,-1
 279 190 l 1,6,-1
 372 190 l 1,7,-1
 372 469 l 1,0,-1
186 842 m 1,8,-1
 186 935 l 1,9,-1
 466 935 l 1,10,-1
 745 935 l 1,11,-1
 745 842 l 1,12,-1
 745 748 l 1,13,-1
 652 748 l 1,14,-1
 559 748 l 1,15,-1
 559 655 l 1,16,-1
 559 562 l 1,17,-1
 652 562 l 1,18,-1
 745 562 l 1,19,-1
 745 655 l 1,20,-1
 745 748 l 1,21,-1
 838 748 l 1,22,-1
 931 748 l 1,23,-1
 931 562 l 1,24,-1
 931 376 l 1,25,-1
 745 376 l 1,26,-1
 559 376 l 1,27,-1
 559 283 l 1,28,-1
 559 190 l 1,29,-1
 745 190 l 1,30,-1
 931 190 l 1,31,-1
 931 97 l 1,32,-1
 931 4 l 1,33,-1
 559 4 l 1,34,-1
 186 4 l 1,35,-1
 186 97 l 1,36,-1
 186 190 l 1,37,-1
 93 190 l 1,38,-1
 0 190 l 1,39,-1
 0 469 l 1,40,-1
 0 748 l 1,41,-1
 93 748 l 1,42,-1
 186 748 l 1,43,-1
 186 842 l 1,8,-1
EndSplineSet
EndChar

StartChar: LATIN
Encoding: 231 231 169
Width: 1117
Flags: W
LayerCount: 2
Fore
SplineSet
186 842 m 1,0,-1
 186 935 l 1,1,-1
 559 935 l 1,2,-1
 931 935 l 1,3,-1
 931 842 l 1,4,-1
 931 748 l 1,5,-1
 559 748 l 1,6,-1
 186 748 l 1,7,-1
 186 842 l 1,0,-1
372 -183 m 1,8,-1
 372 -90 l 1,9,-1
 372 3 l 1,10,-1
 279 3 l 1,11,-1
 186 3 l 1,12,-1
 186 96 l 1,13,-1
 186 190 l 1,14,-1
 93 190 l 1,15,-1
 0 190 l 1,16,-1
 0 469 l 1,17,-1
 0 748 l 1,18,-1
 93 748 l 1,19,-1
 186 748 l 1,20,-1
 186 469 l 1,21,-1
 186 190 l 1,22,-1
 559 190 l 1,23,-1
 931 190 l 1,24,-1
 931 96 l 1,25,-1
 931 3 l 1,26,-1
 745 3 l 1,27,-1
 559 3 l 1,28,-1
 559 -90 l 1,29,-1
 559 -183 l 1,30,-1
 466 -183 l 1,31,-1
 372 -183 l 1,8,-1
372 -183 m 1,32,-1
 372 -276 l 1,33,-1
 372 -369 l 1,34,-1
 279 -369 l 1,35,-1
 186 -369 l 1,36,-1
 186 -276 l 1,37,-1
 186 -183 l 1,38,-1
 279 -183 l 1,39,-1
 372 -183 l 1,32,-1
EndSplineSet
EndChar

StartChar: LATIN
Encoding: 232 232 170
Width: 1117
Flags: W
LayerCount: 2
Fore
SplineSet
186 1400 m 1,0,-1
 186 1493 l 1,1,-1
 279 1493 l 1,2,-1
 372 1493 l 1,3,-1
 372 1400 l 1,4,-1
 372 1307 l 1,5,-1
 279 1307 l 1,6,-1
 186 1307 l 1,7,-1
 186 1400 l 1,0,-1
186 841 m 1,8,-1
 186 934 l 1,9,-1
 466 934 l 1,10,-1
 745 934 l 1,11,-1
 745 841 l 1,12,-1
 745 748 l 1,13,-1
 466 748 l 1,14,-1
 186 748 l 1,15,-1
 186 655 l 1,16,-1
 186 562 l 1,17,-1
 466 562 l 1,18,-1
 745 562 l 1,19,-1
 745 655 l 1,20,-1
 745 748 l 1,21,-1
 838 748 l 1,22,-1
 931 748 l 1,23,-1
 931 562 l 1,24,-1
 931 376 l 1,25,-1
 559 376 l 1,26,-1
 186 376 l 1,27,-1
 186 283 l 1,28,-1
 186 190 l 1,29,-1
 93 190 l 1,30,-1
 0 190 l 1,31,-1
 0 469 l 1,32,-1
 0 748 l 1,33,-1
 93 748 l 1,34,-1
 186 748 l 1,35,-1
 186 841 l 1,8,-1
372 1307 m 1,36,-1
 466 1307 l 1,37,-1
 559 1307 l 1,38,-1
 559 1214 l 1,39,-1
 559 1121 l 1,40,-1
 466 1121 l 1,41,-1
 372 1121 l 1,42,-1
 372 1214 l 1,43,-1
 372 1307 l 1,36,-1
186 190 m 1,44,-1
 559 190 l 1,45,-1
 931 190 l 1,46,-1
 931 97 l 1,47,-1
 931 4 l 1,48,-1
 559 4 l 1,49,-1
 186 4 l 1,50,-1
 186 97 l 1,51,-1
 186 190 l 1,44,-1
EndSplineSet
EndChar

StartChar: LATIN
Encoding: 233 233 171
Width: 1117
Flags: W
LayerCount: 2
Fore
SplineSet
559 1400 m 1,0,-1
 559 1493 l 1,1,-1
 652 1493 l 1,2,-1
 745 1493 l 1,3,-1
 745 1400 l 1,4,-1
 745 1307 l 1,5,-1
 652 1307 l 1,6,-1
 559 1307 l 1,7,-1
 559 1400 l 1,0,-1
186 841 m 1,8,-1
 186 934 l 1,9,-1
 466 934 l 1,10,-1
 745 934 l 1,11,-1
 745 841 l 1,12,-1
 745 748 l 1,13,-1
 466 748 l 1,14,-1
 186 748 l 1,15,-1
 186 655 l 1,16,-1
 186 562 l 1,17,-1
 466 562 l 1,18,-1
 745 562 l 1,19,-1
 745 655 l 1,20,-1
 745 748 l 1,21,-1
 838 748 l 1,22,-1
 931 748 l 1,23,-1
 931 562 l 1,24,-1
 931 376 l 1,25,-1
 559 376 l 1,26,-1
 186 376 l 1,27,-1
 186 283 l 1,28,-1
 186 190 l 1,29,-1
 93 190 l 1,30,-1
 0 190 l 1,31,-1
 0 469 l 1,32,-1
 0 748 l 1,33,-1
 93 748 l 1,34,-1
 186 748 l 1,35,-1
 186 841 l 1,8,-1
559 1307 m 1,36,-1
 559 1214 l 1,37,-1
 559 1121 l 1,38,-1
 466 1121 l 1,39,-1
 372 1121 l 1,40,-1
 372 1214 l 1,41,-1
 372 1307 l 1,42,-1
 466 1307 l 1,43,-1
 559 1307 l 1,36,-1
186 190 m 1,44,-1
 559 190 l 1,45,-1
 931 190 l 1,46,-1
 931 97 l 1,47,-1
 931 4 l 1,48,-1
 559 4 l 1,49,-1
 186 4 l 1,50,-1
 186 97 l 1,51,-1
 186 190 l 1,44,-1
EndSplineSet
EndChar

StartChar: LATIN
Encoding: 234 234 172
Width: 1117
Flags: W
LayerCount: 2
Fore
SplineSet
372 1400 m 1,0,-1
 372 1493 l 1,1,-1
 466 1493 l 1,2,-1
 559 1493 l 1,3,-1
 559 1400 l 1,4,-1
 559 1307 l 1,5,-1
 466 1307 l 1,6,-1
 372 1307 l 1,7,-1
 372 1400 l 1,0,-1
186 841 m 1,8,-1
 186 934 l 1,9,-1
 466 934 l 1,10,-1
 745 934 l 1,11,-1
 745 841 l 1,12,-1
 745 748 l 1,13,-1
 466 748 l 1,14,-1
 186 748 l 1,15,-1
 186 655 l 1,16,-1
 186 562 l 1,17,-1
 466 562 l 1,18,-1
 745 562 l 1,19,-1
 745 655 l 1,20,-1
 745 748 l 1,21,-1
 838 748 l 1,22,-1
 931 748 l 1,23,-1
 931 562 l 1,24,-1
 931 376 l 1,25,-1
 559 376 l 1,26,-1
 186 376 l 1,27,-1
 186 283 l 1,28,-1
 186 190 l 1,29,-1
 93 190 l 1,30,-1
 0 190 l 1,31,-1
 0 469 l 1,32,-1
 0 748 l 1,33,-1
 93 748 l 1,34,-1
 186 748 l 1,35,-1
 186 841 l 1,8,-1
372 1307 m 1,36,-1
 372 1214 l 1,37,-1
 372 1121 l 1,38,-1
 279 1121 l 1,39,-1
 186 1121 l 1,40,-1
 186 1214 l 1,41,-1
 186 1307 l 1,42,-1
 279 1307 l 1,43,-1
 372 1307 l 1,36,-1
559 1307 m 1,44,-1
 652 1307 l 1,45,-1
 745 1307 l 1,46,-1
 745 1214 l 1,47,-1
 745 1121 l 1,48,-1
 652 1121 l 1,49,-1
 559 1121 l 1,50,-1
 559 1214 l 1,51,-1
 559 1307 l 1,44,-1
186 190 m 1,52,-1
 559 190 l 1,53,-1
 931 190 l 1,54,-1
 931 97 l 1,55,-1
 931 4 l 1,56,-1
 559 4 l 1,57,-1
 186 4 l 1,58,-1
 186 97 l 1,59,-1
 186 190 l 1,52,-1
EndSplineSet
EndChar

StartChar: LATIN
Encoding: 235 235 173
Width: 1117
Flags: W
LayerCount: 2
Fore
SplineSet
186 1214 m 1,0,-1
 186 1307 l 1,1,-1
 279 1307 l 1,2,-1
 372 1307 l 1,3,-1
 372 1214 l 1,4,-1
 372 1121 l 1,5,-1
 279 1121 l 1,6,-1
 186 1121 l 1,7,-1
 186 1214 l 1,0,-1
559 1214 m 1,8,-1
 559 1307 l 1,9,-1
 652 1307 l 1,10,-1
 745 1307 l 1,11,-1
 745 1214 l 1,12,-1
 745 1121 l 1,13,-1
 652 1121 l 1,14,-1
 559 1121 l 1,15,-1
 559 1214 l 1,8,-1
186 841 m 1,16,-1
 186 935 l 1,17,-1
 466 935 l 1,18,-1
 745 935 l 1,19,-1
 745 841 l 1,20,-1
 745 748 l 1,21,-1
 466 748 l 1,22,-1
 186 748 l 1,23,-1
 186 655 l 1,24,-1
 186 562 l 1,25,-1
 466 562 l 1,26,-1
 745 562 l 1,27,-1
 745 655 l 1,28,-1
 745 748 l 1,29,-1
 838 748 l 1,30,-1
 931 748 l 1,31,-1
 931 562 l 1,32,-1
 931 376 l 1,33,-1
 559 376 l 1,34,-1
 186 376 l 1,35,-1
 186 283 l 1,36,-1
 186 190 l 1,37,-1
 93 190 l 1,38,-1
 0 190 l 1,39,-1
 0 469 l 1,40,-1
 0 748 l 1,41,-1
 93 748 l 1,42,-1
 186 748 l 1,43,-1
 186 841 l 1,16,-1
186 190 m 1,44,-1
 559 190 l 1,45,-1
 931 190 l 1,46,-1
 931 97 l 1,47,-1
 931 4 l 1,48,-1
 559 4 l 1,49,-1
 186 4 l 1,50,-1
 186 97 l 1,51,-1
 186 190 l 1,44,-1
EndSplineSet
EndChar

StartChar: LATIN
Encoding: 236 236 174
Width: 1117
Flags: W
LayerCount: 2
Fore
SplineSet
372 1400 m 1,0,-1
 372 1493 l 1,1,-1
 465 1493 l 1,2,-1
 559 1493 l 1,3,-1
 559 1400 l 1,4,-1
 559 1307 l 1,5,-1
 465 1307 l 1,6,-1
 372 1307 l 1,7,-1
 372 1400 l 1,0,-1
372 469 m 1,8,-1
 372 934 l 1,9,-1
 465 934 l 1,10,-1
 559 934 l 1,11,-1
 559 469 l 1,12,-1
 559 4 l 1,13,-1
 465 4 l 1,14,-1
 372 4 l 1,15,-1
 372 469 l 1,8,-1
559 1307 m 1,16,-1
 652 1307 l 1,17,-1
 745 1307 l 1,18,-1
 745 1214 l 1,19,-1
 745 1121 l 1,20,-1
 652 1121 l 1,21,-1
 559 1121 l 1,22,-1
 559 1214 l 1,23,-1
 559 1307 l 1,16,-1
EndSplineSet
EndChar

StartChar: LATIN
Encoding: 237 237 175
Width: 1117
Flags: W
LayerCount: 2
Fore
SplineSet
372 1400 m 1,0,-1
 372 1493 l 1,1,-1
 465 1493 l 1,2,-1
 559 1493 l 1,3,-1
 559 1400 l 1,4,-1
 559 1307 l 1,5,-1
 465 1307 l 1,6,-1
 372 1307 l 1,7,-1
 372 1400 l 1,0,-1
372 469 m 1,8,-1
 372 934 l 1,9,-1
 465 934 l 1,10,-1
 559 934 l 1,11,-1
 559 469 l 1,12,-1
 559 4 l 1,13,-1
 465 4 l 1,14,-1
 372 4 l 1,15,-1
 372 469 l 1,8,-1
372 1307 m 1,16,-1
 372 1214 l 1,17,-1
 372 1121 l 1,18,-1
 279 1121 l 1,19,-1
 186 1121 l 1,20,-1
 186 1214 l 1,21,-1
 186 1307 l 1,22,-1
 279 1307 l 1,23,-1
 372 1307 l 1,16,-1
EndSplineSet
EndChar

StartChar: LATIN
Encoding: 238 238 176
Width: 1117
Flags: W
LayerCount: 2
Fore
SplineSet
372 1400 m 1,0,-1
 372 1493 l 1,1,-1
 465 1493 l 1,2,-1
 559 1493 l 1,3,-1
 559 1400 l 1,4,-1
 559 1307 l 1,5,-1
 465 1307 l 1,6,-1
 372 1307 l 1,7,-1
 372 1400 l 1,0,-1
372 469 m 1,8,-1
 372 934 l 1,9,-1
 465 934 l 1,10,-1
 559 934 l 1,11,-1
 559 469 l 1,12,-1
 559 4 l 1,13,-1
 465 4 l 1,14,-1
 372 4 l 1,15,-1
 372 469 l 1,8,-1
372 1307 m 1,16,-1
 372 1214 l 1,17,-1
 372 1121 l 1,18,-1
 279 1121 l 1,19,-1
 186 1121 l 1,20,-1
 186 1214 l 1,21,-1
 186 1307 l 1,22,-1
 279 1307 l 1,23,-1
 372 1307 l 1,16,-1
559 1307 m 1,24,-1
 652 1307 l 1,25,-1
 745 1307 l 1,26,-1
 745 1214 l 1,27,-1
 745 1121 l 1,28,-1
 652 1121 l 1,29,-1
 559 1121 l 1,30,-1
 559 1214 l 1,31,-1
 559 1307 l 1,24,-1
EndSplineSet
EndChar

StartChar: LATIN
Encoding: 239 239 177
Width: 1117
Flags: W
LayerCount: 2
Fore
SplineSet
186 1214 m 1,0,-1
 186 1307 l 1,1,-1
 279 1307 l 1,2,-1
 372 1307 l 1,3,-1
 372 1214 l 1,4,-1
 372 1121 l 1,5,-1
 279 1121 l 1,6,-1
 186 1121 l 1,7,-1
 186 1214 l 1,0,-1
559 1214 m 1,8,-1
 559 1307 l 1,9,-1
 652 1307 l 1,10,-1
 745 1307 l 1,11,-1
 745 1214 l 1,12,-1
 745 1121 l 1,13,-1
 652 1121 l 1,14,-1
 559 1121 l 1,15,-1
 559 1214 l 1,8,-1
372 469 m 1,16,-1
 372 935 l 1,17,-1
 465 935 l 1,18,-1
 559 935 l 1,19,-1
 559 469 l 1,20,-1
 559 4 l 1,21,-1
 465 4 l 1,22,-1
 372 4 l 1,23,-1
 372 469 l 1,16,-1
EndSplineSet
EndChar

StartChar: LATIN
Encoding: 240 240 178
Width: 1117
Flags: W
LayerCount: 2
Fore
SplineSet
745 469 m 1,0,-1
 745 748 l 1,1,-1
 466 748 l 1,2,-1
 186 748 l 1,3,-1
 186 469 l 1,4,-1
 186 190 l 1,5,-1
 466 190 l 1,6,-1
 745 190 l 1,7,-1
 745 469 l 1,0,-1
186 1307 m 1,8,-1
 186 1493 l 1,9,-1
 373 1493 l 1,10,-1
 559 1493 l 1,11,-1
 559 1307 l 1,12,-1
 559 1121 l 1,13,-1
 373 1121 l 1,14,-1
 186 1121 l 1,15,-1
 186 1307 l 1,8,-1
186 748 m 1,16,-1
 186 841 l 1,17,-1
 186 934 l 1,18,-1
 373 934 l 1,19,-1
 559 934 l 1,20,-1
 559 1028 l 1,21,-1
 559 1121 l 1,22,-1
 652 1121 l 1,23,-1
 745 1121 l 1,24,-1
 745 1028 l 1,25,-1
 745 934 l 1,26,-1
 838 934 l 1,27,-1
 931 934 l 1,28,-1
 931 562 l 1,29,-1
 931 190 l 1,30,-1
 838 190 l 1,31,-1
 745 190 l 1,32,-1
 745 97 l 1,33,-1
 745 4 l 1,34,-1
 466 4 l 1,35,-1
 186 4 l 1,36,-1
 186 97 l 1,37,-1
 186 190 l 1,38,-1
 93 190 l 1,39,-1
 0 190 l 1,40,-1
 0 469 l 1,41,-1
 0 748 l 1,42,-1
 93 748 l 1,43,-1
 186 748 l 1,16,-1
EndSplineSet
EndChar

StartChar: LATIN
Encoding: 241 241 179
Width: 1117
Flags: W
LayerCount: 2
Fore
SplineSet
186 1400 m 1,0,-1
 186 1493 l 1,1,-1
 279 1493 l 1,2,-1
 372 1493 l 1,3,-1
 372 1400 l 1,4,-1
 372 1307 l 1,5,-1
 279 1307 l 1,6,-1
 186 1307 l 1,7,-1
 186 1400 l 1,0,-1
0 469 m 1,8,-1
 0 934 l 1,9,-1
 373 934 l 1,10,-1
 745 934 l 1,11,-1
 745 841 l 1,12,-1
 745 748 l 1,13,-1
 466 748 l 1,14,-1
 186 748 l 1,15,-1
 186 376 l 1,16,-1
 186 4 l 1,17,-1
 93 4 l 1,18,-1
 0 4 l 1,19,-1
 0 469 l 1,8,-1
186 1307 m 1,20,-1
 186 1214 l 1,21,-1
 186 1121 l 1,22,-1
 93 1121 l 1,23,-1
 0 1121 l 1,24,-1
 0 1214 l 1,25,-1
 0 1307 l 1,26,-1
 93 1307 l 1,27,-1
 186 1307 l 1,20,-1
559 1307 m 1,28,-1
 559 1214 l 1,29,-1
 559 1121 l 1,30,-1
 466 1121 l 1,31,-1
 372 1121 l 1,32,-1
 372 1214 l 1,33,-1
 372 1307 l 1,34,-1
 466 1307 l 1,35,-1
 559 1307 l 1,28,-1
559 1307 m 1,36,-1
 559 1400 l 1,37,-1
 559 1493 l 1,38,-1
 652 1493 l 1,39,-1
 745 1493 l 1,40,-1
 745 1400 l 1,41,-1
 745 1307 l 1,42,-1
 652 1307 l 1,43,-1
 559 1307 l 1,36,-1
745 748 m 1,44,-1
 838 748 l 1,45,-1
 931 748 l 1,46,-1
 931 376 l 1,47,-1
 931 4 l 1,48,-1
 838 4 l 1,49,-1
 745 4 l 1,50,-1
 745 376 l 1,51,-1
 745 748 l 1,44,-1
EndSplineSet
EndChar

StartChar: LATIN
Encoding: 242 242 180
Width: 1117
Flags: W
LayerCount: 2
Fore
SplineSet
186 1400 m 1,0,-1
 186 1493 l 1,1,-1
 279 1493 l 1,2,-1
 372 1493 l 1,3,-1
 372 1400 l 1,4,-1
 372 1307 l 1,5,-1
 279 1307 l 1,6,-1
 186 1307 l 1,7,-1
 186 1400 l 1,0,-1
186 841 m 1,8,-1
 186 934 l 1,9,-1
 466 934 l 1,10,-1
 745 934 l 1,11,-1
 745 841 l 1,12,-1
 745 748 l 1,13,-1
 466 748 l 1,14,-1
 186 748 l 1,15,-1
 186 469 l 1,16,-1
 186 190 l 1,17,-1
 466 190 l 1,18,-1
 745 190 l 1,19,-1
 745 469 l 1,20,-1
 745 748 l 1,21,-1
 838 748 l 1,22,-1
 931 748 l 1,23,-1
 931 469 l 1,24,-1
 931 190 l 1,25,-1
 838 190 l 1,26,-1
 745 190 l 1,27,-1
 745 97 l 1,28,-1
 745 4 l 1,29,-1
 466 4 l 1,30,-1
 186 4 l 1,31,-1
 186 97 l 1,32,-1
 186 190 l 1,33,-1
 93 190 l 1,34,-1
 0 190 l 1,35,-1
 0 469 l 1,36,-1
 0 748 l 1,37,-1
 93 748 l 1,38,-1
 186 748 l 1,39,-1
 186 841 l 1,8,-1
372 1307 m 1,40,-1
 466 1307 l 1,41,-1
 559 1307 l 1,42,-1
 559 1214 l 1,43,-1
 559 1121 l 1,44,-1
 466 1121 l 1,45,-1
 372 1121 l 1,46,-1
 372 1214 l 1,47,-1
 372 1307 l 1,40,-1
EndSplineSet
EndChar

StartChar: LATIN
Encoding: 243 243 181
Width: 1117
Flags: W
LayerCount: 2
Fore
SplineSet
559 1400 m 1,0,-1
 559 1493 l 1,1,-1
 652 1493 l 1,2,-1
 745 1493 l 1,3,-1
 745 1400 l 1,4,-1
 745 1307 l 1,5,-1
 652 1307 l 1,6,-1
 559 1307 l 1,7,-1
 559 1400 l 1,0,-1
186 841 m 1,8,-1
 186 934 l 1,9,-1
 466 934 l 1,10,-1
 745 934 l 1,11,-1
 745 841 l 1,12,-1
 745 748 l 1,13,-1
 466 748 l 1,14,-1
 186 748 l 1,15,-1
 186 469 l 1,16,-1
 186 190 l 1,17,-1
 466 190 l 1,18,-1
 745 190 l 1,19,-1
 745 469 l 1,20,-1
 745 748 l 1,21,-1
 838 748 l 1,22,-1
 931 748 l 1,23,-1
 931 469 l 1,24,-1
 931 190 l 1,25,-1
 838 190 l 1,26,-1
 745 190 l 1,27,-1
 745 97 l 1,28,-1
 745 4 l 1,29,-1
 466 4 l 1,30,-1
 186 4 l 1,31,-1
 186 97 l 1,32,-1
 186 190 l 1,33,-1
 93 190 l 1,34,-1
 0 190 l 1,35,-1
 0 469 l 1,36,-1
 0 748 l 1,37,-1
 93 748 l 1,38,-1
 186 748 l 1,39,-1
 186 841 l 1,8,-1
559 1307 m 1,40,-1
 559 1214 l 1,41,-1
 559 1121 l 1,42,-1
 466 1121 l 1,43,-1
 372 1121 l 1,44,-1
 372 1214 l 1,45,-1
 372 1307 l 1,46,-1
 466 1307 l 1,47,-1
 559 1307 l 1,40,-1
EndSplineSet
EndChar

StartChar: LATIN
Encoding: 244 244 182
Width: 1117
Flags: W
LayerCount: 2
Fore
SplineSet
372 1400 m 1,0,-1
 372 1493 l 1,1,-1
 466 1493 l 1,2,-1
 559 1493 l 1,3,-1
 559 1400 l 1,4,-1
 559 1307 l 1,5,-1
 466 1307 l 1,6,-1
 372 1307 l 1,7,-1
 372 1400 l 1,0,-1
186 841 m 1,8,-1
 186 934 l 1,9,-1
 466 934 l 1,10,-1
 745 934 l 1,11,-1
 745 841 l 1,12,-1
 745 748 l 1,13,-1
 466 748 l 1,14,-1
 186 748 l 1,15,-1
 186 469 l 1,16,-1
 186 190 l 1,17,-1
 466 190 l 1,18,-1
 745 190 l 1,19,-1
 745 469 l 1,20,-1
 745 748 l 1,21,-1
 838 748 l 1,22,-1
 931 748 l 1,23,-1
 931 469 l 1,24,-1
 931 190 l 1,25,-1
 838 190 l 1,26,-1
 745 190 l 1,27,-1
 745 97 l 1,28,-1
 745 4 l 1,29,-1
 466 4 l 1,30,-1
 186 4 l 1,31,-1
 186 97 l 1,32,-1
 186 190 l 1,33,-1
 93 190 l 1,34,-1
 0 190 l 1,35,-1
 0 469 l 1,36,-1
 0 748 l 1,37,-1
 93 748 l 1,38,-1
 186 748 l 1,39,-1
 186 841 l 1,8,-1
372 1307 m 1,40,-1
 372 1214 l 1,41,-1
 372 1121 l 1,42,-1
 279 1121 l 1,43,-1
 186 1121 l 1,44,-1
 186 1214 l 1,45,-1
 186 1307 l 1,46,-1
 279 1307 l 1,47,-1
 372 1307 l 1,40,-1
559 1307 m 1,48,-1
 652 1307 l 1,49,-1
 745 1307 l 1,50,-1
 745 1214 l 1,51,-1
 745 1121 l 1,52,-1
 652 1121 l 1,53,-1
 559 1121 l 1,54,-1
 559 1214 l 1,55,-1
 559 1307 l 1,48,-1
EndSplineSet
EndChar

StartChar: LATIN
Encoding: 245 245 183
Width: 1117
Flags: W
LayerCount: 2
Fore
SplineSet
186 1400 m 1,0,-1
 186 1493 l 1,1,-1
 279 1493 l 1,2,-1
 372 1493 l 1,3,-1
 372 1400 l 1,4,-1
 372 1307 l 1,5,-1
 279 1307 l 1,6,-1
 186 1307 l 1,7,-1
 186 1400 l 1,0,-1
186 841 m 1,8,-1
 186 934 l 1,9,-1
 466 934 l 1,10,-1
 745 934 l 1,11,-1
 745 841 l 1,12,-1
 745 748 l 1,13,-1
 466 748 l 1,14,-1
 186 748 l 1,15,-1
 186 469 l 1,16,-1
 186 190 l 1,17,-1
 466 190 l 1,18,-1
 745 190 l 1,19,-1
 745 469 l 1,20,-1
 745 748 l 1,21,-1
 838 748 l 1,22,-1
 931 748 l 1,23,-1
 931 469 l 1,24,-1
 931 190 l 1,25,-1
 838 190 l 1,26,-1
 745 190 l 1,27,-1
 745 97 l 1,28,-1
 745 4 l 1,29,-1
 466 4 l 1,30,-1
 186 4 l 1,31,-1
 186 97 l 1,32,-1
 186 190 l 1,33,-1
 93 190 l 1,34,-1
 0 190 l 1,35,-1
 0 469 l 1,36,-1
 0 748 l 1,37,-1
 93 748 l 1,38,-1
 186 748 l 1,39,-1
 186 841 l 1,8,-1
186 1307 m 1,40,-1
 186 1214 l 1,41,-1
 186 1121 l 1,42,-1
 93 1121 l 1,43,-1
 0 1121 l 1,44,-1
 0 1214 l 1,45,-1
 0 1307 l 1,46,-1
 93 1307 l 1,47,-1
 186 1307 l 1,40,-1
559 1307 m 1,48,-1
 559 1214 l 1,49,-1
 559 1121 l 1,50,-1
 466 1121 l 1,51,-1
 372 1121 l 1,52,-1
 372 1214 l 1,53,-1
 372 1307 l 1,54,-1
 466 1307 l 1,55,-1
 559 1307 l 1,48,-1
559 1307 m 1,56,-1
 559 1400 l 1,57,-1
 559 1493 l 1,58,-1
 652 1493 l 1,59,-1
 745 1493 l 1,60,-1
 745 1400 l 1,61,-1
 745 1307 l 1,62,-1
 652 1307 l 1,63,-1
 559 1307 l 1,56,-1
EndSplineSet
EndChar

StartChar: LATIN
Encoding: 246 246 184
Width: 1117
Flags: W
LayerCount: 2
Fore
SplineSet
186 1214 m 1,0,-1
 186 1307 l 1,1,-1
 279 1307 l 1,2,-1
 372 1307 l 1,3,-1
 372 1214 l 1,4,-1
 372 1121 l 1,5,-1
 279 1121 l 1,6,-1
 186 1121 l 1,7,-1
 186 1214 l 1,0,-1
559 1214 m 1,8,-1
 559 1307 l 1,9,-1
 652 1307 l 1,10,-1
 745 1307 l 1,11,-1
 745 1214 l 1,12,-1
 745 1121 l 1,13,-1
 652 1121 l 1,14,-1
 559 1121 l 1,15,-1
 559 1214 l 1,8,-1
186 841 m 1,16,-1
 186 935 l 1,17,-1
 466 935 l 1,18,-1
 745 935 l 1,19,-1
 745 841 l 1,20,-1
 745 748 l 1,21,-1
 466 748 l 1,22,-1
 186 748 l 1,23,-1
 186 469 l 1,24,-1
 186 190 l 1,25,-1
 466 190 l 1,26,-1
 745 190 l 1,27,-1
 745 469 l 1,28,-1
 745 748 l 1,29,-1
 838 748 l 1,30,-1
 931 748 l 1,31,-1
 931 469 l 1,32,-1
 931 190 l 1,33,-1
 838 190 l 1,34,-1
 745 190 l 1,35,-1
 745 97 l 1,36,-1
 745 4 l 1,37,-1
 466 4 l 1,38,-1
 186 4 l 1,39,-1
 186 97 l 1,40,-1
 186 190 l 1,41,-1
 93 190 l 1,42,-1
 0 190 l 1,43,-1
 0 469 l 1,44,-1
 0 748 l 1,45,-1
 93 748 l 1,46,-1
 186 748 l 1,47,-1
 186 841 l 1,16,-1
EndSplineSet
EndChar

StartChar: DIVISION
Encoding: 247 247 185
Width: 1117
Flags: W
LayerCount: 2
Fore
SplineSet
372 1028 m 1,0,-1
 372 1121 l 1,1,-1
 466 1121 l 1,2,-1
 559 1121 l 1,3,-1
 559 1028 l 1,4,-1
 559 935 l 1,5,-1
 466 935 l 1,6,-1
 372 935 l 1,7,-1
 372 1028 l 1,0,-1
0 655 m 1,8,-1
 0 748 l 1,9,-1
 465 748 l 1,10,-1
 931 748 l 1,11,-1
 931 655 l 1,12,-1
 931 562 l 1,13,-1
 465 562 l 1,14,-1
 0 562 l 1,15,-1
 0 655 l 1,8,-1
372 283 m 1,16,-1
 372 376 l 1,17,-1
 466 376 l 1,18,-1
 559 376 l 1,19,-1
 559 283 l 1,20,-1
 559 190 l 1,21,-1
 466 190 l 1,22,-1
 372 190 l 1,23,-1
 372 283 l 1,16,-1
EndSplineSet
EndChar

StartChar: LATIN
Encoding: 248 248 186
Width: 1117
Flags: W
LayerCount: 2
Fore
SplineSet
559 655 m 1,0,-1
 559 748 l 1,1,-1
 373 748 l 1,2,-1
 186 748 l 1,3,-1
 186 562 l 1,4,-1
 186 376 l 1,5,-1
 279 376 l 1,6,-1
 372 376 l 1,7,-1
 372 283 l 1,8,-1
 372 190 l 1,9,-1
 559 190 l 1,10,-1
 745 190 l 1,11,-1
 745 376 l 1,12,-1
 745 562 l 1,13,-1
 652 562 l 1,14,-1
 559 562 l 1,15,-1
 559 655 l 1,0,-1
186 842 m 1,16,-1
 186 935 l 1,17,-1
 466 935 l 1,18,-1
 745 935 l 1,19,-1
 745 842 l 1,20,-1
 745 748 l 1,21,-1
 838 748 l 1,22,-1
 931 748 l 1,23,-1
 931 469 l 1,24,-1
 931 190 l 1,25,-1
 838 190 l 1,26,-1
 745 190 l 1,27,-1
 745 97 l 1,28,-1
 745 4 l 1,29,-1
 466 4 l 1,30,-1
 186 4 l 1,31,-1
 186 97 l 1,32,-1
 186 190 l 1,33,-1
 93 190 l 1,34,-1
 0 190 l 1,35,-1
 0 469 l 1,36,-1
 0 748 l 1,37,-1
 93 748 l 1,38,-1
 186 748 l 1,39,-1
 186 842 l 1,16,-1
372 469 m 1,40,-1
 372 562 l 1,41,-1
 466 562 l 1,42,-1
 559 562 l 1,43,-1
 559 469 l 1,44,-1
 559 376 l 1,45,-1
 466 376 l 1,46,-1
 372 376 l 1,47,-1
 372 469 l 1,40,-1
EndSplineSet
EndChar

StartChar: LATIN
Encoding: 249 249 187
Width: 1117
Flags: W
LayerCount: 2
Fore
SplineSet
186 1400 m 1,0,-1
 186 1493 l 1,1,-1
 279 1493 l 1,2,-1
 372 1493 l 1,3,-1
 372 1400 l 1,4,-1
 372 1307 l 1,5,-1
 279 1307 l 1,6,-1
 186 1307 l 1,7,-1
 186 1400 l 1,0,-1
0 562 m 1,8,-1
 0 934 l 1,9,-1
 93 934 l 1,10,-1
 186 934 l 1,11,-1
 186 562 l 1,12,-1
 186 190 l 1,13,-1
 93 190 l 1,14,-1
 0 190 l 1,15,-1
 0 562 l 1,8,-1
372 1307 m 1,16,-1
 466 1307 l 1,17,-1
 559 1307 l 1,18,-1
 559 1214 l 1,19,-1
 559 1121 l 1,20,-1
 466 1121 l 1,21,-1
 372 1121 l 1,22,-1
 372 1214 l 1,23,-1
 372 1307 l 1,16,-1
559 190 m 1,24,-1
 559 97 l 1,25,-1
 559 4 l 1,26,-1
 373 4 l 1,27,-1
 186 4 l 1,28,-1
 186 97 l 1,29,-1
 186 190 l 1,30,-1
 373 190 l 1,31,-1
 559 190 l 1,24,-1
559 190 m 1,32,-1
 559 283 l 1,33,-1
 559 376 l 1,34,-1
 652 376 l 1,35,-1
 745 376 l 1,36,-1
 745 655 l 1,37,-1
 745 934 l 1,38,-1
 838 934 l 1,39,-1
 931 934 l 1,40,-1
 931 469 l 1,41,-1
 931 4 l 1,42,-1
 838 4 l 1,43,-1
 745 4 l 1,44,-1
 745 97 l 1,45,-1
 745 190 l 1,46,-1
 652 190 l 1,47,-1
 559 190 l 1,32,-1
EndSplineSet
EndChar

StartChar: LATIN
Encoding: 250 250 188
Width: 1117
Flags: W
LayerCount: 2
Fore
SplineSet
559 1400 m 1,0,-1
 559 1493 l 1,1,-1
 652 1493 l 1,2,-1
 745 1493 l 1,3,-1
 745 1400 l 1,4,-1
 745 1307 l 1,5,-1
 652 1307 l 1,6,-1
 559 1307 l 1,7,-1
 559 1400 l 1,0,-1
0 562 m 1,8,-1
 0 934 l 1,9,-1
 93 934 l 1,10,-1
 186 934 l 1,11,-1
 186 562 l 1,12,-1
 186 190 l 1,13,-1
 93 190 l 1,14,-1
 0 190 l 1,15,-1
 0 562 l 1,8,-1
559 1307 m 1,16,-1
 559 1214 l 1,17,-1
 559 1121 l 1,18,-1
 466 1121 l 1,19,-1
 372 1121 l 1,20,-1
 372 1214 l 1,21,-1
 372 1307 l 1,22,-1
 466 1307 l 1,23,-1
 559 1307 l 1,16,-1
559 190 m 1,24,-1
 559 97 l 1,25,-1
 559 4 l 1,26,-1
 373 4 l 1,27,-1
 186 4 l 1,28,-1
 186 97 l 1,29,-1
 186 190 l 1,30,-1
 373 190 l 1,31,-1
 559 190 l 1,24,-1
559 190 m 1,32,-1
 559 283 l 1,33,-1
 559 376 l 1,34,-1
 652 376 l 1,35,-1
 745 376 l 1,36,-1
 745 655 l 1,37,-1
 745 934 l 1,38,-1
 838 934 l 1,39,-1
 931 934 l 1,40,-1
 931 469 l 1,41,-1
 931 4 l 1,42,-1
 838 4 l 1,43,-1
 745 4 l 1,44,-1
 745 97 l 1,45,-1
 745 190 l 1,46,-1
 652 190 l 1,47,-1
 559 190 l 1,32,-1
EndSplineSet
EndChar

StartChar: LATIN
Encoding: 251 251 189
Width: 1117
Flags: W
LayerCount: 2
Fore
SplineSet
372 1400 m 1,0,-1
 372 1493 l 1,1,-1
 466 1493 l 1,2,-1
 559 1493 l 1,3,-1
 559 1400 l 1,4,-1
 559 1307 l 1,5,-1
 466 1307 l 1,6,-1
 372 1307 l 1,7,-1
 372 1400 l 1,0,-1
0 562 m 1,8,-1
 0 934 l 1,9,-1
 93 934 l 1,10,-1
 186 934 l 1,11,-1
 186 562 l 1,12,-1
 186 190 l 1,13,-1
 93 190 l 1,14,-1
 0 190 l 1,15,-1
 0 562 l 1,8,-1
372 1307 m 1,16,-1
 372 1214 l 1,17,-1
 372 1121 l 1,18,-1
 279 1121 l 1,19,-1
 186 1121 l 1,20,-1
 186 1214 l 1,21,-1
 186 1307 l 1,22,-1
 279 1307 l 1,23,-1
 372 1307 l 1,16,-1
559 1307 m 1,24,-1
 652 1307 l 1,25,-1
 745 1307 l 1,26,-1
 745 1214 l 1,27,-1
 745 1121 l 1,28,-1
 652 1121 l 1,29,-1
 559 1121 l 1,30,-1
 559 1214 l 1,31,-1
 559 1307 l 1,24,-1
559 190 m 1,32,-1
 559 97 l 1,33,-1
 559 4 l 1,34,-1
 373 4 l 1,35,-1
 186 4 l 1,36,-1
 186 97 l 1,37,-1
 186 190 l 1,38,-1
 373 190 l 1,39,-1
 559 190 l 1,32,-1
559 190 m 1,40,-1
 559 283 l 1,41,-1
 559 376 l 1,42,-1
 652 376 l 1,43,-1
 745 376 l 1,44,-1
 745 655 l 1,45,-1
 745 934 l 1,46,-1
 838 934 l 1,47,-1
 931 934 l 1,48,-1
 931 469 l 1,49,-1
 931 4 l 1,50,-1
 838 4 l 1,51,-1
 745 4 l 1,52,-1
 745 97 l 1,53,-1
 745 190 l 1,54,-1
 652 190 l 1,55,-1
 559 190 l 1,40,-1
EndSplineSet
EndChar

StartChar: LATIN
Encoding: 252 252 190
Width: 1117
Flags: W
LayerCount: 2
Fore
SplineSet
186 1214 m 1,0,-1
 186 1307 l 1,1,-1
 279 1307 l 1,2,-1
 372 1307 l 1,3,-1
 372 1214 l 1,4,-1
 372 1121 l 1,5,-1
 279 1121 l 1,6,-1
 186 1121 l 1,7,-1
 186 1214 l 1,0,-1
559 1214 m 1,8,-1
 559 1307 l 1,9,-1
 652 1307 l 1,10,-1
 745 1307 l 1,11,-1
 745 1214 l 1,12,-1
 745 1121 l 1,13,-1
 652 1121 l 1,14,-1
 559 1121 l 1,15,-1
 559 1214 l 1,8,-1
0 562 m 1,16,-1
 0 935 l 1,17,-1
 93 935 l 1,18,-1
 186 935 l 1,19,-1
 186 562 l 1,20,-1
 186 190 l 1,21,-1
 93 190 l 1,22,-1
 0 190 l 1,23,-1
 0 562 l 1,16,-1
559 190 m 1,24,-1
 559 97 l 1,25,-1
 559 4 l 1,26,-1
 373 4 l 1,27,-1
 186 4 l 1,28,-1
 186 97 l 1,29,-1
 186 190 l 1,30,-1
 373 190 l 1,31,-1
 559 190 l 1,24,-1
559 190 m 1,32,-1
 559 283 l 1,33,-1
 559 376 l 1,34,-1
 652 376 l 1,35,-1
 745 376 l 1,36,-1
 745 655 l 1,37,-1
 745 935 l 1,38,-1
 838 935 l 1,39,-1
 931 935 l 1,40,-1
 931 469 l 1,41,-1
 931 4 l 1,42,-1
 838 4 l 1,43,-1
 745 4 l 1,44,-1
 745 97 l 1,45,-1
 745 190 l 1,46,-1
 652 190 l 1,47,-1
 559 190 l 1,32,-1
EndSplineSet
EndChar

StartChar: LATIN
Encoding: 253 253 191
Width: 1117
Flags: W
LayerCount: 2
Fore
SplineSet
559 1400 m 1,0,-1
 559 1493 l 1,1,-1
 652 1493 l 1,2,-1
 745 1493 l 1,3,-1
 745 1400 l 1,4,-1
 745 1307 l 1,5,-1
 652 1307 l 1,6,-1
 559 1307 l 1,7,-1
 559 1400 l 1,0,-1
0 562 m 1,8,-1
 0 934 l 1,9,-1
 93 934 l 1,10,-1
 186 934 l 1,11,-1
 186 562 l 1,12,-1
 186 190 l 1,13,-1
 93 190 l 1,14,-1
 0 190 l 1,15,-1
 0 562 l 1,8,-1
559 1307 m 1,16,-1
 559 1214 l 1,17,-1
 559 1121 l 1,18,-1
 466 1121 l 1,19,-1
 372 1121 l 1,20,-1
 372 1214 l 1,21,-1
 372 1307 l 1,22,-1
 466 1307 l 1,23,-1
 559 1307 l 1,16,-1
745 -183 m 1,24,-1
 745 3 l 1,25,-1
 745 190 l 1,26,-1
 652 190 l 1,27,-1
 559 190 l 1,28,-1
 559 96 l 1,29,-1
 559 3 l 1,30,-1
 373 3 l 1,31,-1
 186 3 l 1,32,-1
 186 96 l 1,33,-1
 186 190 l 1,34,-1
 373 190 l 1,35,-1
 559 190 l 1,36,-1
 559 283 l 1,37,-1
 559 376 l 1,38,-1
 652 376 l 1,39,-1
 745 376 l 1,40,-1
 745 655 l 1,41,-1
 745 934 l 1,42,-1
 838 934 l 1,43,-1
 931 934 l 1,44,-1
 931 376 l 1,45,-1
 931 -183 l 1,46,-1
 838 -183 l 1,47,-1
 745 -183 l 1,24,-1
745 -183 m 1,48,-1
 745 -276 l 1,49,-1
 745 -369 l 1,50,-1
 466 -369 l 1,51,-1
 186 -369 l 1,52,-1
 186 -276 l 1,53,-1
 186 -183 l 1,54,-1
 466 -183 l 1,55,-1
 745 -183 l 1,48,-1
EndSplineSet
EndChar

StartChar: LATIN
Encoding: 254 254 192
Width: 1117
Flags: W
LayerCount: 2
Fore
SplineSet
0 469 m 1,0,-1
 0 1307 l 1,1,-1
 93 1307 l 1,2,-1
 186 1307 l 1,3,-1
 186 1121 l 1,4,-1
 186 935 l 1,5,-1
 466 935 l 1,6,-1
 745 935 l 1,7,-1
 745 841 l 1,8,-1
 745 748 l 1,9,-1
 466 748 l 1,10,-1
 186 748 l 1,11,-1
 186 469 l 1,12,-1
 186 190 l 1,13,-1
 466 190 l 1,14,-1
 745 190 l 1,15,-1
 745 469 l 1,16,-1
 745 748 l 1,17,-1
 838 748 l 1,18,-1
 931 748 l 1,19,-1
 931 469 l 1,20,-1
 931 190 l 1,21,-1
 838 190 l 1,22,-1
 745 190 l 1,23,-1
 745 96 l 1,24,-1
 745 3 l 1,25,-1
 466 3 l 1,26,-1
 186 3 l 1,27,-1
 186 -183 l 1,28,-1
 186 -369 l 1,29,-1
 93 -369 l 1,30,-1
 0 -369 l 1,31,-1
 0 469 l 1,0,-1
EndSplineSet
EndChar

StartChar: LATIN
Encoding: 255 255 193
Width: 1117
Flags: W
LayerCount: 2
Fore
SplineSet
186 1214 m 1,0,-1
 186 1307 l 1,1,-1
 279 1307 l 1,2,-1
 372 1307 l 1,3,-1
 372 1214 l 1,4,-1
 372 1121 l 1,5,-1
 279 1121 l 1,6,-1
 186 1121 l 1,7,-1
 186 1214 l 1,0,-1
559 1214 m 1,8,-1
 559 1307 l 1,9,-1
 652 1307 l 1,10,-1
 745 1307 l 1,11,-1
 745 1214 l 1,12,-1
 745 1121 l 1,13,-1
 652 1121 l 1,14,-1
 559 1121 l 1,15,-1
 559 1214 l 1,8,-1
0 562 m 1,16,-1
 0 935 l 1,17,-1
 93 935 l 1,18,-1
 186 935 l 1,19,-1
 186 562 l 1,20,-1
 186 190 l 1,21,-1
 93 190 l 1,22,-1
 0 190 l 1,23,-1
 0 562 l 1,16,-1
745 -183 m 1,24,-1
 745 3 l 1,25,-1
 745 190 l 1,26,-1
 652 190 l 1,27,-1
 559 190 l 1,28,-1
 559 96 l 1,29,-1
 559 3 l 1,30,-1
 373 3 l 1,31,-1
 186 3 l 1,32,-1
 186 96 l 1,33,-1
 186 190 l 1,34,-1
 373 190 l 1,35,-1
 559 190 l 1,36,-1
 559 283 l 1,37,-1
 559 376 l 1,38,-1
 652 376 l 1,39,-1
 745 376 l 1,40,-1
 745 655 l 1,41,-1
 745 935 l 1,42,-1
 838 935 l 1,43,-1
 931 935 l 1,44,-1
 931 376 l 1,45,-1
 931 -183 l 1,46,-1
 838 -183 l 1,47,-1
 745 -183 l 1,24,-1
745 -183 m 1,48,-1
 745 -276 l 1,49,-1
 745 -369 l 1,50,-1
 466 -369 l 1,51,-1
 186 -369 l 1,52,-1
 186 -276 l 1,53,-1
 186 -183 l 1,54,-1
 466 -183 l 1,55,-1
 745 -183 l 1,48,-1
EndSplineSet
EndChar

StartChar: LATIN
Encoding: 256 256 194
Width: 1117
Flags: W
LayerCount: 2
Fore
SplineSet
186 1400 m 1,0,-1
 186 1493 l 1,1,-1
 466 1493 l 1,2,-1
 745 1493 l 1,3,-1
 745 1400 l 1,4,-1
 745 1307 l 1,5,-1
 466 1307 l 1,6,-1
 186 1307 l 1,7,-1
 186 1400 l 1,0,-1
186 1028 m 1,8,-1
 186 1121 l 1,9,-1
 466 1121 l 1,10,-1
 745 1121 l 1,11,-1
 745 1028 l 1,12,-1
 745 934 l 1,13,-1
 466 934 l 1,14,-1
 186 934 l 1,15,-1
 186 748 l 1,16,-1
 186 562 l 1,17,-1
 466 562 l 1,18,-1
 745 562 l 1,19,-1
 745 748 l 1,20,-1
 745 934 l 1,21,-1
 838 934 l 1,22,-1
 931 934 l 1,23,-1
 931 469 l 1,24,-1
 931 4 l 1,25,-1
 838 4 l 1,26,-1
 745 4 l 1,27,-1
 745 190 l 1,28,-1
 745 376 l 1,29,-1
 466 376 l 1,30,-1
 186 376 l 1,31,-1
 186 190 l 1,32,-1
 186 4 l 1,33,-1
 93 4 l 1,34,-1
 0 4 l 1,35,-1
 0 469 l 1,36,-1
 0 934 l 1,37,-1
 93 934 l 1,38,-1
 186 934 l 1,39,-1
 186 1028 l 1,8,-1
EndSplineSet
EndChar

StartChar: LATIN
Encoding: 257 257 195
Width: 1117
Flags: W
LayerCount: 2
Fore
SplineSet
186 1214 m 1,0,-1
 186 1307 l 1,1,-1
 466 1307 l 1,2,-1
 745 1307 l 1,3,-1
 745 1214 l 1,4,-1
 745 1121 l 1,5,-1
 466 1121 l 1,6,-1
 186 1121 l 1,7,-1
 186 1214 l 1,0,-1
745 283 m 1,8,-1
 745 376 l 1,9,-1
 466 376 l 1,10,-1
 186 376 l 1,11,-1
 186 283 l 1,12,-1
 186 190 l 1,13,-1
 466 190 l 1,14,-1
 745 190 l 1,15,-1
 745 283 l 1,8,-1
186 841 m 1,16,-1
 186 935 l 1,17,-1
 466 935 l 1,18,-1
 745 935 l 1,19,-1
 745 841 l 1,20,-1
 745 748 l 1,21,-1
 466 748 l 1,22,-1
 186 748 l 1,23,-1
 186 841 l 1,16,-1
186 376 m 1,24,-1
 186 469 l 1,25,-1
 186 562 l 1,26,-1
 466 562 l 1,27,-1
 745 562 l 1,28,-1
 745 655 l 1,29,-1
 745 748 l 1,30,-1
 838 748 l 1,31,-1
 931 748 l 1,32,-1
 931 376 l 1,33,-1
 931 4 l 1,34,-1
 559 4 l 1,35,-1
 186 4 l 1,36,-1
 186 97 l 1,37,-1
 186 190 l 1,38,-1
 93 190 l 1,39,-1
 0 190 l 1,40,-1
 0 283 l 1,41,-1
 0 376 l 1,42,-1
 93 376 l 1,43,-1
 186 376 l 1,24,-1
EndSplineSet
EndChar

StartChar: LATIN
Encoding: 258 258 196
Width: 1117
Flags: W
LayerCount: 2
Fore
SplineSet
0 1400 m 1,0,-1
 0 1493 l 1,1,-1
 93 1493 l 1,2,-1
 186 1493 l 1,3,-1
 186 1400 l 1,4,-1
 186 1307 l 1,5,-1
 93 1307 l 1,6,-1
 0 1307 l 1,7,-1
 0 1400 l 1,0,-1
186 934 m 1,8,-1
 186 748 l 1,9,-1
 186 562 l 1,10,-1
 466 562 l 1,11,-1
 745 562 l 1,12,-1
 745 748 l 1,13,-1
 745 934 l 1,14,-1
 466 934 l 1,15,-1
 186 934 l 1,8,-1
186 934 m 1,16,-1
 186 1121 l 1,17,-1
 186 1307 l 1,18,-1
 466 1307 l 1,19,-1
 745 1307 l 1,20,-1
 745 1121 l 1,21,-1
 745 934 l 1,22,-1
 838 934 l 1,23,-1
 931 934 l 1,24,-1
 931 469 l 1,25,-1
 931 4 l 1,26,-1
 838 4 l 1,27,-1
 745 4 l 1,28,-1
 745 190 l 1,29,-1
 745 376 l 1,30,-1
 466 376 l 1,31,-1
 186 376 l 1,32,-1
 186 190 l 1,33,-1
 186 4 l 1,34,-1
 93 4 l 1,35,-1
 0 4 l 1,36,-1
 0 469 l 1,37,-1
 0 934 l 1,38,-1
 93 934 l 1,39,-1
 186 934 l 1,16,-1
745 1307 m 1,40,-1
 745 1400 l 1,41,-1
 745 1493 l 1,42,-1
 838 1493 l 1,43,-1
 931 1493 l 1,44,-1
 931 1400 l 1,45,-1
 931 1307 l 1,46,-1
 838 1307 l 1,47,-1
 745 1307 l 1,40,-1
EndSplineSet
EndChar

StartChar: LATIN
Encoding: 259 259 197
Width: 1117
Flags: W
LayerCount: 2
Fore
SplineSet
0 1400 m 1,0,-1
 0 1493 l 1,1,-1
 93 1493 l 1,2,-1
 186 1493 l 1,3,-1
 186 1400 l 1,4,-1
 186 1307 l 1,5,-1
 93 1307 l 1,6,-1
 0 1307 l 1,7,-1
 0 1400 l 1,0,-1
745 283 m 1,8,-1
 745 376 l 1,9,-1
 466 376 l 1,10,-1
 186 376 l 1,11,-1
 186 283 l 1,12,-1
 186 190 l 1,13,-1
 466 190 l 1,14,-1
 745 190 l 1,15,-1
 745 283 l 1,8,-1
186 841 m 1,16,-1
 186 934 l 1,17,-1
 466 934 l 1,18,-1
 745 934 l 1,19,-1
 745 841 l 1,20,-1
 745 748 l 1,21,-1
 466 748 l 1,22,-1
 186 748 l 1,23,-1
 186 841 l 1,16,-1
745 1307 m 1,24,-1
 745 1214 l 1,25,-1
 745 1121 l 1,26,-1
 466 1121 l 1,27,-1
 186 1121 l 1,28,-1
 186 1214 l 1,29,-1
 186 1307 l 1,30,-1
 466 1307 l 1,31,-1
 745 1307 l 1,24,-1
745 1307 m 1,32,-1
 745 1400 l 1,33,-1
 745 1493 l 1,34,-1
 838 1493 l 1,35,-1
 931 1493 l 1,36,-1
 931 1400 l 1,37,-1
 931 1307 l 1,38,-1
 838 1307 l 1,39,-1
 745 1307 l 1,32,-1
186 376 m 1,40,-1
 186 469 l 1,41,-1
 186 562 l 1,42,-1
 466 562 l 1,43,-1
 745 562 l 1,44,-1
 745 655 l 1,45,-1
 745 748 l 1,46,-1
 838 748 l 1,47,-1
 931 748 l 1,48,-1
 931 376 l 1,49,-1
 931 4 l 1,50,-1
 559 4 l 1,51,-1
 186 4 l 1,52,-1
 186 97 l 1,53,-1
 186 190 l 1,54,-1
 93 190 l 1,55,-1
 0 190 l 1,56,-1
 0 283 l 1,57,-1
 0 376 l 1,58,-1
 93 376 l 1,59,-1
 186 376 l 1,40,-1
EndSplineSet
EndChar

StartChar: LATIN
Encoding: 260 260 198
Width: 1117
Flags: W
LayerCount: 2
Fore
SplineSet
372 1214 m 1,0,-1
 372 1307 l 1,1,-1
 466 1307 l 1,2,-1
 559 1307 l 1,3,-1
 559 1214 l 1,4,-1
 559 1121 l 1,5,-1
 466 1121 l 1,6,-1
 372 1121 l 1,7,-1
 372 1028 l 1,8,-1
 372 935 l 1,9,-1
 279 935 l 1,10,-1
 186 935 l 1,11,-1
 186 748 l 1,12,-1
 186 562 l 1,13,-1
 466 562 l 1,14,-1
 745 562 l 1,15,-1
 745 748 l 1,16,-1
 745 935 l 1,17,-1
 652 935 l 1,18,-1
 559 935 l 1,19,-1
 559 1028 l 1,20,-1
 559 1121 l 1,21,-1
 652 1121 l 1,22,-1
 745 1121 l 1,23,-1
 745 1028 l 1,24,-1
 745 935 l 1,25,-1
 838 935 l 1,26,-1
 931 935 l 1,27,-1
 931 469 l 1,28,-1
 931 3 l 1,29,-1
 838 3 l 1,30,-1
 745 3 l 1,31,-1
 745 190 l 1,32,-1
 745 376 l 1,33,-1
 466 376 l 1,34,-1
 186 376 l 1,35,-1
 186 190 l 1,36,-1
 186 3 l 1,37,-1
 93 3 l 1,38,-1
 0 3 l 1,39,-1
 0 469 l 1,40,-1
 0 935 l 1,41,-1
 93 935 l 1,42,-1
 186 935 l 1,43,-1
 186 1028 l 1,44,-1
 186 1121 l 1,45,-1
 279 1121 l 1,46,-1
 372 1121 l 1,47,-1
 372 1214 l 1,0,-1
745 3 m 1,48,-1
 745 -90 l 1,49,-1
 745 -183 l 1,50,-1
 838 -183 l 1,51,-1
 931 -183 l 1,52,-1
 931 -276 l 1,53,-1
 931 -369 l 1,54,-1
 745 -369 l 1,55,-1
 559 -369 l 1,56,-1
 559 -183 l 1,57,-1
 559 3 l 1,58,-1
 652 3 l 1,59,-1
 745 3 l 1,48,-1
EndSplineSet
EndChar

StartChar: LATIN
Encoding: 261 261 199
Width: 1117
Flags: W
LayerCount: 2
Fore
SplineSet
745 283 m 1,0,-1
 745 376 l 1,1,-1
 466 376 l 1,2,-1
 186 376 l 1,3,-1
 186 283 l 1,4,-1
 186 190 l 1,5,-1
 466 190 l 1,6,-1
 745 190 l 1,7,-1
 745 283 l 1,0,-1
186 842 m 1,8,-1
 186 935 l 1,9,-1
 466 935 l 1,10,-1
 745 935 l 1,11,-1
 745 842 l 1,12,-1
 745 748 l 1,13,-1
 466 748 l 1,14,-1
 186 748 l 1,15,-1
 186 842 l 1,8,-1
186 376 m 1,16,-1
 186 469 l 1,17,-1
 186 562 l 1,18,-1
 466 562 l 1,19,-1
 745 562 l 1,20,-1
 745 655 l 1,21,-1
 745 748 l 1,22,-1
 838 748 l 1,23,-1
 931 748 l 1,24,-1
 931 376 l 1,25,-1
 931 3 l 1,26,-1
 838 3 l 1,27,-1
 745 3 l 1,28,-1
 745 -90 l 1,29,-1
 745 -183 l 1,30,-1
 838 -183 l 1,31,-1
 931 -183 l 1,32,-1
 931 -276 l 1,33,-1
 931 -369 l 1,34,-1
 745 -369 l 1,35,-1
 559 -369 l 1,36,-1
 559 -183 l 1,37,-1
 559 3 l 1,38,-1
 373 3 l 1,39,-1
 186 3 l 1,40,-1
 186 96 l 1,41,-1
 186 190 l 1,42,-1
 93 190 l 1,43,-1
 0 190 l 1,44,-1
 0 283 l 1,45,-1
 0 376 l 1,46,-1
 93 376 l 1,47,-1
 186 376 l 1,16,-1
EndSplineSet
EndChar

StartChar: LATIN
Encoding: 262 262 200
Width: 1117
Flags: W
LayerCount: 2
Fore
SplineSet
559 1400 m 1,0,-1
 559 1493 l 1,1,-1
 652 1493 l 1,2,-1
 745 1493 l 1,3,-1
 745 1400 l 1,4,-1
 745 1307 l 1,5,-1
 652 1307 l 1,6,-1
 559 1307 l 1,7,-1
 559 1400 l 1,0,-1
745 190 m 1,8,-1
 745 97 l 1,9,-1
 745 4 l 1,10,-1
 466 4 l 1,11,-1
 186 4 l 1,12,-1
 186 97 l 1,13,-1
 186 190 l 1,14,-1
 93 190 l 1,15,-1
 0 190 l 1,16,-1
 0 562 l 1,17,-1
 0 934 l 1,18,-1
 93 934 l 1,19,-1
 186 934 l 1,20,-1
 186 1028 l 1,21,-1
 186 1121 l 1,22,-1
 279 1121 l 1,23,-1
 372 1121 l 1,24,-1
 372 1214 l 1,25,-1
 372 1307 l 1,26,-1
 466 1307 l 1,27,-1
 559 1307 l 1,28,-1
 559 1214 l 1,29,-1
 559 1121 l 1,30,-1
 652 1121 l 1,31,-1
 745 1121 l 1,32,-1
 745 1028 l 1,33,-1
 745 934 l 1,34,-1
 466 934 l 1,35,-1
 186 934 l 1,36,-1
 186 562 l 1,37,-1
 186 190 l 1,38,-1
 466 190 l 1,39,-1
 745 190 l 1,8,-1
745 190 m 1,40,-1
 745 283 l 1,41,-1
 745 376 l 1,42,-1
 838 376 l 1,43,-1
 931 376 l 1,44,-1
 931 283 l 1,45,-1
 931 190 l 1,46,-1
 838 190 l 1,47,-1
 745 190 l 1,40,-1
745 934 m 1,48,-1
 838 934 l 1,49,-1
 931 934 l 1,50,-1
 931 841 l 1,51,-1
 931 748 l 1,52,-1
 838 748 l 1,53,-1
 745 748 l 1,54,-1
 745 841 l 1,55,-1
 745 934 l 1,48,-1
EndSplineSet
EndChar

StartChar: LATIN
Encoding: 263 263 201
Width: 1117
Flags: W
LayerCount: 2
Fore
SplineSet
559 1400 m 1,0,-1
 559 1493 l 1,1,-1
 652 1493 l 1,2,-1
 745 1493 l 1,3,-1
 745 1400 l 1,4,-1
 745 1307 l 1,5,-1
 652 1307 l 1,6,-1
 559 1307 l 1,7,-1
 559 1400 l 1,0,-1
186 841 m 1,8,-1
 186 934 l 1,9,-1
 466 934 l 1,10,-1
 745 934 l 1,11,-1
 745 841 l 1,12,-1
 745 748 l 1,13,-1
 466 748 l 1,14,-1
 186 748 l 1,15,-1
 186 841 l 1,8,-1
559 1307 m 1,16,-1
 559 1214 l 1,17,-1
 559 1121 l 1,18,-1
 466 1121 l 1,19,-1
 372 1121 l 1,20,-1
 372 1214 l 1,21,-1
 372 1307 l 1,22,-1
 466 1307 l 1,23,-1
 559 1307 l 1,16,-1
745 190 m 1,24,-1
 745 97 l 1,25,-1
 745 4 l 1,26,-1
 466 4 l 1,27,-1
 186 4 l 1,28,-1
 186 97 l 1,29,-1
 186 190 l 1,30,-1
 93 190 l 1,31,-1
 0 190 l 1,32,-1
 0 469 l 1,33,-1
 0 748 l 1,34,-1
 93 748 l 1,35,-1
 186 748 l 1,36,-1
 186 469 l 1,37,-1
 186 190 l 1,38,-1
 466 190 l 1,39,-1
 745 190 l 1,24,-1
745 190 m 1,40,-1
 745 283 l 1,41,-1
 745 376 l 1,42,-1
 838 376 l 1,43,-1
 931 376 l 1,44,-1
 931 283 l 1,45,-1
 931 190 l 1,46,-1
 838 190 l 1,47,-1
 745 190 l 1,40,-1
745 748 m 1,48,-1
 838 748 l 1,49,-1
 931 748 l 1,50,-1
 931 655 l 1,51,-1
 931 562 l 1,52,-1
 838 562 l 1,53,-1
 745 562 l 1,54,-1
 745 655 l 1,55,-1
 745 748 l 1,48,-1
EndSplineSet
EndChar

StartChar: LATIN
Encoding: 264 264 202
Width: 1117
Flags: W
LayerCount: 2
Fore
SplineSet
372 1400 m 1,0,-1
 372 1493 l 1,1,-1
 466 1493 l 1,2,-1
 559 1493 l 1,3,-1
 559 1400 l 1,4,-1
 559 1307 l 1,5,-1
 466 1307 l 1,6,-1
 372 1307 l 1,7,-1
 372 1214 l 1,8,-1
 372 1121 l 1,9,-1
 466 1121 l 1,10,-1
 559 1121 l 1,11,-1
 559 1214 l 1,12,-1
 559 1307 l 1,13,-1
 652 1307 l 1,14,-1
 745 1307 l 1,15,-1
 745 1121 l 1,16,-1
 745 934 l 1,17,-1
 466 934 l 1,18,-1
 186 934 l 1,19,-1
 186 1121 l 1,20,-1
 186 1307 l 1,21,-1
 279 1307 l 1,22,-1
 372 1307 l 1,23,-1
 372 1400 l 1,0,-1
745 190 m 1,24,-1
 745 97 l 1,25,-1
 745 4 l 1,26,-1
 466 4 l 1,27,-1
 186 4 l 1,28,-1
 186 97 l 1,29,-1
 186 190 l 1,30,-1
 93 190 l 1,31,-1
 0 190 l 1,32,-1
 0 562 l 1,33,-1
 0 934 l 1,34,-1
 93 934 l 1,35,-1
 186 934 l 1,36,-1
 186 562 l 1,37,-1
 186 190 l 1,38,-1
 466 190 l 1,39,-1
 745 190 l 1,24,-1
745 190 m 1,40,-1
 745 283 l 1,41,-1
 745 376 l 1,42,-1
 838 376 l 1,43,-1
 931 376 l 1,44,-1
 931 283 l 1,45,-1
 931 190 l 1,46,-1
 838 190 l 1,47,-1
 745 190 l 1,40,-1
745 934 m 1,48,-1
 838 934 l 1,49,-1
 931 934 l 1,50,-1
 931 841 l 1,51,-1
 931 748 l 1,52,-1
 838 748 l 1,53,-1
 745 748 l 1,54,-1
 745 841 l 1,55,-1
 745 934 l 1,48,-1
EndSplineSet
EndChar

StartChar: LATIN
Encoding: 265 265 203
Width: 1117
Flags: W
LayerCount: 2
Fore
SplineSet
372 1400 m 1,0,-1
 372 1493 l 1,1,-1
 466 1493 l 1,2,-1
 559 1493 l 1,3,-1
 559 1400 l 1,4,-1
 559 1307 l 1,5,-1
 466 1307 l 1,6,-1
 372 1307 l 1,7,-1
 372 1400 l 1,0,-1
186 841 m 1,8,-1
 186 934 l 1,9,-1
 466 934 l 1,10,-1
 745 934 l 1,11,-1
 745 841 l 1,12,-1
 745 748 l 1,13,-1
 466 748 l 1,14,-1
 186 748 l 1,15,-1
 186 841 l 1,8,-1
372 1307 m 1,16,-1
 372 1214 l 1,17,-1
 372 1121 l 1,18,-1
 279 1121 l 1,19,-1
 186 1121 l 1,20,-1
 186 1214 l 1,21,-1
 186 1307 l 1,22,-1
 279 1307 l 1,23,-1
 372 1307 l 1,16,-1
559 1307 m 1,24,-1
 652 1307 l 1,25,-1
 745 1307 l 1,26,-1
 745 1214 l 1,27,-1
 745 1121 l 1,28,-1
 652 1121 l 1,29,-1
 559 1121 l 1,30,-1
 559 1214 l 1,31,-1
 559 1307 l 1,24,-1
745 190 m 1,32,-1
 745 97 l 1,33,-1
 745 4 l 1,34,-1
 466 4 l 1,35,-1
 186 4 l 1,36,-1
 186 97 l 1,37,-1
 186 190 l 1,38,-1
 93 190 l 1,39,-1
 0 190 l 1,40,-1
 0 469 l 1,41,-1
 0 748 l 1,42,-1
 93 748 l 1,43,-1
 186 748 l 1,44,-1
 186 469 l 1,45,-1
 186 190 l 1,46,-1
 466 190 l 1,47,-1
 745 190 l 1,32,-1
745 190 m 1,48,-1
 745 283 l 1,49,-1
 745 376 l 1,50,-1
 838 376 l 1,51,-1
 931 376 l 1,52,-1
 931 283 l 1,53,-1
 931 190 l 1,54,-1
 838 190 l 1,55,-1
 745 190 l 1,48,-1
745 748 m 1,56,-1
 838 748 l 1,57,-1
 931 748 l 1,58,-1
 931 655 l 1,59,-1
 931 562 l 1,60,-1
 838 562 l 1,61,-1
 745 562 l 1,62,-1
 745 655 l 1,63,-1
 745 748 l 1,56,-1
EndSplineSet
EndChar

StartChar: LATIN
Encoding: 266 266 204
Width: 1117
Flags: W
LayerCount: 2
Fore
SplineSet
372 1400 m 1,0,-1
 372 1493 l 1,1,-1
 466 1493 l 1,2,-1
 559 1493 l 1,3,-1
 559 1400 l 1,4,-1
 559 1307 l 1,5,-1
 466 1307 l 1,6,-1
 372 1307 l 1,7,-1
 372 1400 l 1,0,-1
186 1028 m 1,8,-1
 186 1121 l 1,9,-1
 466 1121 l 1,10,-1
 745 1121 l 1,11,-1
 745 1028 l 1,12,-1
 745 934 l 1,13,-1
 466 934 l 1,14,-1
 186 934 l 1,15,-1
 186 1028 l 1,8,-1
745 190 m 1,16,-1
 745 97 l 1,17,-1
 745 4 l 1,18,-1
 466 4 l 1,19,-1
 186 4 l 1,20,-1
 186 97 l 1,21,-1
 186 190 l 1,22,-1
 93 190 l 1,23,-1
 0 190 l 1,24,-1
 0 562 l 1,25,-1
 0 934 l 1,26,-1
 93 934 l 1,27,-1
 186 934 l 1,28,-1
 186 562 l 1,29,-1
 186 190 l 1,30,-1
 466 190 l 1,31,-1
 745 190 l 1,16,-1
745 190 m 1,32,-1
 745 283 l 1,33,-1
 745 376 l 1,34,-1
 838 376 l 1,35,-1
 931 376 l 1,36,-1
 931 283 l 1,37,-1
 931 190 l 1,38,-1
 838 190 l 1,39,-1
 745 190 l 1,32,-1
745 934 m 1,40,-1
 838 934 l 1,41,-1
 931 934 l 1,42,-1
 931 841 l 1,43,-1
 931 748 l 1,44,-1
 838 748 l 1,45,-1
 745 748 l 1,46,-1
 745 841 l 1,47,-1
 745 934 l 1,40,-1
EndSplineSet
EndChar

StartChar: LATIN
Encoding: 267 267 205
Width: 1117
Flags: W
LayerCount: 2
Fore
SplineSet
372 1214 m 1,0,-1
 372 1307 l 1,1,-1
 466 1307 l 1,2,-1
 559 1307 l 1,3,-1
 559 1214 l 1,4,-1
 559 1121 l 1,5,-1
 466 1121 l 1,6,-1
 372 1121 l 1,7,-1
 372 1214 l 1,0,-1
186 841 m 1,8,-1
 186 935 l 1,9,-1
 466 935 l 1,10,-1
 745 935 l 1,11,-1
 745 841 l 1,12,-1
 745 748 l 1,13,-1
 466 748 l 1,14,-1
 186 748 l 1,15,-1
 186 841 l 1,8,-1
745 190 m 1,16,-1
 745 97 l 1,17,-1
 745 4 l 1,18,-1
 466 4 l 1,19,-1
 186 4 l 1,20,-1
 186 97 l 1,21,-1
 186 190 l 1,22,-1
 93 190 l 1,23,-1
 0 190 l 1,24,-1
 0 469 l 1,25,-1
 0 748 l 1,26,-1
 93 748 l 1,27,-1
 186 748 l 1,28,-1
 186 469 l 1,29,-1
 186 190 l 1,30,-1
 466 190 l 1,31,-1
 745 190 l 1,16,-1
745 190 m 1,32,-1
 745 283 l 1,33,-1
 745 376 l 1,34,-1
 838 376 l 1,35,-1
 931 376 l 1,36,-1
 931 283 l 1,37,-1
 931 190 l 1,38,-1
 838 190 l 1,39,-1
 745 190 l 1,32,-1
745 748 m 1,40,-1
 838 748 l 1,41,-1
 931 748 l 1,42,-1
 931 655 l 1,43,-1
 931 562 l 1,44,-1
 838 562 l 1,45,-1
 745 562 l 1,46,-1
 745 655 l 1,47,-1
 745 748 l 1,40,-1
EndSplineSet
EndChar

StartChar: LATIN
Encoding: 268 268 206
Width: 1117
Flags: W
LayerCount: 2
Fore
SplineSet
186 1400 m 1,0,-1
 186 1493 l 1,1,-1
 279 1493 l 1,2,-1
 372 1493 l 1,3,-1
 372 1400 l 1,4,-1
 372 1307 l 1,5,-1
 279 1307 l 1,6,-1
 186 1307 l 1,7,-1
 186 1400 l 1,0,-1
745 190 m 1,8,-1
 745 97 l 1,9,-1
 745 4 l 1,10,-1
 466 4 l 1,11,-1
 186 4 l 1,12,-1
 186 97 l 1,13,-1
 186 190 l 1,14,-1
 93 190 l 1,15,-1
 0 190 l 1,16,-1
 0 562 l 1,17,-1
 0 934 l 1,18,-1
 93 934 l 1,19,-1
 186 934 l 1,20,-1
 186 1028 l 1,21,-1
 186 1121 l 1,22,-1
 279 1121 l 1,23,-1
 372 1121 l 1,24,-1
 372 1214 l 1,25,-1
 372 1307 l 1,26,-1
 466 1307 l 1,27,-1
 559 1307 l 1,28,-1
 559 1214 l 1,29,-1
 559 1121 l 1,30,-1
 652 1121 l 1,31,-1
 745 1121 l 1,32,-1
 745 1028 l 1,33,-1
 745 934 l 1,34,-1
 466 934 l 1,35,-1
 186 934 l 1,36,-1
 186 562 l 1,37,-1
 186 190 l 1,38,-1
 466 190 l 1,39,-1
 745 190 l 1,8,-1
745 190 m 1,40,-1
 745 283 l 1,41,-1
 745 376 l 1,42,-1
 838 376 l 1,43,-1
 931 376 l 1,44,-1
 931 283 l 1,45,-1
 931 190 l 1,46,-1
 838 190 l 1,47,-1
 745 190 l 1,40,-1
745 934 m 1,48,-1
 838 934 l 1,49,-1
 931 934 l 1,50,-1
 931 841 l 1,51,-1
 931 748 l 1,52,-1
 838 748 l 1,53,-1
 745 748 l 1,54,-1
 745 841 l 1,55,-1
 745 934 l 1,48,-1
559 1307 m 1,56,-1
 559 1400 l 1,57,-1
 559 1493 l 1,58,-1
 652 1493 l 1,59,-1
 745 1493 l 1,60,-1
 745 1400 l 1,61,-1
 745 1307 l 1,62,-1
 652 1307 l 1,63,-1
 559 1307 l 1,56,-1
EndSplineSet
EndChar

StartChar: LATIN
Encoding: 269 269 207
Width: 1117
Flags: W
LayerCount: 2
Fore
SplineSet
186 1400 m 1,0,-1
 186 1493 l 1,1,-1
 279 1493 l 1,2,-1
 372 1493 l 1,3,-1
 372 1400 l 1,4,-1
 372 1307 l 1,5,-1
 279 1307 l 1,6,-1
 186 1307 l 1,7,-1
 186 1400 l 1,0,-1
186 841 m 1,8,-1
 186 934 l 1,9,-1
 466 934 l 1,10,-1
 745 934 l 1,11,-1
 745 841 l 1,12,-1
 745 748 l 1,13,-1
 466 748 l 1,14,-1
 186 748 l 1,15,-1
 186 841 l 1,8,-1
559 1307 m 1,16,-1
 559 1214 l 1,17,-1
 559 1121 l 1,18,-1
 466 1121 l 1,19,-1
 372 1121 l 1,20,-1
 372 1214 l 1,21,-1
 372 1307 l 1,22,-1
 466 1307 l 1,23,-1
 559 1307 l 1,16,-1
559 1307 m 1,24,-1
 559 1400 l 1,25,-1
 559 1493 l 1,26,-1
 652 1493 l 1,27,-1
 745 1493 l 1,28,-1
 745 1400 l 1,29,-1
 745 1307 l 1,30,-1
 652 1307 l 1,31,-1
 559 1307 l 1,24,-1
745 190 m 1,32,-1
 745 97 l 1,33,-1
 745 4 l 1,34,-1
 466 4 l 1,35,-1
 186 4 l 1,36,-1
 186 97 l 1,37,-1
 186 190 l 1,38,-1
 93 190 l 1,39,-1
 0 190 l 1,40,-1
 0 469 l 1,41,-1
 0 748 l 1,42,-1
 93 748 l 1,43,-1
 186 748 l 1,44,-1
 186 469 l 1,45,-1
 186 190 l 1,46,-1
 466 190 l 1,47,-1
 745 190 l 1,32,-1
745 190 m 1,48,-1
 745 283 l 1,49,-1
 745 376 l 1,50,-1
 838 376 l 1,51,-1
 931 376 l 1,52,-1
 931 283 l 1,53,-1
 931 190 l 1,54,-1
 838 190 l 1,55,-1
 745 190 l 1,48,-1
745 748 m 1,56,-1
 838 748 l 1,57,-1
 931 748 l 1,58,-1
 931 655 l 1,59,-1
 931 562 l 1,60,-1
 838 562 l 1,61,-1
 745 562 l 1,62,-1
 745 655 l 1,63,-1
 745 748 l 1,56,-1
EndSplineSet
EndChar

StartChar: LATIN
Encoding: 270 270 208
Width: 1117
Flags: W
LayerCount: 2
Fore
SplineSet
186 1400 m 1,0,-1
 186 1493 l 1,1,-1
 279 1493 l 1,2,-1
 372 1493 l 1,3,-1
 372 1400 l 1,4,-1
 372 1307 l 1,5,-1
 279 1307 l 1,6,-1
 186 1307 l 1,7,-1
 186 1400 l 1,0,-1
745 190 m 1,8,-1
 745 562 l 1,9,-1
 745 934 l 1,10,-1
 466 934 l 1,11,-1
 186 934 l 1,12,-1
 186 562 l 1,13,-1
 186 190 l 1,14,-1
 466 190 l 1,15,-1
 745 190 l 1,8,-1
745 190 m 1,16,-1
 745 97 l 1,17,-1
 745 4 l 1,18,-1
 373 4 l 1,19,-1
 0 4 l 1,20,-1
 0 562 l 1,21,-1
 0 1121 l 1,22,-1
 186 1121 l 1,23,-1
 372 1121 l 1,24,-1
 372 1214 l 1,25,-1
 372 1307 l 1,26,-1
 466 1307 l 1,27,-1
 559 1307 l 1,28,-1
 559 1214 l 1,29,-1
 559 1121 l 1,30,-1
 652 1121 l 1,31,-1
 745 1121 l 1,32,-1
 745 1028 l 1,33,-1
 745 934 l 1,34,-1
 838 934 l 1,35,-1
 931 934 l 1,36,-1
 931 562 l 1,37,-1
 931 190 l 1,38,-1
 838 190 l 1,39,-1
 745 190 l 1,16,-1
559 1307 m 1,40,-1
 559 1400 l 1,41,-1
 559 1493 l 1,42,-1
 652 1493 l 1,43,-1
 745 1493 l 1,44,-1
 745 1400 l 1,45,-1
 745 1307 l 1,46,-1
 652 1307 l 1,47,-1
 559 1307 l 1,40,-1
EndSplineSet
EndChar

StartChar: LATIN
Encoding: 271 271 209
Width: 1117
Flags: W
LayerCount: 2
Fore
SplineSet
186 1400 m 1,0,-1
 186 1493 l 1,1,-1
 279 1493 l 1,2,-1
 372 1493 l 1,3,-1
 372 1400 l 1,4,-1
 372 1307 l 1,5,-1
 279 1307 l 1,6,-1
 186 1307 l 1,7,-1
 186 1400 l 1,0,-1
745 934 m 1,8,-1
 745 1121 l 1,9,-1
 838 1121 l 1,10,-1
 931 1121 l 1,11,-1
 931 562 l 1,12,-1
 931 4 l 1,13,-1
 838 4 l 1,14,-1
 745 4 l 1,15,-1
 745 97 l 1,16,-1
 745 190 l 1,17,-1
 652 190 l 1,18,-1
 559 190 l 1,19,-1
 559 283 l 1,20,-1
 559 376 l 1,21,-1
 652 376 l 1,22,-1
 745 376 l 1,23,-1
 745 469 l 1,24,-1
 745 562 l 1,25,-1
 652 562 l 1,26,-1
 559 562 l 1,27,-1
 559 655 l 1,28,-1
 559 748 l 1,29,-1
 373 748 l 1,30,-1
 186 748 l 1,31,-1
 186 469 l 1,32,-1
 186 190 l 1,33,-1
 373 190 l 1,34,-1
 559 190 l 1,35,-1
 559 97 l 1,36,-1
 559 4 l 1,37,-1
 373 4 l 1,38,-1
 186 4 l 1,39,-1
 186 97 l 1,40,-1
 186 190 l 1,41,-1
 93 190 l 1,42,-1
 0 190 l 1,43,-1
 0 469 l 1,44,-1
 0 748 l 1,45,-1
 93 748 l 1,46,-1
 186 748 l 1,47,-1
 186 841 l 1,48,-1
 186 934 l 1,49,-1
 373 934 l 1,50,-1
 559 934 l 1,51,-1
 559 841 l 1,52,-1
 559 748 l 1,53,-1
 652 748 l 1,54,-1
 745 748 l 1,55,-1
 745 934 l 1,8,-1
559 1307 m 1,56,-1
 559 1214 l 1,57,-1
 559 1121 l 1,58,-1
 466 1121 l 1,59,-1
 372 1121 l 1,60,-1
 372 1214 l 1,61,-1
 372 1307 l 1,62,-1
 466 1307 l 1,63,-1
 559 1307 l 1,56,-1
559 1307 m 1,64,-1
 559 1400 l 1,65,-1
 559 1493 l 1,66,-1
 652 1493 l 1,67,-1
 745 1493 l 1,68,-1
 745 1400 l 1,69,-1
 745 1307 l 1,70,-1
 652 1307 l 1,71,-1
 559 1307 l 1,64,-1
EndSplineSet
EndChar

StartChar: LATIN
Encoding: 272 272 210
Width: 1117
Flags: W
LayerCount: 2
Fore
SplineSet
186 1028 m 1,0,-1
 186 1307 l 1,1,-1
 559 1307 l 1,2,-1
 931 1307 l 1,3,-1
 931 1214 l 1,4,-1
 931 1121 l 1,5,-1
 652 1121 l 1,6,-1
 372 1121 l 1,7,-1
 372 934 l 1,8,-1
 372 748 l 1,9,-1
 466 748 l 1,10,-1
 559 748 l 1,11,-1
 559 655 l 1,12,-1
 559 562 l 1,13,-1
 466 562 l 1,14,-1
 372 562 l 1,15,-1
 372 376 l 1,16,-1
 372 190 l 1,17,-1
 652 190 l 1,18,-1
 931 190 l 1,19,-1
 931 655 l 1,20,-1
 931 1121 l 1,21,-1
 1024 1121 l 1,22,-1
 1117 1121 l 1,23,-1
 1117 655 l 1,24,-1
 1117 190 l 1,25,-1
 1024 190 l 1,26,-1
 931 190 l 1,27,-1
 931 97 l 1,28,-1
 931 4 l 1,29,-1
 559 4 l 1,30,-1
 186 4 l 1,31,-1
 186 283 l 1,32,-1
 186 562 l 1,33,-1
 93 562 l 1,34,-1
 0 562 l 1,35,-1
 0 655 l 1,36,-1
 0 748 l 1,37,-1
 93 748 l 1,38,-1
 186 748 l 1,39,-1
 186 1028 l 1,0,-1
EndSplineSet
EndChar

